<svg width="61" height="61" viewBox="0 0 61 61" fill="none" xmlns="http://www.w3.org/2000/svg">
<path fill-rule="evenodd" clip-rule="evenodd" d="M5.08317 5.08331C4.40908 5.08331 3.7626 5.35109 3.28594 5.82775C2.80929 6.3044 2.5415 6.95089 2.5415 7.62498V43.2083C2.5415 46.6497 4.82138 49.5574 7.95271 50.508C8.41886 52.0457 9.35887 53.3968 10.6386 54.3686C11.9182 55.3403 13.4722 55.8829 15.0786 55.919C16.685 55.9551 18.2618 55.4827 19.5838 54.5694C20.9058 53.6561 21.9055 52.3485 22.4402 50.8333H38.5595C39.0942 52.3485 40.0939 53.6561 41.4159 54.5694C42.7379 55.4827 44.3147 55.9551 45.9211 55.919C47.5275 55.8829 49.0814 55.3403 50.3611 54.3686C51.6408 53.3968 52.5808 52.0457 53.047 50.508C54.6128 50.0329 55.9842 49.0667 56.9587 47.7522C57.9331 46.4377 58.4588 44.8446 58.4582 43.2083V33.0416C58.4582 31.3728 58.1295 29.7202 57.4908 28.1784C56.8522 26.6365 55.9161 25.2356 54.736 24.0555C53.5559 22.8754 52.155 21.9393 50.6131 21.3007C49.0713 20.662 47.4187 20.3333 45.7498 20.3333H35.5832V7.62498C35.5832 6.95089 35.3154 6.3044 34.8387 5.82775C34.3621 5.35109 33.7156 5.08331 33.0415 5.08331H5.08317ZM38.5595 45.75H35.5832V25.4166H45.7498C47.7721 25.4166 49.7116 26.22 51.1415 27.65C52.5715 29.0799 53.3748 31.0194 53.3748 33.0416V43.2083C53.3747 43.8824 53.1068 44.5287 52.6301 45.0053C51.9803 43.6441 50.9414 42.5061 49.6448 41.7355C48.3482 40.9648 46.8522 40.596 45.3459 40.6757C43.8397 40.7554 42.3909 41.2801 41.1829 42.1833C39.9749 43.0866 39.0619 44.3278 38.5595 45.75ZM13.4529 46.4947C13.6873 46.2519 13.9678 46.0583 14.2779 45.9251C14.588 45.7919 14.9215 45.7218 15.259 45.7188C15.5965 45.7159 15.9312 45.7802 16.2435 45.908C16.5559 46.0358 16.8397 46.2245 17.0783 46.4632C17.3169 46.7018 17.5057 46.9856 17.6335 47.298C17.7613 47.6103 17.8256 47.945 17.8226 48.2825C17.8197 48.62 17.7496 48.9535 17.6164 49.2636C17.4832 49.5737 17.2896 49.8541 17.0468 50.0886C16.5674 50.5516 15.9254 50.8078 15.259 50.802C14.5926 50.7962 13.9551 50.5289 13.4838 50.0576C13.0126 49.5864 12.7453 48.9489 12.7395 48.2825C12.7337 47.6161 12.9899 46.9741 13.4529 46.4947ZM43.2082 48.2916C43.2082 47.6176 43.476 46.9711 43.9526 46.4944C44.4293 46.0178 45.0757 45.75 45.7498 45.75C46.4239 45.75 47.0704 46.0178 47.5471 46.4944C48.0237 46.9711 48.2915 47.6176 48.2915 48.2916C48.2915 48.9657 48.0237 49.6122 47.5471 50.0889C47.0704 50.5655 46.4239 50.8333 45.7498 50.8333C45.0757 50.8333 44.4293 50.5655 43.9526 50.0889C43.476 49.6122 43.2082 48.9657 43.2082 48.2916Z" fill="#235DCF"/>
</svg>
