<svg width="70" height="70" viewBox="0 0 70 70" fill="none" xmlns="http://www.w3.org/2000/svg">
<path d="M35 4.66669L0 21L9.33333 25.2V33.1334C6.53333 34.0667 4.66667 36.8667 4.66667 39.6667C4.66667 42.4667 6.53333 45.2667 9.33333 46.2V46.6667L5.13333 56.4667C3.73333 60.6667 4.66667 65.3334 11.6667 65.3334C18.6667 65.3334 19.6 60.6667 18.2 56.4667L14 46.6667C16.8 45.2667 18.6667 42.9334 18.6667 39.6667C18.6667 36.4 16.8 34.0667 14 33.1334V27.5334L35 37.3334L70 21L35 4.66669ZM55.5333 35L34.5333 44.3334L23.3333 39.2V39.6667C23.3333 42.9334 21.9333 45.7334 19.6 48.0667L22.4 54.6V55.0667C22.8667 56.9334 23.3333 58.8 22.8667 60.6667C26.1333 62.0667 29.8667 63 34.5333 63C49.9333 63 55.5333 53.6667 55.5333 49V35Z" fill="#235DCF"/>
</svg>
