<svg width="76" height="76" viewBox="0 0 76 76" fill="none" xmlns="http://www.w3.org/2000/svg">
<path d="M65.36 18.24H0V57.76H76V18.24H65.36ZM72.96 47.5319C71.2372 47.9955 69.6665 48.9034 68.405 50.165C67.1435 51.4265 66.2355 52.9972 65.7719 54.72H10.2281C9.76453 52.9972 8.85655 51.4265 7.59504 50.165C6.33353 48.9034 4.76277 47.9955 3.04 47.5319V28.4681C4.76277 28.0045 6.33353 27.0965 7.59504 25.835C8.85655 24.5735 9.76453 23.0028 10.2281 21.28H65.8069C66.3119 22.9723 67.2302 24.5123 68.479 25.761C69.7277 27.0098 71.2677 27.9281 72.96 28.4331V47.5319ZM41.2163 41.1236C40.8667 40.9108 41.04 40.7147 39.52 40.5338V44.9373L40.353 44.7822C41.4808 44.386 42.0452 43.6508 42.0462 42.5767C42.0462 41.955 41.7681 41.4656 41.2163 41.1236ZM34.3748 33.9385C34.3748 34.6165 34.6823 35.1231 35.2974 35.4585C35.5346 35.5913 35.9282 35.7377 36.4785 35.8978V31.7315C36.064 31.8219 35.6684 31.984 35.3096 32.2103C34.6864 32.6248 34.3748 33.2008 34.3748 33.9385ZM38 22.8C30.4441 22.8 24.32 29.6066 24.32 38C24.32 46.3919 30.4441 53.2 38 53.2C45.5559 53.2 51.68 46.3919 51.68 38C51.68 29.6066 45.5559 22.8 38 22.8ZM43.8581 46.5941C42.826 47.4757 41.04 48.0153 39.52 48.2189V50.16H36.48V48.184C34.8931 47.9682 33.5783 47.728 32.5462 46.9148C31.8876 46.3938 31.3532 45.7327 30.982 44.9795C30.6107 44.2262 30.4119 43.3997 30.4 42.56H34.1818C34.3049 42.56 34.545 43.7775 34.9038 44.2077C35.2762 44.65 35.8051 44.7017 36.48 44.8886V39.713C34.6302 39.2859 33.3412 38.8253 32.6253 38.3298C31.3475 37.4553 30.7086 36.0873 30.7086 34.2258C30.7086 32.5285 31.3338 31.1179 32.5842 29.9942C33.5398 29.1369 34.8384 28.6069 36.48 28.4042V25.84H39.52V28.4848C41.04 28.7113 42.0675 29.4165 43.016 30.1203C44.4433 31.1798 45.448 31.92 45.5164 34.96H41.7073C41.6358 33.44 40.8728 32.7834 39.9258 32.303C39.7819 32.2098 39.6462 32.1045 39.52 31.9884V36.7657L40.891 37.0302C42.3487 37.3737 43.697 37.8328 44.4235 38.4058C45.5544 39.2996 45.9922 40.5901 45.9922 42.2773C45.9952 44.0101 45.1957 45.448 43.8581 46.5941Z" fill="#235DCF"/>
</svg>
