<svg width="66" height="66" viewBox="0 0 66 66" fill="none" xmlns="http://www.w3.org/2000/svg">
<path d="M44.99 38.5C45.21 36.685 45.375 34.87 45.375 33C45.375 31.13 45.21 29.315 44.99 27.5H54.285C54.725 29.26 55 31.1025 55 33C55 34.8975 54.725 36.74 54.285 38.5M40.1225 53.79C41.7725 50.7375 43.0375 47.4375 43.9175 44H52.03C49.3657 48.5878 45.1388 52.063 40.1225 53.79ZM39.435 38.5H26.565C26.29 36.685 26.125 34.87 26.125 33C26.125 31.13 26.29 29.2875 26.565 27.5H39.435C39.6825 29.2875 39.875 31.13 39.875 33C39.875 34.87 39.6825 36.685 39.435 38.5ZM33 54.89C30.7175 51.59 28.875 47.9325 27.7475 44H38.2525C37.125 47.9325 35.2825 51.59 33 54.89ZM22 22H13.97C16.6063 17.3993 20.8303 13.9184 25.85 12.21C24.2 15.2625 22.9625 18.5625 22 22ZM13.97 44H22C22.9625 47.4375 24.2 50.7375 25.85 53.79C20.8402 52.0638 16.6218 48.5875 13.97 44ZM11.715 38.5C11.275 36.74 11 34.8975 11 33C11 31.1025 11.275 29.26 11.715 27.5H21.01C20.79 29.315 20.625 31.13 20.625 33C20.625 34.87 20.79 36.685 21.01 38.5M33 11.0825C35.2825 14.3825 37.125 18.0675 38.2525 22H27.7475C28.875 18.0675 30.7175 14.3825 33 11.0825ZM52.03 22H43.9175C43.0555 18.5944 41.7811 15.3068 40.1225 12.21C45.1825 13.9425 49.39 17.435 52.03 22ZM33 5.5C17.7925 5.5 5.5 17.875 5.5 33C5.5 40.2935 8.39731 47.2882 13.5546 52.4454C16.1082 54.999 19.1398 57.0247 22.4762 58.4067C25.8127 59.7887 29.3886 60.5 33 60.5C40.2935 60.5 47.2882 57.6027 52.4454 52.4454C57.6027 47.2882 60.5 40.2935 60.5 33C60.5 29.3886 59.7887 25.8127 58.4067 22.4762C57.0247 19.1398 54.999 16.1082 52.4454 13.5546C49.8918 11.001 46.8602 8.97532 43.5238 7.59331C40.1873 6.21131 36.6114 5.5 33 5.5Z" fill="#235DCF"/>
</svg>
