<svg width="71" height="71" viewBox="0 0 71 71" fill="none" xmlns="http://www.w3.org/2000/svg">
<path d="M59.1962 17.435C59.009 17.2861 58.7851 17.1904 58.5481 17.158C58.3111 17.1256 58.0698 17.1577 57.8494 17.2508L36.4163 26.5318C35.4844 26.9379 34.3174 27.1309 33.1192 27.1309C31.4485 27.1375 29.7201 26.7493 28.5153 26.2212C28.148 26.0669 27.7984 25.8735 27.4725 25.6443C27.5628 25.6 27.67 25.5526 27.7942 25.5023L47.2882 17.0622L50.1947 18.3047V14.6726C50.1983 14.4137 50.1438 14.1573 50.0351 13.9223C49.9264 13.6873 49.7664 13.4797 49.5668 13.3147C49.3812 13.1645 49.158 13.0679 48.9213 13.0355C48.6847 13.003 48.4438 13.0359 48.2245 13.1306L26.7914 22.4116C26.1302 22.6779 25.5622 23.0062 25.0829 23.4833C24.5286 24.0312 24.2135 24.7762 24.2065 25.5556C24.2065 25.5778 24.2132 25.6155 24.2132 25.6155V58.2977L24.2087 58.3421L24.2154 58.3642V58.3997H24.2198C24.2642 59.5424 24.8411 60.2701 25.3913 60.7849C27.122 62.3114 30.0285 63.1656 33.1215 63.21C34.5858 63.21 36.0724 62.9881 37.448 62.3979L58.8878 53.1147C59.4536 52.8706 59.8241 52.2649 59.8241 51.5793V18.7928C59.8277 18.5339 59.7731 18.2775 59.6645 18.0425C59.5558 17.8075 59.3958 17.5999 59.1962 17.435ZM45.6019 11.2225C45.5642 10.7343 45.3623 10.2684 45.0029 9.98883C44.8156 9.83997 44.5918 9.74431 44.3548 9.7119C44.1178 9.67949 43.8764 9.71154 43.6561 9.80467L22.223 19.0813C21.2911 19.4851 20.1218 19.6803 18.9259 19.6803C17.2552 19.6848 15.5268 19.2965 14.322 18.7662C13.9549 18.6133 13.6053 18.4214 13.2792 18.1938C13.3694 18.1494 13.4767 18.1021 13.6009 18.0518L33.0971 9.61164L36.0036 10.8541V7.22648C36.0069 6.96741 35.952 6.71091 35.843 6.47589C35.7339 6.24087 35.5735 6.03334 35.3735 5.86861C35.1865 5.72016 34.963 5.62473 34.7264 5.59233C34.4899 5.55993 34.249 5.59175 34.0289 5.68445L12.5958 14.9677C11.9346 15.234 11.3688 15.5601 10.8874 16.0394C10.3338 16.5876 10.0196 17.3326 10.0132 18.1117C10.0132 18.1383 10.0198 18.1738 10.0198 18.1738V50.9603H10.0243C10.0687 52.1029 10.6455 52.8307 11.1958 53.3454C12.9264 54.8719 15.833 55.7239 18.9281 55.7683C19.7686 55.7629 20.6064 55.6722 21.4287 55.4976V25.6133C21.4065 24.0601 22.0277 22.5691 23.1193 21.4953C23.8766 20.7628 24.7749 20.1921 25.7597 19.8179L45.6019 11.2225Z" fill="#235DCF"/>
</svg>
