<svg width="362" height="273" viewBox="0 0 362 273" fill="none" xmlns="http://www.w3.org/2000/svg">
<path d="M71.4539 185.355C71.1342 184.007 70.8307 182.652 70.5435 181.29" stroke="#DDDDDD" stroke-width="3" stroke-linecap="round" stroke-linejoin="round"/>
<mask id="mask0_0_13" style="mask-type:luminance" maskUnits="userSpaceOnUse" x="0" y="41" width="149" height="116">
<path d="M148.529 52.3671V156.117H0.591799V52.3671C0.590886 50.9929 0.860765 49.632 1.38601 48.3622C1.91125 47.0923 2.68157 45.9384 3.65293 44.9664C4.6243 43.9944 5.77768 43.2233 7.04717 42.6973C8.31666 42.1712 9.67737 41.9004 11.0516 41.9004H138.07C139.444 41.9004 140.805 42.1712 142.074 42.6973C143.344 43.2233 144.497 43.9944 145.468 44.9664C146.44 45.9384 147.21 47.0923 147.735 48.3622C148.261 49.632 148.53 50.9929 148.529 52.3671Z" fill="white"/>
</mask>
<g mask="url(#mask0_0_13)">
<path d="M117.588 153.49C120.771 155.088 124.893 152.1 129.473 148.055L124.51 143.607C124.51 143.607 116.726 150.863 117.588 153.49Z" fill="#A7CAF0"/>
<path d="M160.018 134.356L148.53 157.771H124.364L120.34 146.526L134.018 134.356H160.018Z" fill="#FEBD9D"/>
<path d="M141.295 134.356L129.98 152.037" stroke="#EF8A66" stroke-width="0.75" stroke-linecap="round" stroke-linejoin="round"/>
<path d="M136.986 136.184C128.791 140.861 117.588 153.49 117.588 153.49L114.579 159.467L112.827 162.942H53.377C51.987 157.931 50.7916 151.405 49.902 146.116C49.207 142.022 48.7622 138.672 48.5815 137.359L48.5051 136.768C46.99 138.109 46.2533 138.158 46.2533 138.158L43.4733 145.504L43.2161 146.199C33.3471 139.597 15.291 138.429 15.291 138.429L17.7166 130.235C16.9878 128.55 16.7844 126.685 17.1328 124.883C17.5289 122.833 22.9638 113.326 28.4404 105.347C30.5998 102.101 32.9947 99.0188 35.6059 96.1242C35.8213 95.9018 36.0437 95.6864 36.2661 95.4848C42.8756 89.4036 53.8288 90.2863 61.029 90.9396C62.0993 91.0369 63.114 91.1064 64.0592 91.1481C66.1867 91.2599 68.3187 91.2599 70.4462 91.1481C72.1907 91.0577 73.1498 90.9256 73.1498 90.9256C73.3722 89.9109 73.5807 88.8406 73.7892 87.6661C75.0888 80.0697 75.8186 69.9297 74.6579 63.2646L92.9503 71.4309C93.2631 74.753 94.4863 82.0435 95.3272 86.839C95.7998 89.5217 96.1404 91.4261 96.1404 91.4261C97.6138 91.155 99.0038 90.9118 100.31 90.6894C118.881 87.541 123.662 88.7225 128.805 97.7784C128.944 98.0147 129.076 98.2649 129.215 98.529C132.385 104.784 134.546 117.294 135.748 126.134C136.603 131.945 136.986 136.184 136.986 136.184Z" fill="#C3DCF8"/>
<path d="M136.986 136.184C128.952 140.778 118.005 153.024 117.595 153.476C117.741 153.17 120.132 148.221 120.375 146.526C120.618 144.83 119.771 139.812 118.457 135.093L135.832 126.162C136.603 131.945 136.986 136.184 136.986 136.184Z" fill="#C3DCF8"/>
<path d="M75.1166 138.888C74.9845 145.546 59.3887 146.484 49.9228 146.116C49.2278 142.022 48.783 138.672 48.6023 137.359L48.5259 136.768C51.9658 133.278 54.8091 129.247 56.9423 124.835C62.5023 128.63 55.3716 132.529 55.1006 134.356C54.3639 139.367 75.3042 129.38 75.1166 138.888Z" fill="#A7CAF0"/>
<path d="M129.285 98.5569C123.864 96.6734 117.776 96.736 113.557 103.471C104.056 118.635 86.2225 130.464 68.3819 112.561C65.9423 110.048 63.2736 107.768 60.4102 105.75C49.8671 98.536 40.9502 99.9955 28.4819 105.34C30.6413 102.094 33.0362 99.012 35.6474 96.1174C35.8628 95.895 36.0852 95.6796 36.3076 95.478C42.9171 89.3968 53.8703 90.2794 61.0705 90.9327C62.1408 91.03 63.1555 91.0995 64.1007 91.1412C66.2282 91.2531 68.3602 91.2531 70.4877 91.1412C72.2322 91.0509 73.1913 90.9188 73.1913 90.9188C73.4137 89.9041 73.6222 88.8338 73.8307 87.6593C75.1303 80.0629 75.8601 69.9229 74.6994 63.2578L92.9918 71.4241C93.3046 74.7462 94.5278 82.0367 95.3687 86.8322C95.8413 89.5149 96.1819 91.4192 96.1819 91.4192C97.6553 91.1482 99.0453 90.9049 100.352 90.6825C118.922 87.5342 123.704 88.7157 128.847 97.7715C129.014 98.0426 129.146 98.2928 129.285 98.5569Z" fill="#D0E5F7"/>
<path d="M100.38 90.7171C100.324 95.4153 99.817 103.978 97.7737 110.031C95.1327 117.885 92.0191 114.695 88.5997 111.595C85.507 108.773 74.2341 99.3837 64.1079 91.1619C66.2355 91.2738 68.3674 91.2738 70.495 91.1619C72.2394 91.0715 73.1985 90.9395 73.1985 90.9395C73.4209 89.9248 73.6294 88.8545 73.8379 87.6799C81.1841 87.2004 89.9967 86.7278 95.3829 86.8529C95.8555 89.5356 96.1961 91.4399 96.1961 91.4399C97.6556 91.1549 99.0456 90.9395 100.38 90.7171Z" fill="#4587D5"/>
<path d="M93.1799 108.676C93.1799 108.676 77.5285 98.0284 70.4951 91.1549C72.2396 91.0645 73.1987 90.9325 73.1987 90.9325C74.8736 83.2388 76.0412 70.9512 74.7068 63.2715L86.5983 68.5743L92.9992 71.4377C93.2286 73.8911 93.9653 78.5476 94.6672 82.7315C95.4456 87.3602 96.1893 91.4329 96.1893 91.4329C96.7592 104.93 93.1799 108.676 93.1799 108.676Z" fill="#FEBD9D"/>
<path d="M117.588 153.49C117.734 153.184 120.125 148.235 120.368 146.54C120.611 144.844 119.763 139.826 118.45 135.107C118.38 134.864 118.311 134.613 118.234 134.37" stroke="#4587D5" stroke-width="0.75" stroke-linecap="round" stroke-linejoin="round"/>
<path d="M94.6602 82.7524C82.31 83.5099 83.7 70.2354 83.8043 69.9018L86.5843 68.5952L92.9852 71.4586C93.2215 73.912 93.9582 78.5685 94.6602 82.7524Z" fill="#F4A789"/>
<path d="M15.3325 138.415C14.985 139.437 14.985 140.549 22.7343 142.731L23.9297 137.651C23.9297 137.651 16.8824 135.746 15.3325 138.415Z" fill="#A7CAF0"/>
<path d="M19.5792 135.74C17.7583 141.675 11.406 161.552 11.406 161.552C9.6824 168.842 31.3038 173.603 38.9975 161.218L43.2301 141.279C36.2353 136.727 27.8678 134.767 19.5792 135.74Z" fill="#FEBD9D"/>
<path d="M55.1285 128.192C55.1016 128.231 55.0783 128.273 55.059 128.317C54.1416 129.783 53.12 131.278 52.008 132.82L51.9315 132.925C50.8889 134.285 49.7509 135.569 48.526 136.768C47.0109 138.109 46.2742 138.158 46.2742 138.158L43.2579 146.185C42.9521 145.984 42.6394 145.782 42.3127 145.588C36.8083 142.252 29.2328 140.417 23.5477 139.444C21.6782 139.124 20.0102 138.902 18.6827 138.749C16.6394 138.506 15.3745 138.422 15.3745 138.422L17.8001 130.228C17.0713 128.544 16.8679 126.679 17.2163 124.877C17.6124 122.826 23.0473 113.319 28.5239 105.34C30.6833 102.095 33.0782 99.0121 35.6894 96.1175C35.9048 95.8951 36.1272 95.6797 36.3496 95.4781C45.7182 91.0927 57.8946 92.1699 60.2924 104.812C60.3549 105.125 60.4105 105.437 60.4522 105.75C61.7866 114.167 59.7086 120.846 55.1285 128.192Z" fill="#C3DCF8"/>
<path d="M60.4102 105.75C49.8671 98.5361 40.9502 99.9956 28.4819 105.34C30.6413 102.095 33.0362 99.0121 35.6474 96.1175C35.8628 95.8951 36.0852 95.6797 36.3076 95.4781C45.6762 91.0927 57.8526 92.1699 60.2504 104.812C60.3129 105.146 60.3685 105.458 60.4102 105.75Z" fill="#D0E5F7"/>
<path d="M21.6084 131.965C28.1344 131.965 34.5145 134.634 35.5918 135.141" stroke="#4587D5" stroke-width="0.75" stroke-linecap="round" stroke-linejoin="round"/>
<path d="M48.5259 136.768C49.7507 135.569 50.8888 134.285 51.9314 132.925L52.0078 132.82C53.1064 131.376 54.1249 129.873 55.0589 128.317C55.0782 128.273 55.1014 128.231 55.1284 128.192C55.8651 126.948 56.4767 125.801 56.9423 124.835C57.3246 124.084 57.6026 123.445 57.7972 122.972" stroke="#4587D5" stroke-width="0.75" stroke-linecap="round" stroke-linejoin="round"/>
<path d="M105.022 130.964C105.273 134.252 103.341 135.093 103.341 135.093C103.605 143.085 101.256 146.908 97.3497 147.922C93.4438 148.937 83.3524 151.078 83.3524 151.078C82.3064 151.503 81.2975 152.015 80.3361 152.607C79.2102 153.246 77.8132 154.066 76.1661 155.039C71.1482 157.972 63.246 160.71 53.8566 165.659C37.2183 174.43 25.3616 169.676 24.5693 160.37C23.1376 143.335 44.7729 142.223 52.6751 140.91C58.4019 139.951 67.2701 137.678 72.7675 136.406C74.8525 135.934 76.4163 135.6 77.153 135.531C79.794 135.294 85.2705 132.403 94.8824 129.38C104.494 126.357 112.257 124.605 112.257 126.725C112.257 128.845 105.022 130.964 105.022 130.964Z" fill="#FEBD9D"/>
<path d="M94.8965 129.38C104.501 126.343 112.271 124.605 112.271 126.725C112.271 128.845 104.995 130.986 104.995 130.986C105.245 134.273 103.313 135.114 103.313 135.114C103.577 143.106 101.228 146.929 97.322 147.944" stroke="#EF8A66" stroke-width="0.75" stroke-linecap="round" stroke-linejoin="round"/>
<path d="M28.6001 148.84C32.7701 144.802 39.449 143.058 45.0924 142.071" stroke="#EF8A66" stroke-width="0.75" stroke-linecap="round" stroke-linejoin="round"/>
<path d="M80.3362 152.607C79.2103 153.247 77.8133 154.067 76.1662 155.04C72.295 150.724 70.2865 144.038 72.7676 136.386C74.8526 135.913 76.4164 135.58 77.1531 135.51C75.36 140.41 75.0264 148.403 80.3362 152.607Z" fill="#683F1D"/>
<path d="M105.022 130.965L99.0801 132.89" stroke="#EF8A66" stroke-width="0.75" stroke-linecap="round" stroke-linejoin="round"/>
<path d="M103.341 135.093L99.6851 136.42" stroke="#EF8A66" stroke-width="0.75" stroke-linecap="round" stroke-linejoin="round"/>
<path d="M100.081 140.257L103.195 139.409" stroke="#EF8A66" stroke-width="0.75" stroke-linecap="round" stroke-linejoin="round"/>
<path d="M78.932 145.365C78.932 146.359 78.6373 147.331 78.0852 148.157C77.533 148.983 76.7483 149.627 75.8301 150.008C74.9119 150.388 73.9016 150.487 72.9269 150.293C71.9522 150.1 71.0568 149.621 70.3541 148.918C69.6513 148.216 69.1728 147.32 68.9789 146.345C68.785 145.371 68.8845 144.36 69.2648 143.442C69.6451 142.524 70.2892 141.739 71.1155 141.187C71.9419 140.635 72.9134 140.34 73.9072 140.34C75.2399 140.34 76.5179 140.87 77.4603 141.812C78.4026 142.754 78.932 144.033 78.932 145.365Z" fill="white" stroke="#683F1D" stroke-linecap="round" stroke-linejoin="round"/>
</g>
<path d="M112.633 138.346C115.01 135.823 118.978 135.51 118.978 135.51L123.572 140.257C123.572 140.257 124.879 126.239 118.978 107.008C117.859 116.398 114.405 131.507 112.633 138.346Z" fill="#DDDDDD" stroke="#DDDDDD" stroke-linecap="round" stroke-linejoin="round"/>
<path d="M157.961 104.159C164.598 125.218 164.278 140.257 164.278 140.257H123.572C123.572 140.257 118.089 119.359 118.978 107.009C118.978 107.009 118.207 104.097 120.757 103.839C123.308 103.582 157.961 104.159 157.961 104.159Z" fill="#F9F9F9" stroke="#DDDDDD" stroke-linecap="round" stroke-linejoin="round"/>
<path d="M125.344 103.951C125.341 103.893 125.341 103.835 125.344 103.777C125.404 103.214 125.624 102.681 125.98 102.242C126.336 101.802 126.812 101.475 127.35 101.3C127.887 101.125 128.464 101.11 129.011 101.256C129.557 101.402 130.049 101.704 130.428 102.124C130.807 102.544 131.055 103.065 131.144 103.624C131.233 104.182 131.158 104.755 130.928 105.271C130.698 105.788 130.324 106.227 129.849 106.536C129.375 106.844 128.822 107.008 128.256 107.009" stroke="#EDEDED" stroke-linecap="round" stroke-linejoin="round"/>
<path d="M146.027 103.95C146.102 103.393 146.336 102.87 146.7 102.442C147.064 102.014 147.544 101.701 148.082 101.538C148.62 101.376 149.193 101.372 149.733 101.527C150.273 101.682 150.758 101.989 151.128 102.411C151.498 102.834 151.739 103.354 151.822 103.91C151.904 104.466 151.825 105.033 151.593 105.545C151.362 106.057 150.988 106.492 150.516 106.797C150.044 107.102 149.494 107.264 148.932 107.265C148.444 107.265 147.965 107.135 147.542 106.89" stroke="#EDEDED" stroke-linecap="round" stroke-linejoin="round"/>
<path d="M133.649 103.825C133.681 103.063 133.997 102.34 134.535 101.799C135.072 101.258 135.793 100.937 136.555 100.899C137.357 100.983 138.099 101.36 138.639 101.959C139.179 102.558 139.478 103.335 139.478 104.142C139.478 104.948 139.179 105.726 138.639 106.324C138.099 106.923 137.357 107.301 136.555 107.384C135.899 107.373 135.27 107.127 134.782 106.689" stroke="#EDEDED" stroke-linecap="round" stroke-linejoin="round"/>
<path d="M139.849 103.895C139.923 103.339 140.155 102.816 140.518 102.388C140.88 101.96 141.359 101.646 141.896 101.484C142.432 101.321 143.004 101.316 143.544 101.47C144.083 101.624 144.567 101.93 144.937 102.351C145.307 102.773 145.547 103.292 145.63 103.846C145.713 104.401 145.634 104.968 145.403 105.479C145.172 105.99 144.799 106.424 144.328 106.728C143.857 107.033 143.308 107.195 142.747 107.196" stroke="#EDEDED" stroke-linecap="round" stroke-linejoin="round"/>
<path d="M155.779 110.928H127.256V114.188H155.779V110.928Z" stroke="#DDDDDD" stroke-linecap="round" stroke-linejoin="round"/>
<path d="M134.324 136.706L133.962 133.96L132.128 119.831L131.822 117.51" stroke="#EDEDED" stroke-linecap="round" stroke-linejoin="round"/>
<path d="M143.581 136.706L143.199 133.766L141.406 120.012L141.079 117.51" stroke="#EDEDED" stroke-linecap="round" stroke-linejoin="round"/>
<path d="M150.344 117.503L152.839 136.713" stroke="#EDEDED" stroke-linecap="round" stroke-linejoin="round"/>
<path d="M156.084 121.346H141.579H132.322H128.263" stroke="#EDEDED" stroke-linecap="round" stroke-linejoin="round"/>
<path d="M157.495 129.735H142.671H133.414H129.667" stroke="#EDEDED" stroke-linecap="round" stroke-linejoin="round"/>
<path d="M134.963 118.17C130.362 120.519 128.145 130.312 135.95 130.965C147.452 131.924 148.001 117.76 137.924 119.094" fill="#F9F9F9"/>
<path d="M134.963 118.17C130.362 120.519 128.145 130.312 135.95 130.965C147.452 131.924 148.001 117.76 137.924 119.094" stroke="#DDDDDD" stroke-width="2" stroke-linecap="round" stroke-linejoin="round"/>
<path d="M142.671 129.735H133.413L132.322 121.346H141.58L142.671 129.735Z" fill="#EDEDED"/>
<path d="M159.302 128.47C159.497 131.66 165.557 128.15 165.14 125.356C164.723 122.562 159.073 124.773 159.302 128.47Z" fill="#FEBD9D" stroke="#EF8A66" stroke-width="0.75" stroke-linecap="round" stroke-linejoin="round"/>
<path d="M158.274 124.175C158.496 127.372 165.321 123.862 164.876 121.062C164.431 118.261 158.016 120.485 158.274 124.175Z" fill="#FEBD9D" stroke="#EF8A66" stroke-width="0.75" stroke-linecap="round" stroke-linejoin="round"/>
<path d="M157.794 120.971C158.03 124.161 165.349 120.651 164.869 117.857C164.39 115.063 157.523 117.273 157.794 120.971Z" fill="#FEBD9D" stroke="#EF8A66" stroke-width="0.75" stroke-linecap="round" stroke-linejoin="round"/>
<path d="M156.765 117.016C157.008 119.915 164.556 116.731 164.063 114.195C163.569 111.658 156.48 113.666 156.765 117.016Z" fill="#FEBD9D" stroke="#EF8A66" stroke-width="0.75" stroke-linecap="round" stroke-linejoin="round"/>
<path d="M134.963 118.17C130.362 120.519 128.145 130.312 135.95 130.965C147.452 131.924 148.001 117.76 137.924 119.094" stroke="#DDDDDD" stroke-width="2" stroke-linecap="round" stroke-linejoin="round"/>
<path d="M107.496 43.798C106.892 48.8228 100.171 51.7696 100.171 51.7696L81.5243 68.0465C79.613 71.0976 74.4075 72.6335 71.2383 70.0829C69.3827 68.5956 68.229 65.7113 68.8545 60.9089C68.3356 60.9091 67.828 60.7568 67.3949 60.471C65.2474 59.1436 63.9199 54.911 67.1447 49.8862C66.9154 50.1086 62.6203 54.2855 58.2001 53.0206C57.4399 52.8175 56.7315 52.4554 56.1217 51.9582C55.5119 51.461 55.0146 50.8401 54.6626 50.1364C53.2726 47.2938 53.7591 42.5539 57.7275 36.0557C60.5492 31.42 64.4759 30.586 67.8397 31.4548C71.6483 32.4278 74.7342 35.5553 74.7342 37.8279C75.5745 36.7967 76.5492 35.8827 77.6323 35.1105C79.1196 34.0749 80.9613 33.373 82.6085 34.3738C82.6085 34.3738 88.4048 31.2532 91.6991 33.2062C95.7996 35.6248 94.8961 37.3067 98.8854 37.5708C101.853 37.7654 106.53 38.516 107.385 41.8798C107.548 42.5057 107.586 43.1575 107.496 43.798Z" fill="#DD6819"/>
<path d="M74.7343 37.8281L67.1588 49.8724C66.6178 50.3787 66.0393 50.8433 65.4283 51.2624C63.7255 52.4439 61.0011 53.7922 58.2211 52.9999C57.461 52.7969 56.7526 52.4347 56.1428 51.9375C55.5329 51.4403 55.0356 50.8194 54.6836 50.1157C63.3155 49.935 66.3526 47.5233 64.5804 42.7765C62.9332 38.3563 61.2235 32.8032 67.8608 31.4341C70.4574 32.0807 72.7138 33.6843 74.1783 35.9238C74.5239 36.5004 74.7154 37.1561 74.7343 37.8281Z" fill="#CC5E0D"/>
<path d="M107.497 43.7981C106.892 48.8229 100.171 51.7697 100.171 51.7697L81.5245 68.0466C79.6132 71.0977 74.4077 72.6336 71.2385 70.083C70.1426 67.4548 69.8734 64.5551 70.4669 61.7702C71.0604 58.9852 72.4884 56.4471 74.5606 54.4941C78.3831 51.0191 75.5822 48.4268 75.9506 43.8537C76.3189 39.2806 84.6867 32.2402 90.6776 38.5578C95.3758 43.5131 104.216 37.5222 107.42 41.8799C107.571 42.5081 107.597 43.1599 107.497 43.7981Z" fill="#CC5E0D"/>
<path d="M96.0638 77.0539C87.6821 76.1921 79.1753 67.4977 79.1753 67.4977C75.9783 71.1395 69.6747 65.6976 72.7952 61.1662C74.8385 58.1847 78.0355 59.9569 78.8139 61.5832C80.1107 60.7459 81.0617 59.4686 81.492 57.9862C81.9223 56.5037 81.803 54.9158 81.156 53.5143C80.47 51.7935 80.1733 49.9422 80.2873 48.0933C83.1229 43.7843 90.6428 42.7974 90.6428 42.7974C91.7543 43.9693 93.1063 44.8867 94.6059 45.4865C96.1055 46.0864 97.7172 46.3545 99.3303 46.2724C99.3303 46.2724 101.909 51.3111 104.008 56.4333C104.049 56.5445 104.105 56.6696 104.147 56.7808C104.737 58.2403 105.286 59.6998 105.717 61.0342C105.759 61.1662 105.794 61.2844 105.836 61.4095C106.181 62.4634 106.436 63.5444 106.6 64.6412C107.274 70.1526 104.439 77.9505 96.0638 77.0539Z" fill="#FEBD9D"/>
<path d="M99.5454 54.1325C99.5454 54.3112 99.5984 54.4859 99.6977 54.6345C99.797 54.783 99.9381 54.8989 100.103 54.9672C100.268 55.0356 100.45 55.0535 100.625 55.0186C100.8 54.9838 100.961 54.8977 101.088 54.7714C101.214 54.645 101.3 54.484 101.335 54.3088C101.37 54.1335 101.352 53.9518 101.284 53.7868C101.215 53.6217 101.099 53.4806 100.951 53.3813C100.802 53.282 100.628 53.229 100.449 53.229C100.21 53.2308 99.9811 53.3266 99.8121 53.4957C99.643 53.6647 99.5472 53.8934 99.5454 54.1325Z" fill="#683F1D"/>
<path d="M94.8962 55.9466C95.3952 55.9466 95.7997 55.5421 95.7997 55.0431C95.7997 54.5442 95.3952 54.1396 94.8962 54.1396C94.3972 54.1396 93.9927 54.5442 93.9927 55.0431C93.9927 55.5421 94.3972 55.9466 94.8962 55.9466Z" fill="#683F1D"/>
<path d="M93.8325 61.1592C95.6435 62.0673 97.6525 62.5093 99.6775 62.4449C99.6775 62.4449 99.2883 65.8296 96.3832 64.9261C93.8464 64.1407 93.8325 61.1592 93.8325 61.1592Z" fill="white" stroke="#EF8A66" stroke-width="0.75" stroke-linecap="round" stroke-linejoin="round"/>
<path d="M90.9694 52.388C91.303 53.5 95.4799 52.388 95.0212 50.581C94.5625 48.774 90.4898 50.8451 90.9694 52.388Z" fill="#DD6819"/>
<path d="M98.0651 50.1505C98.0026 51.3598 102.277 51.4432 102.277 50.4007C102.277 49.4555 98.1763 48.1976 98.0651 50.1505Z" fill="#DD6819"/>
<path d="M68.8545 60.9088C69.3721 57.4884 71.0272 54.3422 73.5527 51.978" stroke="#FF79A0" stroke-width="0.75" stroke-linecap="round" stroke-linejoin="round"/>
<path d="M82.6084 34.3667C81.2948 35.4161 79.328 38.8286 78.5635 40.3646" stroke="#FF79A0" stroke-width="0.75" stroke-linecap="round" stroke-linejoin="round"/>
<path d="M81.4409 43.8048C82.9908 39.6765 85.9723 37.8139 87.3693 39.3985C88.7662 40.9831 90.6427 42.7901 90.6427 42.7901" stroke="#FF79A0" stroke-width="0.75" stroke-linecap="round" stroke-linejoin="round"/>
<path d="M99.3301 46.3069C101.068 46.2374 102.722 44.4651 103.222 43.4365" stroke="#FF79A0" stroke-width="0.75" stroke-linecap="round" stroke-linejoin="round"/>
<path d="M64.5594 49.1286C58.1515 50.1294 54.9893 40.6426 60.1948 33.1436" stroke="#FF79A0" stroke-width="0.75" stroke-linecap="round" stroke-linejoin="round"/>
<path d="M70.9812 40.3649C72.3226 36.8899 67.8468 31.2812 65.4212 35.1315C62.6412 39.5378 66.7 45.3828 70.9812 44.8615" stroke="#FF79A0" stroke-width="0.75" stroke-linecap="round" stroke-linejoin="round"/>
<path d="M67.1587 49.8725C68.6928 45.3137 71.2895 41.1852 74.7342 37.8281C74.7342 37.8281 72.7882 41.7757 74.2129 44.5835C71.74 46.1783 69.3827 47.9456 67.1587 49.8725Z" fill="#FF626C"/>
<path d="M73.5527 64.1407C74.8454 61.8541 77.0903 61.9792 78.2718 63.9044" stroke="#EF8A66" stroke-width="0.75" stroke-linecap="round" stroke-linejoin="round"/>
<path d="M77.7992 63.2927C75.1374 62.5977 75.1304 66.17 77.9591 65.6626" stroke="#EF8A66" stroke-width="0.75" stroke-linecap="round" stroke-linejoin="round"/>
<path d="M97.1341 53.4795C97.0924 55.5645 98.7604 56.7599 99.8585 57.3367C100.957 57.9136 100.595 59.4217 100.519 59.6441" stroke="#EF8A66" stroke-width="0.75" stroke-linecap="round" stroke-linejoin="round"/>
<path d="M79.1821 67.5255C79.6085 66.9748 79.9634 66.3723 80.2385 65.7324" stroke="#EF8A66" stroke-width="0.75" stroke-linecap="round" stroke-linejoin="round"/>
<path d="M91.2194 60.4777C90.5244 61.7982 88.3907 62.0415 86.3544 61.0337C84.318 60.026 83.2547 58.1286 83.9219 56.8081C84.5891 55.4876 86.7505 55.2444 88.7869 56.2591C90.8232 57.2738 91.8866 59.185 91.2194 60.4777Z" fill="#F4AF90"/>
<path d="M105.836 61.4371C105.4 61.6387 104.915 61.7124 104.439 61.6497C103.963 61.5869 103.515 61.3903 103.146 61.0827C102.138 60.0749 102.52 58.0316 104.008 56.4609C104.049 56.5721 104.105 56.6972 104.147 56.8084C104.737 58.2679 105.286 59.7274 105.717 61.0618C105.759 61.1939 105.794 61.312 105.836 61.4371Z" fill="#F4AF90"/>
<path d="M217.974 42.3039C215.194 33.6581 214.986 32.5738 216.848 31.9275C218.711 31.2811 223.43 41.1015 223.965 42.3039C225.835 46.0883 227.275 50.0698 228.26 54.1744C229.087 58.0108 230.171 66.8443 230.345 68.971C231.082 77.9504 216.278 80.6818 215.632 73.697C214.986 66.7122 214.937 64.4535 214.937 64.4535C214.937 64.4535 207.292 65.1485 206.222 59.4634C205.151 53.7783 205.45 45.9804 205.45 45.9804C205.45 45.9804 193.83 44.0553 194.233 40.9903C194.636 37.9254 217.376 44.1178 217.376 44.1178L217.974 42.3039Z" fill="#B25E47"/>
<path d="M205.45 45.9805C205.45 45.9805 193.83 44.0554 194.233 40.9904C194.636 37.9255 217.376 44.1179 217.376 44.1179L217.974 42.3248C215.194 33.679 214.986 32.5948 216.848 31.9485C218.711 31.3021 223.43 41.1225 223.965 42.3248" stroke="#934735" stroke-width="0.75" stroke-linecap="round" stroke-linejoin="round"/>
<path d="M217.377 44.0972C216.378 47.9286 216.538 51.9699 217.835 55.7106" stroke="#934735" stroke-width="0.75" stroke-linecap="round" stroke-linejoin="round"/>
<path d="M211.935 37.4666C213.756 38.4118 215.194 38.6133 215.736 36.014C216.278 33.4147 213.714 33.3522 212.887 33.4912C211.615 33.6997 211.149 37.0565 211.935 37.4666Z" fill="#683F1D"/>
<path d="M212.275 36.7993C211.99 37.8127 211.758 38.8404 211.58 39.8782C211.879 40.0311 213.665 40.6357 213.901 40.0311C214.174 38.9698 214.367 37.8895 214.478 36.7993H212.275Z" fill="#683F1D"/>
<path d="M210.649 40.7402C209.697 45.0006 204.776 68.3525 204.609 69.117C204.443 69.8815 204.665 73.4121 204.964 73.5442C205.263 73.6763 206.979 71.1534 207.605 69.8746C208.23 68.5958 213.763 42.9711 214.103 41.7757C214.951 38.8637 211.274 37.9533 210.649 40.7402Z" fill="#683F1D"/>
<path d="M206.319 53.9936C203.935 54.5427 203.261 56.8153 205.019 58.3234C206.91 59.9497 211.566 59.227 211.782 57.1489C211.997 55.0709 208.307 53.5419 206.319 53.9936Z" fill="#B25E47" stroke="#934735" stroke-width="0.75" stroke-linecap="round" stroke-linejoin="round"/>
<path d="M206.103 50.2688C203.657 49.9074 203.059 52.3538 204.804 54.2303C206.548 56.1068 212.31 56.5307 212.636 54.2998C212.963 52.0688 207.605 50.4912 206.103 50.2688Z" fill="#B25E47" stroke="#934735" stroke-width="0.75" stroke-linecap="round" stroke-linejoin="round"/>
<path d="M203.935 46.0917C207.007 45.3967 213.665 49.8795 213.394 51.2764C213.067 53.0348 209.919 53.2989 205.485 51.4154C201.322 49.6501 202.434 46.4462 203.935 46.0917Z" fill="#B25E47" stroke="#934735" stroke-width="0.75" stroke-linecap="round" stroke-linejoin="round"/>
<path d="M351.81 79.9587C342.275 79.4931 334.38 88.0902 331.933 97.9731C331.864 98.2511 331.801 98.55 331.746 98.8766C331.485 100.398 331.302 101.931 331.197 103.471C330.182 116.516 331.141 142.46 331.238 143.086C331.273 143.301 324.49 143.086 315.08 142.641C311.605 142.481 307.796 142.307 303.821 142.106C283.61 141.112 259.605 139.77 259.605 139.77L258.145 123.535C258.145 123.535 255.122 128.65 244.78 138.638C234.439 148.625 217.905 143.058 219.684 130.499C220.796 122.611 225.452 116.842 231.096 107.182C232.84 104.193 234.682 100.837 236.531 96.9237C239.005 91.7251 241.396 86.7628 243.703 82.28C244.711 80.3062 245.705 78.4228 246.671 76.6575C250.299 69.9646 253.551 64.8981 256.171 62.5281C264.046 55.3974 280.92 59.5049 285.417 60.9505C292.116 63.131 299.067 64.4413 306.1 64.8494C316.073 65.5444 331.217 69.8465 339.238 72.6404C343.864 74.1935 348.122 76.6796 351.748 79.9448L351.81 79.9587Z" fill="#A7CAF0"/>
<path d="M358.524 94.7553C349.795 85.9983 336.541 82.1758 323.239 94.0603C307.768 107.842 295.897 110.24 278.494 90.1127C265.908 75.5177 261.543 71.8412 246.67 76.6853C250.298 69.9925 253.551 64.9259 256.171 62.556C264.045 55.4253 280.92 59.5327 285.417 60.9783C292.117 63.1493 299.068 64.4504 306.1 64.8495C316.073 65.5445 331.217 69.8465 339.237 72.6404C343.863 74.1935 348.121 76.6796 351.747 79.9449C355.236 82.6971 357.273 88.2015 358.524 94.7553Z" fill="#C3DCF8"/>
<path d="M243.453 119.803C237.893 125.835 232.896 112.756 231.096 107.182C232.84 104.193 234.682 100.836 236.531 96.9234C239.005 91.7248 241.396 86.7625 243.703 82.2798C247.804 88.5348 242.264 94.2894 241.875 97.125C240.86 104.707 251.424 111.143 243.453 119.803Z" fill="#1464AD"/>
<path d="M208.605 73.3212C217.196 75.1352 230.533 67.1079 230.533 67.1079C230.533 67.1079 237.879 99.9189 239.797 107.196C241.715 114.472 253.989 142.974 230.067 144.142C214.715 144.892 213.686 115.709 212.775 106.104C211.865 96.4995 208.605 73.3212 208.605 73.3212Z" fill="#A7CAF0"/>
<path d="M214.297 77.0746C220.907 77.5403 228.267 73.0923 228.267 73.0923" stroke="#4587D5" stroke-width="0.75" stroke-linecap="round" stroke-linejoin="round"/>
<path d="M230.533 67.1079C230.533 67.1079 237.879 99.9189 239.797 107.196C240.847 111.164 244.975 121.45 244.627 130.172" stroke="#4587D5" stroke-width="0.75" stroke-linecap="round" stroke-linejoin="round"/>
<path d="M278.495 66.2674C282.776 74.2112 294.132 81.8493 307.838 71.3061C307.838 71.3061 309.311 66.9276 309.158 66.9276C309.005 66.9276 280.434 63.4526 280.434 63.4526L278.495 66.2674Z" fill="white"/>
<path d="M289.774 56.4536C286.244 55.6544 281.128 56.5509 277.598 61.9719C274.067 67.3929 273.616 71.8618 273.817 71.8131C274.019 71.7645 279.377 68.3798 281.775 68.63C284.173 68.8802 289.545 70.4648 289.545 70.4648L289.774 56.4536Z" fill="#FF626C"/>
<path d="M305.683 58.0454C305.683 58.0454 313.488 58.0941 314.53 63.5637C315.573 69.0334 312.695 75.5942 309.165 78.6244C305.634 81.6546 307.573 74.2459 294.896 70.7709L305.683 58.0454Z" fill="#FF626C"/>
<path d="M309.491 64.4393C309.491 64.4393 305.155 71.0279 295.494 71.1739C285.834 71.3198 283.978 65.5652 283.978 65.5652C285.027 62.952 286.285 57.3781 287.092 53.4722C287.606 51.005 287.94 49.198 287.94 49.198C287.94 49.198 289.538 33.7273 306.121 34.6586L306.406 37.1953L309.491 64.4393Z" fill="#B25E47"/>
<path d="M287.092 53.6252C287.606 51.1649 287.94 49.351 287.94 49.351L297.378 44.9238C297.378 44.9238 298.872 55.7102 287.092 53.6252Z" fill="#914839"/>
<path d="M258.145 123.535C256.811 108.301 256.811 95.9644 256.811 95.9644" stroke="#4587D5" stroke-width="0.75" stroke-linecap="round" stroke-linejoin="round"/>
<path d="M321.161 160.585C320.351 160.29 319.579 159.901 318.86 159.425C313.995 156.235 313.613 150.021 315.079 142.613C316.219 136.941 318.457 130.575 320.639 124.334C323.134 117.217 325.574 110.274 326.262 104.714C326.359 103.936 326.415 103.192 326.443 102.483C326.575 98.2201 327.356 94.0019 328.757 89.9733C332.746 78.756 341.441 71.6948 351.782 79.9583C355.209 82.6966 357.245 88.201 358.496 94.7549C358.941 97.097 359.288 99.5782 359.573 102.108C360.518 110.698 360.657 119.935 361.081 126.815C363.173 160.127 355.188 173.429 321.161 160.585Z" fill="#A7CAF0"/>
<path d="M358.524 94.7551C351.011 87.2213 340.134 83.3363 328.771 89.9596C332.76 78.7423 341.455 71.6811 351.796 79.9447C355.237 82.6969 357.273 88.2013 358.524 94.7551Z" fill="#C3DCF8"/>
<path d="M331.238 143.057C331.273 143.273 324.49 143.057 315.08 142.613C311.605 142.453 307.796 142.279 303.821 142.077C297.023 139.019 292.798 134.592 296.419 128.247C306.274 111.004 324.379 134.891 325.324 117.822C325.963 106.118 328.799 103.574 331.197 103.498C330.182 116.515 331.12 142.46 331.238 143.057Z" fill="#1464AD"/>
<path d="M333.553 92.8857C332.203 96.2641 331.407 99.8385 331.197 103.471C330.293 116.523 331.141 142.46 331.238 143.086" stroke="#4587D5" stroke-width="0.75" stroke-linecap="round" stroke-linejoin="round"/>
<path d="M321.161 160.585C320.351 160.29 319.579 159.901 318.86 159.425C326.658 161.1 338.32 162.608 343.456 158.222C351.553 151.328 346.41 142.488 350.886 137.623C355.362 132.758 361.818 131.187 359.601 102.129C360.546 110.719 360.685 119.956 361.109 126.836C363.174 160.127 355.188 173.429 321.161 160.585Z" fill="#1464AD"/>
<path d="M301.659 102.108C302.896 96.5483 295.904 96.7916 295.904 96.7916C296.523 91.6625 289.726 90.2377 288.155 95.2487C282.63 93.5807 280.885 95.2487 280.079 98.1538L301.659 102.108Z" fill="#DDDDDD"/>
<path d="M292.235 97.3265C293.145 97.3265 293.882 96.5891 293.882 95.6794C293.882 94.7697 293.145 94.0322 292.235 94.0322C291.325 94.0322 290.588 94.7697 290.588 95.6794C290.588 96.5891 291.325 97.3265 292.235 97.3265Z" fill="#F9F9F9" stroke="#DDDDDD" stroke-linecap="round" stroke-linejoin="round"/>
<path d="M269.585 94.0254L259.271 149.952L300.22 158.223L311.222 102.219L269.585 94.0254Z" fill="#F9F9F9" stroke="#DDDDDD" stroke-linecap="round" stroke-linejoin="round"/>
<path d="M282.199 131.083C280.114 136.525 279.989 142.245 280.948 144.156C280.948 144.156 284.854 144.886 288.76 134.287L282.199 131.083Z" fill="#1464AD"/>
<path d="M287.502 120.561C278.133 117.343 273.658 115.397 271.969 114.938C270.28 114.479 264.178 113.965 263.205 114.938C262.232 115.911 262.162 117.148 262.51 118.413C262.857 119.678 261.815 120.658 261.669 121.964C261.523 123.271 263.094 123.667 262.774 124.967C262.454 126.266 261.384 127.691 262.121 129.137C262.857 130.582 261.426 132.056 262.774 133.807C264.122 135.559 277.939 136.407 280.969 135.76L286.918 138.422C286.918 138.422 297.385 127.67 287.502 120.561Z" fill="#B25E47"/>
<path d="M271.969 114.938C270.28 114.486 264.178 113.965 263.205 114.938C262.232 115.911 262.162 117.148 262.51 118.413C262.857 119.678 261.815 120.658 261.669 121.964C261.523 123.271 263.094 123.667 262.774 124.967C262.454 126.266 261.384 127.691 262.121 129.137C262.857 130.582 261.426 132.056 262.774 133.807" stroke="#934735" stroke-width="0.75" stroke-linecap="round" stroke-linejoin="round"/>
<path d="M343.463 158.216C341.024 162.622 334.922 164.742 323.308 161.246C320.181 160.301 317.164 159.321 314.273 158.327C309.491 156.687 305.078 155.012 301.124 153.406C294.233 150.667 287.488 147.577 280.913 144.149C282.66 142.223 284.069 140.017 285.083 137.623C285.715 136.206 286.236 134.742 286.64 133.244C287.719 129.105 288.009 124.8 287.495 120.554C289.072 121.026 290.768 121.513 292.554 121.999C296.87 123.181 301.707 124.404 306.607 125.69C321.293 129.561 336.569 133.995 340.287 139.506C340.627 140.014 340.982 140.521 341.26 141.049C341.378 141.258 341.503 141.466 341.614 141.682C341.649 141.735 341.679 141.791 341.705 141.849C341.844 142.099 341.976 142.356 342.101 142.606C342.337 143.058 342.546 143.51 342.747 143.961C344.936 148.979 345.555 154.442 343.463 158.216Z" fill="#A7CAF0"/>
<path d="M287.502 120.561C304.321 125.627 334.818 131.403 340.322 139.513C341.277 140.92 342.1 142.411 342.782 143.968" stroke="#4587D5" stroke-width="0.75" stroke-linecap="round" stroke-linejoin="round"/>
<path d="M292.555 121.999C293.597 132.542 288.155 142.661 288.155 142.661" stroke="#4587D5" stroke-width="0.75" stroke-linecap="round" stroke-linejoin="round"/>
<path d="M343.456 158.223C341.017 162.629 334.915 164.749 323.301 161.253C320.174 160.308 317.157 159.328 314.266 158.334C321.084 160.127 337.146 163.595 343.456 158.223Z" fill="#1464AD"/>
<path d="M306.1 34.7907L306.385 37.3205C300.512 46.4806 292.485 49.3649 287.919 49.3232C280.371 47.4397 277.793 40.6426 277.355 33.3382C277.247 31.607 277.247 29.8708 277.355 28.1396C277.692 23.192 278.525 18.2908 279.843 13.5098C279.843 13.5098 302.514 2.95973 304.084 24.1364C304.084 24.1364 308.949 23.2468 309.846 28.6539C310.61 33.1436 306.1 34.7907 306.1 34.7907Z" fill="#B25E47"/>
<path d="M280.996 28.1673C281.495 28.1673 281.9 27.7628 281.9 27.2639C281.9 26.7649 281.495 26.3604 280.996 26.3604C280.497 26.3604 280.093 26.7649 280.093 27.2639C280.093 27.7628 280.497 28.1673 280.996 28.1673Z" fill="#683F1D"/>
<path d="M287.307 27.0135C287.806 27.0135 288.21 26.609 288.21 26.11C288.21 25.6111 287.806 25.2065 287.307 25.2065C286.808 25.2065 286.403 25.6111 286.403 26.11C286.403 26.609 286.808 27.0135 287.307 27.0135Z" fill="#683F1D"/>
<path d="M285.945 21.2381C286.042 22.4752 290.268 22.9547 290.511 22.2528C290.852 21.1964 285.702 18.3399 285.945 21.2381Z" fill="#604730"/>
<path d="M277.876 23.0869C277.876 23.7819 282.47 24.0668 282.303 21.6969C282.192 19.9802 277.973 21.2243 277.876 23.0869Z" fill="#604730"/>
<path d="M302.91 30.8502C304.8 28.0702 307.775 28.3621 308.101 28.8903" stroke="#934735" stroke-width="0.75" stroke-linecap="round" stroke-linejoin="round"/>
<path d="M303.716 29.898C306.496 28.2578 308.025 31.9343 304.494 31.9343" stroke="#934735" stroke-width="0.75" stroke-linecap="round" stroke-linejoin="round"/>
<path d="M283.436 24.6367C284.2 26.1171 284.131 27.0136 283.63 27.9658C283.13 28.9179 281.594 31.0863 282.393 33.0115" stroke="#934735" stroke-width="0.75" stroke-linecap="round" stroke-linejoin="round"/>
<path d="M288.384 33.3384C287.689 35.6388 284.951 37.0775 283.679 36.8134C283.679 36.8134 284.993 40.3787 287.307 39.4683C289.969 38.391 288.384 33.3384 288.384 33.3384Z" fill="white" stroke="#934735" stroke-width="0.75" stroke-linecap="round" stroke-linejoin="round"/>
<path d="M302.493 34.1235C303.013 34.4905 303.606 34.7422 304.232 34.8621C304.857 34.9819 305.501 34.9671 306.121 34.8185" stroke="#934735" stroke-width="0.75" stroke-linecap="round" stroke-linejoin="round"/>
<path d="M310.736 21.9749C313.335 25.5472 309.422 27.0971 309.422 27.0971C309.027 26.5121 308.504 26.0249 307.893 25.6723C307.509 25.4457 307.08 25.3068 306.636 25.2656C306.192 25.2244 305.744 25.2819 305.325 25.434C304.906 25.5862 304.526 25.8291 304.211 26.1454C303.897 26.4618 303.657 26.8437 303.508 27.2639C298.177 27.3751 300.477 23.212 300.477 23.212C295.696 25.1233 295.543 20.2235 297.6 18.0134C293.868 22.1834 289.128 18.0134 289.899 14.2396C288.579 18.3609 283.874 18.5208 284.499 15.1014C284.095 15.8039 283.605 16.453 283.04 17.0335C279.808 20.2861 276.903 16.8111 278.126 14.2535C273.261 18.8822 271.176 13.7044 275.798 10.9244C272.135 7.92201 276.493 3.64081 279.419 5.86481C278.724 0.534163 284.228 0.304814 286.64 3.41146C287.585 -2.44044 294.896 0.756563 295.188 3.52961C300.575 -0.237287 304.745 2.53577 304.223 8.65872C306.399 5.74667 311.062 7.45637 309.269 14.9137C313.745 14.594 314.502 20.1471 310.736 21.9749Z" fill="#604730"/>
<path d="M307.893 25.6723C307.509 25.4457 307.08 25.3068 306.636 25.2656C306.192 25.2244 305.744 25.282 305.325 25.4341C304.906 25.5862 304.526 25.8291 304.211 26.1455C303.897 26.4618 303.657 26.8438 303.508 27.2639C298.177 27.3751 300.477 23.2121 300.477 23.2121C295.696 25.1233 295.543 20.2235 297.6 18.0134C293.868 22.1834 289.128 18.0134 289.899 14.2396C288.579 18.3609 283.874 18.5208 284.499 15.1014C284.095 15.8039 283.605 16.453 283.04 17.0335C281.733 13.0789 284.659 7.8595 289.128 10.2225C289.719 7.0394 297.023 4.97525 296.981 13.0025C299.685 9.22865 305.808 10.5213 302.91 17.7215C305.189 16.0188 310.43 18.9656 307.893 25.6723Z" fill="#473526"/>
<path d="M298.072 27.0692C298.719 28.3619 297.503 30.2731 295.362 31.3504C293.221 32.4276 290.956 32.2469 290.309 30.9542C289.663 29.6615 290.872 27.7503 293.02 26.673C295.167 25.5958 297.426 25.7765 298.072 27.0692Z" fill="#A0503D"/>
<path d="M280.19 31.9829C279.857 32.8934 278.738 33.3729 277.362 33.3729C277.254 31.6417 277.254 29.9055 277.362 28.1743C279.405 29.0431 280.663 30.6902 280.19 31.9829Z" fill="#A0503D"/>
<path d="M160.351 227.264C156.126 214.754 155.132 207.998 156.286 207.032C156.981 206.421 158.141 205.969 158.232 204.732C158.322 203.495 156.904 199.339 161.853 198.366C161.853 198.366 163.527 188.559 165.119 183.965C165.119 183.965 173.959 219.153 174.578 221.794C175.197 224.435 163.222 235.798 160.351 227.264Z" fill="#FEBD9D"/>
<path d="M161.853 198.366C161.529 199.94 161.297 201.532 161.158 203.133" stroke="#EF8A66" stroke-width="0.75" stroke-linecap="round" stroke-linejoin="round"/>
<path d="M155.98 210.73C155.723 208.645 155.848 207.408 156.293 207.032C156.988 206.421 158.148 205.969 158.239 204.732C158.329 203.495 156.911 199.339 161.86 198.366C161.86 198.366 163.535 188.559 165.126 183.965" stroke="#EF8A66" stroke-width="0.75" stroke-linecap="round" stroke-linejoin="round"/>
<path d="M203.333 162.918L164.603 173.841C162.343 174.479 161.027 176.828 161.664 179.089L169.182 205.745C169.82 208.006 172.169 209.322 174.43 208.684L213.16 197.761C215.421 197.124 216.737 194.774 216.099 192.513L208.581 165.857C207.944 163.596 205.594 162.281 203.333 162.918Z" fill="#F9F9F9" stroke="#DDDDDD" stroke-linecap="round" stroke-linejoin="round"/>
<path d="M201.419 166.811L168.282 176.156C166.786 176.578 165.915 178.133 166.337 179.629L172.885 202.847C173.307 204.343 174.862 205.214 176.358 204.792L209.496 195.446C210.992 195.025 211.863 193.47 211.441 191.973L204.893 168.756C204.471 167.259 202.916 166.389 201.419 166.811Z" stroke="#EDEDED" stroke-linecap="round" stroke-linejoin="round"/>
<path d="M191.814 189.275C191.824 189.472 191.824 189.669 191.814 189.866C191.706 191.361 191.184 192.797 190.306 194.012C189.428 195.227 188.228 196.173 186.842 196.745C185.457 197.316 183.939 197.491 182.46 197.248C180.98 197.005 179.598 196.355 178.467 195.371C177.336 194.386 176.502 193.107 176.059 191.675C175.615 190.243 175.579 188.715 175.954 187.264C176.33 185.813 177.102 184.495 178.185 183.458C179.267 182.421 180.618 181.706 182.084 181.394C182.631 181.27 183.191 181.209 183.752 181.213C184.811 181.212 185.861 181.42 186.84 181.825C187.819 182.229 188.71 182.823 189.459 183.572C190.209 184.32 190.804 185.209 191.211 186.188C191.617 187.166 191.827 188.215 191.828 189.275H191.814Z" stroke="#EDEDED" stroke-linecap="round" stroke-linejoin="round"/>
<path d="M191.786 189.845C191.689 191.183 191.261 192.475 190.539 193.606C189.817 194.736 188.825 195.669 187.652 196.319C186.479 196.97 185.163 197.318 183.822 197.332C182.481 197.346 181.157 197.025 179.971 196.399C181.535 193.237 183.717 188.754 183.717 188.754L191.786 189.845Z" stroke="#EDEDED" stroke-linecap="round" stroke-linejoin="round"/>
<path d="M191.814 189.275C191.825 189.472 191.825 189.669 191.814 189.866L183.766 188.796L189.854 183.979C191.128 185.449 191.825 187.331 191.814 189.275Z" stroke="#EDEDED" stroke-linecap="round" stroke-linejoin="round"/>
<path d="M189.826 183.979L183.738 188.796C183.738 188.796 182.695 184.327 182.07 181.394C182.617 181.27 183.177 181.209 183.738 181.213C184.891 181.212 186.032 181.458 187.082 181.935C188.133 182.412 189.068 183.109 189.826 183.979Z" fill="#DDDDDD" stroke="#DDDDDD" stroke-linecap="round" stroke-linejoin="round"/>
<path d="M200.981 186.314C202.503 185.779 201.099 185.001 202.107 184.57C203.581 183.944 204.06 174.84 197.513 176.71C192.551 178.1 196.165 186.196 198.597 185.453C199.258 185.251 199.237 186.933 200.981 186.314Z" fill="#F9F9F9" stroke="#DDDDDD" stroke-linecap="round" stroke-linejoin="round"/>
<path d="M199.195 179.643C198.549 180.803 199.063 181.616 200.119 182.006C201.892 182.666 199.258 184.744 198.681 183.604C198.048 182.353 201.509 183.187 200.766 185.995" stroke="#DDDDDD" stroke-linecap="round" stroke-linejoin="round"/>
<path d="M200.203 188.177C200.647 189.24 201.196 189.428 202.037 189.185C202.878 188.941 202.913 188.358 202.691 187.51L200.203 188.177Z" fill="#F9F9F9" stroke="#EDEDED" stroke-linecap="round" stroke-linejoin="round"/>
<path d="M199.487 187.503C199.89 186.808 202.267 186.384 202.6 186.461C202.934 186.537 203.233 187.503 202.795 187.753C201.877 188.163 200.898 188.419 199.897 188.511C199.796 188.481 199.704 188.43 199.626 188.36C199.549 188.289 199.488 188.203 199.449 188.106C199.409 188.009 199.392 187.904 199.399 187.8C199.405 187.696 199.435 187.594 199.487 187.503Z" fill="#F9F9F9" stroke="#EDEDED" stroke-linecap="round" stroke-linejoin="round"/>
<path d="M199.028 186.21C199.459 185.515 202.017 185.085 202.343 185.168C202.774 185.272 203.038 186.21 202.559 186.454C201.573 186.865 200.53 187.121 199.466 187.211C199.364 187.185 199.27 187.136 199.19 187.067C199.11 186.999 199.046 186.914 199.004 186.817C198.962 186.721 198.942 186.616 198.946 186.511C198.951 186.406 198.978 186.303 199.028 186.21Z" fill="#F9F9F9" stroke="#EDEDED" stroke-linecap="round" stroke-linejoin="round"/>
<path d="M190.875 179.031L192.988 179.17" stroke="#EDEDED" stroke-linecap="round" stroke-linejoin="round"/>
<path d="M195.032 172.595L195.956 174.632" stroke="#EDEDED" stroke-linecap="round" stroke-linejoin="round"/>
<path d="M202.253 173.13L201.509 174.632" stroke="#EDEDED" stroke-linecap="round" stroke-linejoin="round"/>
<path d="M166.697 203.822C163.757 209.083 166.085 215.387 169.637 217.103C173.188 218.82 174.655 207.922 175.079 205.17C175.503 202.418 175.509 198.255 175.815 196.17C176.121 194.085 174.161 192.438 172.875 195.621C171.59 198.804 170.978 200.75 170.978 200.75L166.697 203.822Z" fill="#FEBD9D"/>
<path d="M175.078 205.17C175.509 202.39 175.509 198.255 175.815 196.17C176.121 194.085 174.161 192.438 172.875 195.621C171.59 198.804 170.978 200.75 170.978 200.75L166.697 203.822" stroke="#EF8A66" stroke-width="0.75" stroke-linecap="round" stroke-linejoin="round"/>
<mask id="mask1_0_13" style="mask-type:luminance" maskUnits="userSpaceOnUse" x="151" y="158" width="149" height="115">
<path d="M299.937 168.46V272.21H152V168.46C151.995 167.085 152.262 165.723 152.786 164.452C153.31 163.181 154.081 162.026 155.053 161.054C156.025 160.082 157.18 159.311 158.451 158.787C159.722 158.263 161.084 157.996 162.459 158.001H289.478C290.852 157.996 292.215 158.263 293.486 158.787C294.757 159.311 295.912 160.082 296.884 161.054C297.856 162.026 298.626 163.181 299.15 164.452C299.674 165.723 299.942 167.085 299.937 168.46Z" fill="white"/>
</mask>
<g mask="url(#mask1_0_13)">
<path d="M261.62 183.354L259.257 213.239L233.375 215.678C235.592 208.638 237.377 201.468 238.72 194.21C239.303 191.075 239.832 187.746 240.235 184.348L249.77 183.91L261.62 183.354Z" fill="#FEBD9D"/>
<path d="M251.89 186.725C250.833 190.825 245.044 193.73 238.761 194.196C239.345 191.061 239.873 187.732 240.276 184.334L249.812 183.896C251.306 184.556 252.182 185.474 251.89 186.725Z" fill="#F4A789"/>
<path d="M301.819 215.665V285.199H296.426C296.426 285.199 293.243 272.585 279.537 246.147C279.537 246.147 279.273 247.322 278.738 249.358C278.001 252.18 276.743 256.642 274.957 261.945C271.945 271.065 268.068 279.876 263.378 288.257C253.49 292.493 243.06 295.333 232.388 296.695C232.097 296.695 231.798 296.771 231.499 296.799C220.865 298.113 208.522 298.119 195.998 294.895C188.221 292.925 180.799 289.752 174.001 285.491C174.377 284.88 191.286 251.777 196.554 241.129C196.964 240.302 197.374 239.496 197.791 238.697C202.74 229.238 208.675 221.885 224.702 215.665C228.42 214.233 231.686 212.961 234.55 211.849C245.107 207.756 250.368 205.733 253.593 204.774C255.872 204.098 258.039 203.465 260.091 202.877C279.843 197.205 289.643 195.878 297.948 208.548C299.407 210.825 300.7 213.203 301.819 215.665Z" fill="#FF626C"/>
<path d="M297.947 208.548C291.109 208.131 282.505 210.014 277.64 220.724C268.653 240.49 250.917 248.768 237.913 236.098C227.697 226.152 210.287 227.445 197.791 238.697C202.739 229.238 208.675 221.885 224.701 215.665C228.42 214.233 231.686 212.961 234.55 211.849C245.107 207.756 250.368 205.733 253.593 204.774C255.872 204.098 258.038 203.465 260.091 202.877C279.843 197.205 289.642 195.878 297.947 208.548Z" fill="#FF626C"/>
<path d="M301.819 266.407V285.172H296.426C296.426 285.172 293.243 272.557 279.537 246.12C280.322 243.069 280.927 240.129 281.414 237.522C290.268 241.401 291.025 249.609 290.059 254.244C289.163 258.56 293.715 269.138 301.819 266.407Z" fill="#FF626C"/>
<path d="M228.086 250.894C226.696 258.164 220.643 270.91 209.835 289.119C208.175 291.76 206.289 294.253 204.199 296.569C201.439 296.154 198.701 295.597 195.998 294.901L199.417 285.206C201.357 277.707 204.977 274.364 212.775 272.863C219.698 271.522 213.901 250.352 228.086 250.894Z" fill="#FF626C"/>
<path d="M193.267 307.759C193.267 307.759 199.125 302.394 204.199 296.563C206.289 294.246 208.175 291.753 209.835 289.112C220.643 270.91 226.689 258.164 228.086 250.887C228.522 248.635 228.51 246.91 228.051 245.709" stroke="#FFA3A8" stroke-width="0.75" stroke-linecap="round" stroke-linejoin="round"/>
<path d="M282.789 228.008C282.789 228.008 282.421 232.004 281.399 237.55C280.927 240.156 280.308 243.11 279.523 246.147" stroke="#FFA3A8" stroke-width="0.75" stroke-linecap="round" stroke-linejoin="round"/>
<path d="M199.41 269.596C199.668 286.311 180.59 303.165 170.13 282.482C165.759 273.843 154.84 233.526 155.605 228.008C156.3 223.094 170.672 212.155 176.573 214.295C176.573 214.295 179.04 220.787 182.432 229.071C186.748 239.614 192.558 253.083 196.644 259.769C198.43 262.738 199.385 266.132 199.41 269.596Z" fill="#FF626C"/>
<path d="M191.814 250.581C189.548 255.064 186.949 260.228 184.405 265.176C182.675 262.014 182.362 257.358 186.045 253.014C190.73 247.502 176.065 237.884 182.431 229.057C185.225 235.896 188.645 243.937 191.814 250.581Z" fill="#FF626C"/>
<path d="M191.904 250.408C191.904 250.463 191.842 250.519 191.814 250.581C189.548 255.064 186.949 260.228 184.405 265.176L182.021 269.854" stroke="#FFA3A8" stroke-width="0.75" stroke-linecap="round" stroke-linejoin="round"/>
</g>
<path d="M233.695 169.051C230.22 181.596 227.127 188.462 248.526 189.866C248.526 189.866 262.106 174.576 260.258 152.378C260.258 152.378 248.158 142.648 237.677 161.601C237.677 161.601 233.834 163.074 233.396 163.595C232.958 164.117 233.25 167.355 233.695 169.051Z" fill="#FEBD9D"/>
<path d="M237.677 161.601C237.677 161.601 233.834 163.074 233.396 163.595C232.958 164.117 233.25 167.355 233.695 169.051" stroke="#EF8A66" stroke-width="0.75" stroke-linecap="round" stroke-linejoin="round"/>
<path d="M240.603 164.29C241.102 164.29 241.507 163.886 241.507 163.387C241.507 162.888 241.102 162.483 240.603 162.483C240.104 162.483 239.7 162.888 239.7 163.387C239.7 163.886 240.104 164.29 240.603 164.29Z" fill="#5C1A55"/>
<path d="M241.388 156.075C243.182 154.831 246.33 162.073 244.05 162.045C243.133 162.045 239.206 157.59 241.388 156.075Z" fill="#BF8228"/>
<path d="M279.537 217.333C278.481 227.646 273.435 231.754 274.415 235.236C275.395 238.718 277.806 237.96 277.806 237.96C277.806 237.96 275.888 243.52 268.528 241.303C268.528 241.303 262.092 251.13 256.018 244.083C250.528 251.582 238.956 253.118 238.601 242.832C238.601 242.832 243.07 243.951 245.35 241.053C247.63 238.155 248.13 233.325 245.656 230.781C243.182 228.237 239.588 225.693 239.359 221.447C239.13 217.201 242.264 209.75 246.816 204.211C246.816 204.211 228.649 199.089 227.308 214.636L223.68 216.026C223.68 216.026 219.809 214.156 219.899 207.908C219.989 201.66 225.695 197.073 231.909 197.185C238.122 197.296 253.113 194.599 245.809 175.674C245.809 175.674 251.772 177.857 253.329 173.082C254.885 168.307 249.485 165.764 246.379 168.432C246.379 168.432 243.835 164.506 251.376 155.86C250.535 153.122 247.623 152.385 248.874 149.605C249.888 147.367 256.254 147.367 261.036 148.333C262.063 148.537 263.073 148.816 264.059 149.167C266.799 150.14 269.185 151.909 270.912 154.247C271.948 155.631 272.63 157.246 272.9 158.953C273.587 158.67 274.326 158.538 275.068 158.563C276.569 158.619 278.404 159.46 279.057 162.97C280.01 168.05 276.528 170.615 274.192 171.789C273.543 172.112 272.863 172.37 272.163 172.561C272.674 174.152 272.909 175.818 272.858 177.488C272.828 178.578 272.682 179.662 272.42 180.72C271.426 184.688 269.272 191.597 270.224 196.399C270.329 196.981 270.497 197.55 270.724 198.095C272.677 202.863 280.593 207.019 279.537 217.333Z" fill="#BF8228"/>
<path d="M274.165 171.824C273.515 172.146 272.835 172.405 272.135 172.595C272.135 172.595 268.876 173.387 267.583 167.688C266.548 163.122 269.112 160.043 272.9 158.987C273.587 158.705 274.326 158.572 275.068 158.598C268.216 164.568 271.545 169.419 274.165 171.824Z" fill="#B57724"/>
<path d="M279.537 217.333C278.481 227.646 273.435 231.754 274.415 235.236C275.395 238.718 277.806 237.96 277.806 237.96C277.806 237.96 275.888 243.52 268.528 241.303C268.528 241.303 262.092 251.13 256.018 244.083C250.528 251.582 238.956 253.118 238.601 242.832C238.601 242.832 243.07 243.951 245.35 241.053C247.63 238.155 248.13 233.325 245.656 230.781C243.182 228.237 239.588 225.693 239.359 221.447C239.13 217.201 242.264 209.75 246.816 204.211C246.816 204.211 228.649 199.089 227.308 214.636L223.68 216.026C223.68 216.026 219.809 214.156 219.899 207.908C219.989 201.66 225.695 197.073 231.909 197.185C238.122 197.296 253.113 194.599 245.809 175.674C245.809 175.674 251.772 177.857 253.329 173.082C254.885 168.307 249.485 165.764 246.379 168.432C246.379 168.432 243.835 164.506 251.376 155.86C250.535 153.122 247.623 152.385 248.874 149.605C249.888 147.367 256.254 147.367 261.036 148.333C257.839 150.293 255.698 153.372 257.478 158.188C261.849 170.003 260.619 175.688 256.831 180.734C253.044 185.78 248.762 196.024 252.404 204.211C256.046 212.398 250.694 208.631 252.3 224.832C253.905 241.032 274.401 231.163 273.761 217.965C273.185 206.039 265.95 202.029 270.168 196.42C270.273 197.002 270.441 197.57 270.669 198.116C272.677 202.863 280.593 207.019 279.537 217.333Z" fill="#B57724"/>
<path d="M246.274 171.289C248.262 170.051 250.146 170.163 251.237 170.948" stroke="#EF8A66" stroke-width="0.75" stroke-linecap="round" stroke-linejoin="round"/>
<path d="M246.448 173.228C249.374 174.486 249.923 170.719 247.532 170.67" stroke="#EF8A66" stroke-width="0.75" stroke-linecap="round" stroke-linejoin="round"/>
<path d="M261.543 154.435C264.747 155.436 269.543 160.475 269.543 160.475" stroke="#9B621F" stroke-width="0.75" stroke-linecap="round" stroke-linejoin="round"/>
<path d="M272.9 158.987C269.112 160.037 266.548 163.123 267.583 167.689C268.876 173.388 272.135 172.595 272.135 172.595" stroke="#9B621F" stroke-width="0.75" stroke-linecap="round" stroke-linejoin="round"/>
<path d="M268.729 161.607C271.662 160.433 275.165 159.932 276.5 163.644C277.834 167.355 275.881 170.232 272.899 172.352" stroke="#9B621F" stroke-width="0.75" stroke-linecap="round" stroke-linejoin="round"/>
<path d="M253.975 163.873C259.952 165.666 267.521 165.194 267.521 165.194" stroke="#9B621F" stroke-width="0.75" stroke-linecap="round" stroke-linejoin="round"/>
<path d="M255.622 174.242C260.842 175.528 267.437 171.74 268.48 170.239" stroke="#9B621F" stroke-width="0.75" stroke-linecap="round" stroke-linejoin="round"/>
<path d="M267.409 166.681C268.257 164.346 270.655 162.81 272.434 165.117C274.213 167.425 271.544 169.871 269.383 167.321" stroke="#9B621F" stroke-width="0.75" stroke-linecap="round" stroke-linejoin="round"/>
<path d="M246.823 204.246C251.883 198.276 256.15 193.508 253.982 184.89" stroke="#9B621F" stroke-width="0.75" stroke-linecap="round" stroke-linejoin="round"/>
<path d="M256.06 244.118C259.125 239.434 254.392 232.553 253.669 228.015C252.946 223.477 252.786 217.785 258.485 211.606" stroke="#9B621F" stroke-width="0.75" stroke-linecap="round" stroke-linejoin="round"/>
<path d="M263.753 191.166C268.007 201.987 268.674 203.732 266.367 211.835C264.059 219.939 262.669 223.956 266.367 229.739C270.474 236.146 269.188 238.468 268.521 241.303" stroke="#9B621F" stroke-width="0.75" stroke-linecap="round" stroke-linejoin="round"/>
<path d="M244.891 168.127C245.162 169.6 243.751 171.094 241.75 171.456C239.748 171.817 237.906 170.921 237.635 169.44C237.364 167.96 238.775 166.473 240.777 166.111C242.778 165.75 244.62 166.646 244.891 168.127Z" fill="#F4AF90"/>
<circle cx="175.5" cy="143.5" r="47.5" fill="white"/>
<path d="M148 125.878V170.951H157.561V135.666H185.788V170.951H195.349V125.878H148Z" fill="#2056BE"/>
<path d="M164.163 145.227V142.041H179.187V145.227H164.163Z" fill="#2056BE"/>
<path d="M164.39 154.789V151.602H179.414V154.789H164.39Z" fill="#2056BE"/>
<path d="M164.39 164.349V161.162H179.414V164.349H164.39Z" fill="#2056BE"/>
<path d="M152.098 123.601V121.553H199.675V166.853H197.398V123.601H152.098Z" fill="#FF626C"/>
<path d="M156.651 119.276V117.228L204 117V162.528H201.724V119.276H156.651Z" fill="#FF626C"/>
</svg>
