<svg width="24" height="28" viewBox="0 0 24 28" fill="none" xmlns="http://www.w3.org/2000/svg">
<path d="M15.8417 2.57017L17.0809 0.365913C17.0967 0.337668 17.1068 0.306622 17.1105 0.274547C17.1142 0.242472 17.1114 0.209997 17.1023 0.178975C17.0933 0.147954 17.0781 0.118993 17.0577 0.093747C17.0373 0.0685011 17.0121 0.0474643 16.9834 0.0318377C16.9548 0.0162111 16.9233 0.00630079 16.8908 0.00267255C16.8582 -0.0009557 16.8253 0.00176924 16.7938 0.0106917C16.7624 0.0196141 16.733 0.0345594 16.7074 0.0546742C16.6818 0.074789 16.6604 0.0996794 16.6446 0.127924L15.3924 2.35509C14.3235 1.89298 13.1691 1.65438 12.0019 1.65438C10.8348 1.65438 9.68033 1.89298 8.61145 2.35509L7.35929 0.127924C7.32728 0.0705437 7.27346 0.0280501 7.20967 0.00979172C7.14588 -0.00846665 7.07735 -0.000994307 7.01915 0.030565C6.96095 0.0621243 6.91784 0.115185 6.89932 0.178075C6.88081 0.240965 6.88839 0.308533 6.9204 0.365913L8.15964 2.57017C6.9809 3.14396 5.98501 4.02642 5.28101 5.12095C4.57701 6.21548 4.19204 7.47988 4.16824 8.77571H19.8356C19.8116 7.47961 19.4262 6.21503 18.7218 5.12047C18.0173 4.02592 17.0209 3.14361 15.8417 2.57017ZM8.38683 5.94911C8.25733 5.94911 8.13075 5.91123 8.02309 5.84028C7.91544 5.76932 7.83155 5.66847 7.78205 5.5505C7.73256 5.43252 7.71967 5.30272 7.74503 5.17752C7.77039 5.05232 7.83285 4.93735 7.92451 4.84716C8.01617 4.75697 8.1329 4.69562 8.25994 4.67087C8.38698 4.64611 8.51862 4.65907 8.63819 4.70811C8.75775 4.75714 8.85988 4.84004 8.93164 4.94632C9.0034 5.05259 9.04156 5.17747 9.04131 5.30514C9.04097 5.47605 8.97186 5.63984 8.84916 5.76057C8.72646 5.8813 8.56019 5.94911 8.38683 5.94911ZM15.6183 5.94911C15.4888 5.94911 15.3622 5.91123 15.2546 5.84028C15.1469 5.76932 15.063 5.66847 15.0136 5.5505C14.9641 5.43252 14.9512 5.30272 14.9765 5.17752C15.0019 5.05232 15.0643 4.93735 15.156 4.84716C15.2477 4.75697 15.3644 4.69562 15.4914 4.67087C15.6185 4.64611 15.7501 4.65907 15.8697 4.70811C15.9892 4.75714 16.0914 4.84004 16.1631 4.94632C16.2349 5.05259 16.2731 5.17747 16.2728 5.30514C16.2725 5.47605 16.2034 5.63984 16.0807 5.76057C15.958 5.8813 15.7917 5.94911 15.6183 5.94911ZM4.16566 20.581C4.16532 20.8267 4.21418 21.0701 4.30944 21.2971C4.4047 21.5242 4.54448 21.7305 4.72077 21.9042C4.89707 22.0778 5.1064 22.2155 5.33677 22.3093C5.56714 22.403 5.81402 22.451 6.06325 22.4505H7.31928V26.2685C7.31928 26.7277 7.50431 27.1682 7.83367 27.4929C8.16303 27.8176 8.60973 28 9.07552 28C9.5413 28 9.98801 27.8176 10.3174 27.4929C10.6467 27.1682 10.8318 26.7277 10.8318 26.2685V22.4505H13.1734V26.2685C13.1734 26.7276 13.3584 27.1678 13.6876 27.4924C14.0168 27.817 14.4634 27.9994 14.929 27.9994C15.3946 27.9994 15.8412 27.817 16.1704 27.4924C16.4996 27.1678 16.6846 26.7276 16.6846 26.2685V22.4505H17.9419C18.1908 22.4507 18.4373 22.4025 18.6673 22.3087C18.8973 22.2148 19.1063 22.0772 19.2823 21.9037C19.4583 21.7302 19.5978 21.5242 19.693 21.2974C19.7882 21.0707 19.8371 20.8276 19.8369 20.5823V9.38659H4.16566V20.581ZM1.75559 9.08878C1.52494 9.08878 1.29654 9.13359 1.08346 9.22066C0.870377 9.30772 0.676784 9.43532 0.513745 9.59618C0.350706 9.75704 0.221417 9.94799 0.133266 10.1581C0.0451155 10.3683 -0.000169126 10.5935 4.74631e-07 10.8209V18.0356C4.71195e-07 18.2629 0.0454101 18.488 0.133637 18.698C0.221864 18.908 0.35118 19.0988 0.514202 19.2595C0.677224 19.4202 0.870759 19.5477 1.08376 19.6347C1.29676 19.7217 1.52505 19.7665 1.75559 19.7665C1.98614 19.7665 2.21443 19.7217 2.42743 19.6347C2.64043 19.5477 2.83396 19.4202 2.99699 19.2595C3.16001 19.0988 3.28932 18.908 3.37755 18.698C3.46578 18.488 3.51119 18.2629 3.51119 18.0356V10.8209C3.51119 10.5936 3.46578 10.3685 3.37755 10.1585C3.28932 9.94853 3.16001 9.75773 2.99699 9.597C2.83396 9.43628 2.64043 9.30879 2.42743 9.22181C2.21443 9.13482 1.98614 9.09006 1.75559 9.09006M22.2444 9.09006C22.0137 9.09006 21.7854 9.13487 21.5723 9.22193C21.3592 9.30899 21.1656 9.4366 21.0026 9.59745C20.8395 9.75831 20.7102 9.94927 20.6221 10.1594C20.5339 10.3695 20.4886 10.5948 20.4888 10.8222V18.0369C20.4888 18.2642 20.5342 18.4893 20.6224 18.6993C20.7107 18.9093 20.84 19.1001 21.003 19.2608C21.166 19.4215 21.3596 19.549 21.5726 19.636C21.7856 19.723 22.0139 19.7677 22.2444 19.7677C22.475 19.7677 22.7032 19.723 22.9162 19.636C23.1292 19.549 23.3228 19.4215 23.4858 19.2608C23.6488 19.1001 23.7781 18.9093 23.8664 18.6993C23.9546 18.4893 24 18.2642 24 18.0369V10.8209C24 10.3618 23.815 9.9216 23.4858 9.597C23.1566 9.27241 22.71 9.09006 22.2444 9.09006Z" fill="#235DCF"/>
</svg>
