<svg width="24" height="24" viewBox="0 0 24 24" fill="none" xmlns="http://www.w3.org/2000/svg">
<path d="M14.975 3.01903L15.935 1.28703C15.9473 1.26483 15.9551 1.24044 15.9579 1.21524C15.9608 1.19003 15.9586 1.16452 15.9516 1.14014C15.9446 1.11577 15.9329 1.09301 15.9171 1.07317C15.9013 1.05334 15.8817 1.03681 15.8595 1.02453C15.8373 1.01225 15.8129 1.00446 15.7877 1.00161C15.7625 0.998761 15.737 1.0009 15.7126 1.00791C15.6882 1.01492 15.6655 1.02667 15.6456 1.04247C15.6258 1.05828 15.6093 1.07783 15.597 1.10003L14.627 2.85003C13.799 2.48692 12.9046 2.29944 12.0005 2.29944C11.0964 2.29944 10.202 2.48692 9.374 2.85003L8.404 1.10003C8.37921 1.05494 8.33751 1.02155 8.2881 1.00721C8.23868 0.992859 8.18559 0.99873 8.1405 1.02353C8.09542 1.04833 8.06203 1.09002 8.04768 1.13943C8.03333 1.18885 8.03921 1.24194 8.064 1.28703L9.024 3.01903C8.11087 3.46988 7.33939 4.16328 6.79403 5.0233C6.24866 5.88333 5.95044 6.87683 5.932 7.89503H18.069C18.0504 6.87662 17.7519 5.88297 17.2061 5.02293C16.6604 4.16288 15.8885 3.4696 14.975 3.01903ZM9.2 5.67403C9.09969 5.67403 9.00162 5.64427 8.91823 5.58851C8.83483 5.53276 8.76985 5.45352 8.7315 5.36082C8.69316 5.26812 8.68318 5.16612 8.70282 5.06775C8.72246 4.96937 8.77085 4.87904 8.84186 4.80817C8.91286 4.73731 9.00329 4.6891 9.10171 4.66965C9.20012 4.6502 9.30209 4.66038 9.39472 4.69891C9.48734 4.73744 9.56646 4.80258 9.62205 4.88608C9.67763 4.96959 9.7072 5.06771 9.707 5.16803C9.70674 5.30232 9.65321 5.43102 9.55815 5.52589C9.4631 5.62075 9.33429 5.67403 9.2 5.67403ZM14.802 5.67403C14.7017 5.67403 14.6036 5.64427 14.5202 5.58851C14.4368 5.53276 14.3718 5.45352 14.3335 5.36082C14.2952 5.26812 14.2852 5.16612 14.3048 5.06775C14.3245 4.96937 14.3728 4.87904 14.4439 4.80817C14.5149 4.73731 14.6053 4.6891 14.7037 4.66965C14.8021 4.6502 14.9041 4.66038 14.9967 4.69891C15.0893 4.73744 15.1685 4.80258 15.224 4.88608C15.2796 4.96959 15.3092 5.06771 15.309 5.16803C15.3087 5.30232 15.2552 5.43102 15.1602 5.52589C15.0651 5.62075 14.9363 5.67403 14.802 5.67403ZM5.93 17.171C5.92974 17.3641 5.96759 17.5553 6.04138 17.7337C6.11518 17.9121 6.22346 18.0742 6.36003 18.2107C6.4966 18.3472 6.65876 18.4554 6.83722 18.529C7.01568 18.6027 7.20693 18.6404 7.4 18.64H8.373V21.64C8.373 22.0009 8.51634 22.3469 8.77148 22.602C9.02663 22.8572 9.37268 23.0005 9.7335 23.0005C10.0943 23.0005 10.4404 22.8572 10.6955 22.602C10.9507 22.3469 11.094 22.0009 11.094 21.64V18.64H12.908V21.64C12.908 22.0007 13.0513 22.3466 13.3063 22.6017C13.5614 22.8567 13.9073 23 14.268 23C14.6287 23 14.9746 22.8567 15.2297 22.6017C15.4847 22.3466 15.628 22.0007 15.628 21.64V18.64H16.602C16.7948 18.6402 16.9858 18.6023 17.1639 18.5286C17.3421 18.4548 17.504 18.3467 17.6403 18.2104C17.7767 18.074 17.8848 17.9121 17.9585 17.734C18.0323 17.5558 18.0701 17.3648 18.07 17.172V8.37503H5.93V17.171ZM4.063 8.14103C3.88432 8.14103 3.70739 8.17624 3.54232 8.24465C3.37725 8.31306 3.22728 8.41332 3.10098 8.53972C2.97468 8.66611 2.87453 8.81615 2.80624 8.98127C2.73795 9.14639 2.70287 9.32335 2.703 9.50203V15.171C2.703 15.3496 2.73818 15.5265 2.80653 15.6915C2.87487 15.8565 2.97505 16.0064 3.10134 16.1327C3.22763 16.259 3.37755 16.3592 3.54255 16.4275C3.70756 16.4959 3.88441 16.531 4.063 16.531C4.2416 16.531 4.41845 16.4959 4.58345 16.4275C4.74846 16.3592 4.89838 16.259 5.02467 16.1327C5.15096 16.0064 5.25113 15.8565 5.31948 15.6915C5.38783 15.5265 5.423 15.3496 5.423 15.171V9.50203C5.423 9.32343 5.38783 9.14658 5.31948 8.98158C5.25113 8.81658 5.15096 8.66665 5.02467 8.54036C4.89838 8.41408 4.74846 8.3139 4.58345 8.24555C4.41845 8.17721 4.2416 8.14203 4.063 8.14203M19.935 8.14203C19.7563 8.14203 19.5794 8.17724 19.4143 8.24565C19.2493 8.31406 19.0993 8.41432 18.973 8.54072C18.8467 8.66711 18.7465 8.81715 18.6782 8.98227C18.61 9.14739 18.5749 9.32435 18.575 9.50303V15.172C18.575 15.3506 18.6102 15.5275 18.6785 15.6925C18.7469 15.8575 18.8471 16.0074 18.9733 16.1337C19.0996 16.26 19.2496 16.3602 19.4146 16.4285C19.5796 16.4969 19.7564 16.532 19.935 16.532C20.1136 16.532 20.2905 16.4969 20.4555 16.4285C20.6205 16.3602 20.7704 16.26 20.8967 16.1337C21.023 16.0074 21.1231 15.8575 21.1915 15.6925C21.2598 15.5275 21.295 15.3506 21.295 15.172V9.50203C21.295 9.14133 21.1517 8.79541 20.8967 8.54036C20.6416 8.28531 20.2957 8.14203 19.935 8.14203Z" fill="white"/>
</svg>
