<svg width="456" height="311" viewBox="0 0 456 311" fill="none" xmlns="http://www.w3.org/2000/svg">
<g clip-path="url(#clip0_0_980)">
<path d="M435.367 204.185C443.504 204.185 450.101 197.574 450.101 189.42C450.101 181.266 443.504 174.655 435.367 174.655C427.23 174.655 420.634 181.266 420.634 189.42C420.634 197.574 427.23 204.185 435.367 204.185Z" fill="#2F2E41"/>
<path d="M374.509 6.97182e-09H86.0163C84.9175 0.00100138 83.864 0.438893 83.087 1.21755C82.31 1.99621 81.873 3.05201 81.8721 4.15318V200.058C81.873 201.159 82.31 202.215 83.087 202.994C83.864 203.772 84.9175 204.21 86.0163 204.211H374.509C375.108 204.211 375.7 204.081 376.244 203.829C376.788 203.578 377.271 203.211 377.66 202.754C377.693 202.718 377.723 202.68 377.75 202.639C377.998 202.336 378.198 201.997 378.345 201.634C378.553 201.135 378.66 200.599 378.658 200.058V4.1532C378.657 3.05124 378.219 1.99484 377.441 1.21609C376.663 0.437332 375.609 -6.37621e-05 374.509 6.97182e-09ZM377.475 200.058C377.475 200.637 377.305 201.204 376.985 201.687C376.701 202.112 376.315 202.459 375.863 202.697C375.445 202.913 374.98 203.026 374.509 203.025H86.0163C85.2313 203.024 84.4788 202.711 83.9237 202.155C83.3686 201.599 83.0563 200.845 83.0554 200.058V4.1532C83.0563 3.36653 83.3686 2.61236 83.9237 2.0561C84.4788 1.49984 85.2313 1.18691 86.0163 1.18596H374.509C375.295 1.18586 376.048 1.49829 376.604 2.05464C377.161 2.61099 377.474 3.36576 377.475 4.1532V200.058Z" fill="#3F3D56"/>
<path d="M378.064 16.6455H82.4629V17.8328H378.064V16.6455Z" fill="#3F3D56"/>
<path d="M92.5328 12.4665C94.4958 12.4665 96.0872 10.8718 96.0872 8.90463C96.0872 6.93747 94.4958 5.34277 92.5328 5.34277C90.5698 5.34277 88.9785 6.93747 88.9785 8.90463C88.9785 10.8718 90.5698 12.4665 92.5328 12.4665Z" fill="#E6E6E6"/>
<path d="M102.752 12.4665C104.715 12.4665 106.306 10.8718 106.306 8.90463C106.306 6.93747 104.715 5.34277 102.752 5.34277C100.789 5.34277 99.1973 6.93747 99.1973 8.90463C99.1973 10.8718 100.789 12.4665 102.752 12.4665Z" fill="#E6E6E6"/>
<path d="M112.97 12.4665C114.933 12.4665 116.525 10.8718 116.525 8.90463C116.525 6.93747 114.933 5.34277 112.97 5.34277C111.007 5.34277 109.416 6.93747 109.416 8.90463C109.416 10.8718 111.007 12.4665 112.97 12.4665Z" fill="#E6E6E6"/>
<path d="M246.561 36.9111H141.937C140.216 36.9136 138.566 37.5997 137.349 38.8191C136.132 40.0385 135.448 41.6917 135.445 43.4162V175.813C135.448 177.538 136.132 179.191 137.349 180.41C138.566 181.63 140.216 182.316 141.937 182.318H246.561C248.282 182.316 249.932 181.63 251.148 180.41C252.365 179.191 253.05 177.538 253.052 175.813V43.4162C253.05 41.6917 252.365 40.0385 251.148 38.8191C249.932 37.5997 248.282 36.9136 246.561 36.9111ZM252.289 175.813C252.287 177.335 251.683 178.794 250.609 179.87C249.535 180.946 248.08 181.551 246.561 181.553H141.937C140.418 181.551 138.962 180.946 137.889 179.87C136.815 178.794 136.211 177.335 136.209 175.813V43.4162C136.211 41.8945 136.815 40.4356 137.889 39.3596C138.962 38.2836 140.418 37.6783 141.937 37.6764H246.561C248.08 37.6783 249.535 38.2836 250.609 39.3596C251.683 40.4356 252.287 41.8945 252.289 43.4162V175.813Z" fill="#E6E6E6"/>
<path d="M225.941 128.556H162.556C156.081 128.525 156.054 118.641 162.556 118.607H225.941C232.412 118.637 232.447 128.522 225.941 128.556Z" fill="#E6E6E6"/>
<path d="M225.941 146.923H162.556C156.081 146.892 156.054 137.008 162.556 136.974H225.941C232.412 137.004 232.447 146.889 225.941 146.923Z" fill="#E6E6E6"/>
<path d="M225.941 165.29H162.556C156.081 165.259 156.054 155.375 162.556 155.341H225.941C232.412 155.372 232.447 165.256 225.941 165.29Z" fill="#E6E6E6"/>
<path d="M311.302 96.4463C308.764 96.4463 306.283 95.6921 304.173 94.2791C302.063 92.8661 300.418 90.8577 299.447 88.5079C298.475 86.1581 298.221 83.5724 298.716 81.0779C299.211 78.5834 300.434 76.292 302.228 74.4936C304.023 72.6951 306.309 71.4703 308.799 70.9741C311.288 70.478 313.868 70.7326 316.213 71.7059C318.558 72.6793 320.562 74.3275 321.972 76.4423C323.382 78.557 324.135 81.0433 324.135 83.5867C324.131 86.9961 322.778 90.2648 320.372 92.6756C317.966 95.0864 314.704 96.4425 311.302 96.4463ZM311.302 71.6796C308.952 71.6796 306.655 72.378 304.701 73.6863C302.747 74.9947 301.224 76.8543 300.325 79.0301C299.425 81.2058 299.19 83.5999 299.649 85.9096C300.107 88.2194 301.239 90.341 302.9 92.0063C304.562 93.6715 306.679 94.8055 308.984 95.265C311.289 95.7244 313.678 95.4886 315.849 94.5874C318.02 93.6862 319.876 92.16 321.182 90.2019C322.487 88.2438 323.184 85.9417 323.184 83.5867C323.181 80.4298 321.928 77.4033 319.7 75.171C317.473 72.9388 314.452 71.6832 311.302 71.6796Z" fill="#E6E6E6"/>
<path d="M317.005 83.1105H311.777V77.1569C311.777 77.0306 311.727 76.9095 311.638 76.8202C311.549 76.7309 311.428 76.6807 311.302 76.6807C311.176 76.6807 311.055 76.7309 310.966 76.8202C310.876 76.9095 310.826 77.0306 310.826 77.1569V83.1105H305.598C305.472 83.1105 305.351 83.1607 305.262 83.25C305.173 83.3393 305.123 83.4604 305.123 83.5868C305.123 83.7131 305.173 83.8342 305.262 83.9236C305.351 84.0129 305.472 84.0631 305.598 84.0631H310.826V90.0166C310.826 90.1429 310.876 90.2641 310.966 90.3534C311.055 90.4427 311.176 90.4929 311.302 90.4929C311.428 90.4929 311.549 90.4427 311.638 90.3534C311.727 90.2641 311.777 90.1429 311.777 90.0166V84.0631H317.005C317.131 84.0631 317.252 84.0129 317.341 83.9236C317.43 83.8342 317.48 83.7131 317.48 83.5868C317.48 83.4604 317.43 83.3393 317.341 83.25C317.252 83.1607 317.131 83.1105 317.005 83.1105Z" fill="#E6E6E6"/>
<path d="M312.252 166.936C309.714 166.936 307.233 166.182 305.123 164.769C303.013 163.356 301.368 161.347 300.397 158.998C299.425 156.648 299.171 154.062 299.667 151.568C300.162 149.073 301.384 146.782 303.178 144.983C304.973 143.185 307.26 141.96 309.749 141.464C312.238 140.968 314.818 141.222 317.163 142.196C319.508 143.169 321.512 144.817 322.922 146.932C324.332 149.047 325.085 151.533 325.085 154.076C325.081 157.486 323.728 160.755 321.322 163.165C318.916 165.576 315.655 166.932 312.252 166.936ZM312.252 142.169C309.902 142.169 307.605 142.868 305.651 144.176C303.697 145.484 302.174 147.344 301.275 149.52C300.376 151.696 300.14 154.09 300.599 156.399C301.057 158.709 302.189 160.831 303.851 162.496C305.512 164.161 307.629 165.295 309.934 165.755C312.239 166.214 314.628 165.978 316.799 165.077C318.971 164.176 320.826 162.65 322.132 160.692C323.437 158.734 324.134 156.431 324.134 154.076C324.131 150.92 322.878 147.893 320.65 145.661C318.423 143.429 315.403 142.173 312.252 142.169Z" fill="#E6E6E6"/>
<path d="M315.949 149.698L312.252 153.403L308.052 149.193C308.007 149.149 307.955 149.114 307.897 149.09C307.84 149.066 307.778 149.054 307.716 149.054C307.653 149.054 307.591 149.066 307.534 149.09C307.476 149.114 307.424 149.149 307.379 149.193C307.335 149.237 307.3 149.29 307.276 149.348C307.253 149.406 307.24 149.467 307.24 149.53C307.24 149.593 307.253 149.654 307.276 149.712C307.3 149.77 307.335 149.823 307.379 149.867L311.58 154.077L307.884 157.781C307.794 157.87 307.744 157.992 307.744 158.118C307.744 158.244 307.794 158.365 307.884 158.455C307.973 158.544 308.094 158.594 308.22 158.594C308.346 158.594 308.467 158.544 308.556 158.455L312.252 154.75L316.453 158.96C316.543 159.049 316.663 159.099 316.789 159.099C316.915 159.099 317.036 159.048 317.125 158.959C317.214 158.87 317.264 158.749 317.264 158.623C317.264 158.497 317.214 158.376 317.125 158.286L312.925 154.077L316.621 150.372C316.71 150.283 316.76 150.162 316.76 150.035C316.76 149.909 316.71 149.788 316.621 149.699C316.532 149.61 316.411 149.56 316.285 149.56C316.159 149.559 316.038 149.609 315.949 149.698Z" fill="#E6E6E6"/>
<path d="M224.796 106.668H163.702C162.031 106.666 160.43 106 159.249 104.817C158.068 103.633 157.403 102.028 157.401 100.354V66.0691C157.403 64.3952 158.068 62.7903 159.249 61.6067C160.43 60.4231 162.031 59.7573 163.702 59.7554H224.796C226.467 59.7573 228.068 60.4231 229.249 61.6067C230.43 62.7903 231.095 64.3952 231.097 66.0691V100.354C231.095 102.028 230.43 103.633 229.249 104.817C228.068 106 226.467 106.666 224.796 106.668Z" fill="#E6E6E6"/>
<path d="M294.272 85.6553L260.865 105.092L261.342 105.916L294.749 86.479L294.272 85.6553Z" fill="#E6E6E6"/>
<path d="M261.342 129.368L260.865 130.191L294.271 149.628L294.749 148.805L261.342 129.368Z" fill="#E6E6E6"/>
<path d="M154.63 130.812L146.121 143.603L147.586 144.581L156.095 131.79L154.63 130.812Z" fill="#3F3D56"/>
<path d="M161.256 122.443C156.94 125.58 150.866 128.992 145.944 130.335L154.59 132.464L159.874 139.641C159.217 134.572 160.025 127.641 161.256 122.443Z" fill="#3F3D56"/>
<path d="M136.012 174.059C144.275 174.059 150.974 167.346 150.974 159.066C150.974 150.785 144.275 144.072 136.012 144.072C127.749 144.072 121.05 150.785 121.05 159.066C121.05 167.346 127.749 174.059 136.012 174.059Z" fill="white"/>
<path d="M327.972 90.5259L326.508 91.5044L335.017 104.295L336.482 103.317L327.972 90.5259Z" fill="#FF626C"/>
<path d="M321.347 82.1572C325.663 85.2941 331.736 88.7063 336.658 90.0485L328.013 92.1774L322.729 99.3549C323.385 94.2859 322.578 87.3553 321.347 82.1572Z" fill="#FF626C"/>
<path d="M346.59 133.774C354.853 133.774 361.552 127.061 361.552 118.78C361.552 110.499 354.853 103.786 346.59 103.786C338.327 103.786 331.628 110.499 331.628 118.78C331.628 127.061 338.327 133.774 346.59 133.774Z" fill="#FF626C"/>
<path d="M449.937 258.203H427.119C427.119 258.86 403.602 259.394 403.602 259.394C403.233 259.672 402.896 259.992 402.599 260.346C401.706 261.414 401.218 262.763 401.221 264.157V265.109C401.221 266.688 401.847 268.202 402.961 269.318C404.075 270.435 405.586 271.062 407.162 271.063H449.937C451.512 271.061 453.022 270.434 454.136 269.318C455.25 268.201 455.876 266.688 455.877 265.109V264.157C455.875 262.578 455.249 261.065 454.135 259.949C453.021 258.833 451.511 258.205 449.937 258.203Z" fill="#E6E6E6"/>
<path d="M431.874 270.827H425.695V310.834H431.874V270.827Z" fill="#E6E6E6"/>
<path d="M449.459 310.617C449.459 311.286 440.096 310.876 428.547 310.876C416.997 310.876 407.635 311.286 407.635 310.617C407.635 309.948 416.997 304.643 428.547 304.643C440.096 304.643 449.459 309.948 449.459 310.617Z" fill="#E6E6E6"/>
<path d="M397.649 305.355H391.822L389.05 282.832H397.65L397.649 305.355Z" fill="#FFB8B8"/>
<path d="M387.66 303.686H398.898V310.776H380.585C380.585 308.896 381.33 307.092 382.657 305.763C383.984 304.433 385.784 303.686 387.66 303.686Z" fill="#2F2E41"/>
<path d="M388.553 302.096L382.994 300.347L387.078 278.026L395.283 280.606L388.553 302.096Z" fill="#FFB8B8"/>
<path d="M379.521 297.507L390.243 300.879L388.125 307.644L370.652 302.149C370.93 301.26 371.38 300.436 371.977 299.722C372.573 299.008 373.304 298.418 374.127 297.987C374.951 297.556 375.851 297.292 376.777 297.209C377.702 297.127 378.635 297.228 379.521 297.507Z" fill="#2F2E41"/>
<path d="M434.331 254.299C434.197 253.164 433.955 252.045 433.609 250.956L432.52 249.584L429.688 246.021L429.564 246.026C429.355 246.036 428.485 246.083 427.14 246.188H427.126C426.294 246.255 425.277 246.341 424.122 246.45C423.818 246.483 423.5 246.512 423.172 246.545V251.518H429.113C429.401 251.518 429.68 251.624 429.897 251.815C430.114 252.006 430.254 252.269 430.291 252.556C430.296 252.608 430.301 252.656 430.301 252.709C430.301 253.024 430.176 253.327 429.953 253.55C429.73 253.774 429.428 253.899 429.113 253.899H394.608C394.168 254.192 393.746 254.51 393.343 254.852C392.128 255.795 391.252 257.109 390.848 258.595C388.833 267.473 385.159 284.029 384.075 288.892C383.997 289.258 384.015 289.639 384.127 289.996C384.24 290.353 384.443 290.675 384.717 290.93C384.919 291.119 385.157 291.267 385.416 291.364L389.703 292.973C389.879 293.039 390.063 293.082 390.249 293.102C390.273 293.102 390.292 293.107 390.316 293.107C390.36 293.111 390.405 293.112 390.449 293.112C390.882 293.11 391.305 292.977 391.662 292.731C392.019 292.484 392.294 292.136 392.45 291.73L395.834 282.833L401.048 269.116L403.11 263.692C405.501 264.254 425.558 268.702 432.273 261.534C432.936 260.828 433.458 260.002 433.813 259.1C434.378 257.567 434.556 255.918 434.331 254.299Z" fill="#2F2E41"/>
<path d="M440.148 255.595C440.044 255.171 439.925 254.733 439.787 254.29L435.866 249.355L435.743 249.36C435.495 249.375 434.321 249.436 432.52 249.584C430.477 249.756 427.62 250.032 424.412 250.465C424.317 250.475 424.217 250.489 424.122 250.503C423.808 250.546 423.49 250.589 423.171 250.637V251.518H429.112C429.401 251.518 429.68 251.624 429.897 251.815C430.114 252.006 430.254 252.269 430.291 252.556C430.296 252.608 430.301 252.656 430.301 252.709C430.3 253.024 430.175 253.327 429.952 253.55C429.73 253.774 429.427 253.899 429.112 253.899H408.115C407.197 254.199 406.313 254.514 405.467 254.852C401.028 256.614 397.706 258.924 397.026 261.929C396.798 262.939 396.546 264.049 396.28 265.23C395.292 269.621 394.089 274.999 393.001 279.885V279.89C392.777 280.9 392.554 281.881 392.34 282.833C391.432 286.929 390.663 290.402 390.254 292.226C390.244 292.278 390.235 292.326 390.225 292.378V292.388C390.178 292.757 390.224 293.132 390.358 293.478L390.363 293.483V293.488C390.494 293.82 390.706 294.113 390.981 294.34C391.165 294.492 391.372 294.613 391.594 294.698L395.881 296.307C396.12 296.397 396.372 296.444 396.627 296.446C396.984 296.446 397.336 296.356 397.649 296.184C398.098 295.94 398.446 295.543 398.628 295.064L407.858 270.793L409.289 267.026C411.679 267.588 431.736 272.031 438.451 264.868C439.778 263.429 440.535 261.554 440.581 259.595C440.628 258.248 440.482 256.901 440.148 255.595Z" fill="#2F2E41"/>
<path d="M439.621 213.577C439.545 213.486 439.464 213.396 439.379 213.31C438.113 211.977 436.55 210.962 434.817 210.351C433.085 209.739 431.233 209.547 429.412 209.791C427.824 210 426.251 210.31 424.702 210.719C422.702 211.235 420.87 212.264 419.389 213.706C418.234 214.827 417.325 216.177 416.719 217.669C416.113 219.161 415.822 220.763 415.867 222.374C415.886 223.026 415.89 223.693 415.881 224.37C415.881 224.684 415.876 225.003 415.872 225.322H420.558C420.761 225.322 420.964 225.346 421.161 225.394C421.733 225.531 422.242 225.856 422.607 226.319C422.972 226.781 423.171 227.352 423.172 227.942V250.098C423.49 250.189 423.809 250.279 424.122 250.375C424.222 250.408 424.317 250.437 424.412 250.465C424.521 250.498 424.631 250.532 424.735 250.565C425.7 250.865 426.643 251.183 427.563 251.518H429.113C429.401 251.518 429.68 251.624 429.897 251.815C430.114 252.006 430.254 252.269 430.291 252.556C430.615 252.685 430.928 252.813 431.237 252.942C432.335 253.399 433.376 253.856 434.331 254.299C435.619 254.89 436.765 255.452 437.725 255.942C438.027 256.096 438.36 256.178 438.699 256.18C439.144 256.179 439.577 256.036 439.935 255.771C440.009 255.716 440.08 255.657 440.148 255.595C440.403 255.356 440.595 255.058 440.709 254.728C440.822 254.397 440.853 254.044 440.8 253.699C440.309 249.958 440.166 246.179 440.372 242.411C440.505 239.244 440.79 235.996 441.161 232.857C441.361 231.157 441.584 229.49 441.817 227.884C442.04 226.351 442.278 224.879 442.511 223.488C442.816 221.725 442.715 219.915 442.214 218.197C441.713 216.479 440.826 214.898 439.621 213.577Z" fill="#235DCF"/>
<path d="M420.139 213.967C419.896 213.862 419.645 213.775 419.388 213.705C418.122 213.364 416.775 213.49 415.593 214.061C414.412 214.632 413.475 215.61 412.953 216.816L409.688 224.369L409.279 225.322H420.558C420.761 225.321 420.964 225.345 421.161 225.393L421.541 224.512L422.986 221.169C423.56 219.835 423.583 218.328 423.049 216.978C422.515 215.628 421.469 214.545 420.139 213.967Z" fill="#235DCF"/>
<path d="M430.28 206.072C436.727 206.072 441.953 200.834 441.953 194.374C441.953 187.913 436.727 182.676 430.28 182.676C423.833 182.676 418.606 187.913 418.606 194.374C418.606 200.834 423.833 206.072 430.28 206.072Z" fill="#FFB8B8"/>
<path d="M441.817 227.885L435.154 228.066L434.669 232.757L434.559 233.843L424.122 238.539L423.172 238.968V247.317L424.122 247.045L427.126 246.188H427.14L440.372 242.411L440.524 242.368C441.593 242.059 442.534 241.412 443.207 240.524C443.88 239.636 444.25 238.554 444.26 237.439L444.293 231.9L444.322 227.818L441.817 227.885Z" fill="#FFB8B8"/>
<path d="M443.984 218.607C443.895 217.156 443.235 215.801 442.149 214.839C441.063 213.876 439.64 213.386 438.193 213.475C436.746 213.564 435.393 214.225 434.433 215.314C433.473 216.402 432.983 217.828 433.072 219.278L433.799 231.166C433.818 231.479 433.907 231.784 434.057 232.059C434.207 232.334 434.416 232.572 434.669 232.757C435.07 233.057 435.566 233.204 436.066 233.171L441.161 232.857L442.706 232.762C442.987 232.748 443.263 232.677 443.516 232.553C443.769 232.43 443.995 232.256 444.179 232.043C444.22 231.997 444.258 231.95 444.293 231.9C444.595 231.494 444.743 230.995 444.711 230.49L443.984 218.607Z" fill="#235DCF"/>
<path d="M424.735 250.565H424.122V250.503C423.808 250.546 423.49 250.589 423.172 250.637V251.518H427.563C426.641 251.184 425.698 250.867 424.735 250.565ZM424.735 250.565H424.122V250.503C423.808 250.546 423.49 250.589 423.172 250.637V251.518H427.563C426.641 251.184 425.698 250.867 424.735 250.565ZM429.112 250.565H424.122V227.942C424.12 227.167 423.868 226.414 423.402 225.796C422.937 225.177 422.284 224.727 421.541 224.513C421.222 224.416 420.891 224.368 420.557 224.37H378.258C377.313 224.371 376.407 224.748 375.739 225.417C375.07 226.087 374.694 226.995 374.693 227.942V251.28C374.694 252.227 375.069 253.135 375.738 253.805C376.406 254.475 377.313 254.851 378.258 254.852H429.112C429.639 254.851 430.147 254.656 430.539 254.303C430.93 253.951 431.179 253.466 431.237 252.942C431.246 252.864 431.251 252.787 431.251 252.709C431.25 252.14 431.025 251.596 430.624 251.194C430.223 250.792 429.679 250.566 429.112 250.565ZM430.301 252.709C430.301 253.024 430.175 253.327 429.952 253.55C429.73 253.774 429.428 253.899 429.112 253.899H378.258C377.565 253.899 376.9 253.623 376.41 253.132C375.92 252.64 375.644 251.974 375.644 251.28V227.942C375.644 227.247 375.92 226.581 376.41 226.09C376.9 225.599 377.565 225.323 378.258 225.322H420.557C420.761 225.322 420.964 225.346 421.161 225.394C421.733 225.531 422.242 225.856 422.607 226.319C422.972 226.781 423.17 227.353 423.172 227.942V251.518H429.112C429.401 251.518 429.68 251.624 429.897 251.815C430.114 252.006 430.254 252.269 430.291 252.556C430.296 252.608 430.301 252.656 430.301 252.709ZM424.735 250.565H424.122V250.503C423.808 250.546 423.49 250.589 423.172 250.637V251.518H427.563C426.641 251.184 425.698 250.867 424.735 250.565Z" fill="#3F3D56"/>
<path d="M399.406 242.469C400.981 242.469 402.258 241.189 402.258 239.611C402.258 238.033 400.981 236.753 399.406 236.753C397.831 236.753 396.555 238.033 396.555 239.611C396.555 241.189 397.831 242.469 399.406 242.469Z" fill="#235DCF"/>
<path d="M0 263.681V264.633C0.00136803 266.212 0.627727 267.725 1.74158 268.841C2.85542 269.958 4.36573 270.585 5.94095 270.587H48.7158C50.2913 270.586 51.802 269.959 52.916 268.842C54.0301 267.726 54.6562 266.212 54.6567 264.633V263.681C54.6597 262.287 54.1715 260.938 53.2783 259.87C52.981 259.516 52.6446 259.196 52.2755 258.918C52.2755 258.918 28.7588 258.384 28.7588 257.727H5.94095C4.36598 257.729 2.85615 258.357 1.74247 259.473C0.628803 260.589 0.00218026 262.102 0 263.681Z" fill="#E6E6E6"/>
<path d="M24.004 310.358H30.1826L30.1826 270.35H24.004L24.004 310.358Z" fill="#E6E6E6"/>
<path d="M6.41895 310.14C6.41895 310.809 15.7816 310.399 27.3311 310.399C38.8806 310.399 48.2432 310.809 48.2432 310.14C48.2432 309.471 38.8806 304.166 27.3311 304.166C15.7816 304.166 6.41895 309.471 6.41895 310.14Z" fill="#E6E6E6"/>
<path d="M58.5068 305.241L64.3337 305.241L67.1055 282.718L58.5059 282.719L58.5068 305.241Z" fill="#A0616A"/>
<path d="M75.5713 310.662L57.2586 310.663L57.2582 303.573L68.4956 303.572C69.4247 303.572 70.3448 303.755 71.2032 304.112C72.0617 304.468 72.8417 304.99 73.4987 305.649C74.1558 306.307 74.677 307.089 75.0326 307.949C75.3882 308.809 75.5712 309.731 75.5713 310.662Z" fill="#2F2E41"/>
<path d="M67.6025 301.982L73.1618 300.234L69.0782 277.913L60.873 280.493L67.6025 301.982Z" fill="#A0616A"/>
<path d="M85.5039 302.035L68.0313 307.53L65.9128 300.765L76.6347 297.393C78.4251 296.83 80.3653 297.003 82.0287 297.873C83.692 298.744 84.942 300.241 85.5039 302.035Z" fill="#2F2E41"/>
<path d="M72.0793 288.779C71.0004 283.916 67.3216 267.36 65.3066 258.482C64.9213 257.052 64.0924 255.781 62.9397 254.853C62.5504 254.511 62.1409 254.193 61.7134 253.901H30.2025C29.8874 253.9 29.5853 253.775 29.3625 253.552C29.1397 253.328 29.0144 253.026 29.0143 252.71C29.0143 252.658 29.0192 252.61 29.0238 252.557C29.0612 252.271 29.2014 252.007 29.4182 251.816C29.6351 251.625 29.9138 251.52 30.2025 251.519H36.1435V246.79C35.8204 246.752 35.5067 246.713 35.1929 246.68C32.7072 246.385 30.5685 246.194 29.0382 246.075C27.679 245.971 26.7997 245.923 26.5906 245.913L26.4669 245.904L23.6343 249.471L22.5459 250.843C22.1995 251.93 21.9576 253.048 21.8235 254.182C21.486 257.173 22.1753 259.602 23.8814 261.421C30.597 268.584 50.6538 264.141 53.0443 263.579L63.7048 291.617C63.8602 292.023 64.1346 292.371 64.4919 292.617C64.8491 292.863 65.2724 292.994 65.7058 292.994C65.7724 292.994 65.8387 292.989 65.9053 292.984C66.0921 292.967 66.2758 292.925 66.4519 292.861L70.7388 291.251C71.2202 291.067 71.62 290.717 71.8659 290.264C72.1118 289.81 72.1875 289.283 72.0793 288.779Z" fill="#2F2E41"/>
<path d="M65.9011 292.113C64.8222 287.25 61.1434 270.695 59.1284 261.817C58.4581 258.874 55.2642 256.602 50.9679 254.854C50.1455 254.516 49.2805 254.201 48.3822 253.901H30.2029C29.8878 253.901 29.5857 253.775 29.3629 253.552C29.1401 253.329 29.0148 253.026 29.0147 252.71C29.0147 252.658 29.0196 252.61 29.0242 252.558C29.0616 252.271 29.2018 252.008 29.4186 251.817C29.6355 251.626 29.9142 251.52 30.2029 251.52H36.1438V251.015C35.4834 250.901 34.8227 250.796 34.1764 250.696C33.8816 250.653 33.5869 250.61 33.2922 250.567C32.7647 250.491 32.2466 250.419 31.738 250.353C28.5299 249.919 25.6783 249.643 23.6347 249.472C21.8334 249.324 20.6593 249.262 20.4124 249.248L20.2887 249.238L16.3677 254.177C16.2299 254.62 16.111 255.058 16.0066 255.482C15.056 259.426 15.6262 262.536 17.7032 264.756C24.4188 271.919 44.4756 267.475 46.8661 266.913L57.5266 294.952C57.7298 295.479 58.1319 295.905 58.6459 296.138C59.1599 296.37 59.7446 296.391 60.2736 296.195L64.5606 294.585C64.9025 294.456 65.2056 294.241 65.441 293.96C65.6764 293.68 65.8364 293.345 65.9057 292.985C65.9682 292.698 65.9666 292.4 65.9011 292.113Z" fill="#2F2E41"/>
<path d="M59.9072 236.754C59.3579 236.755 58.8203 236.914 58.3591 237.213C57.8979 237.512 57.5328 237.938 57.3076 238.44L61.6327 237.335C61.1376 236.956 60.5307 236.751 59.9072 236.754Z" fill="#A0616A"/>
<path d="M40.293 221.952C40.2945 220.392 39.9831 218.848 39.3773 217.411C38.7715 215.974 37.8837 214.674 36.7665 213.588C35.2862 212.148 33.4562 211.12 31.4577 210.606C29.907 210.198 28.3324 209.886 26.743 209.673C24.9221 209.432 23.0701 209.625 21.3381 210.238C19.606 210.85 18.0429 211.864 16.7764 213.197C16.691 213.283 16.6102 213.374 16.5341 213.464C15.3289 214.785 14.4418 216.366 13.9408 218.084C13.4399 219.802 13.3385 221.612 13.6444 223.376C13.8774 224.766 14.115 226.238 14.3383 227.772C14.5713 229.377 14.7946 231.044 14.9941 232.744C15.365 235.883 15.6502 239.131 15.7832 242.294C15.9917 246.063 15.8485 249.844 15.3555 253.586C15.3018 253.931 15.333 254.285 15.4465 254.615C15.56 254.945 15.7523 255.243 16.0066 255.482C16.0747 255.544 16.1461 255.603 16.2204 255.658C16.5354 255.892 16.9102 256.032 17.3013 256.062C17.6925 256.091 18.0839 256.009 18.4304 255.825C19.3904 255.334 20.5359 254.772 21.8239 254.182C23.7677 253.291 26.0348 252.329 28.4778 251.443C29.319 251.138 30.1839 250.843 31.0586 250.567C31.2818 250.495 31.51 250.424 31.7381 250.352C32.8741 250.005 34.0291 249.681 35.1934 249.405C35.5117 249.328 35.8255 249.257 36.1439 249.19V227.943C36.145 227.354 36.3439 226.782 36.7085 226.32C37.0732 225.858 37.5825 225.532 38.1543 225.395C38.3519 225.347 38.5546 225.323 38.7579 225.324H40.2884C40.2789 225.005 40.2743 224.685 40.2743 224.371C40.2645 223.657 40.2694 222.952 40.2884 222.261C40.293 222.156 40.293 222.052 40.293 221.952Z" fill="#CCCCCC"/>
<path d="M46.5139 224.371L43.2011 216.703C42.679 215.497 41.742 214.519 40.5609 213.948C39.3798 213.376 38.033 213.248 36.7659 213.588C36.5097 213.658 36.2588 213.745 36.0149 213.85C34.6852 214.429 33.6388 215.513 33.1052 216.864C32.5716 218.215 32.5942 219.722 33.1681 221.056L35.5111 226.476L36.1432 227.943C36.1443 227.354 36.3432 226.782 36.7079 226.32C37.0725 225.858 37.5818 225.532 38.1537 225.395C38.3513 225.347 38.5539 225.323 38.7573 225.324H46.9226L46.5139 224.371Z" fill="#CCCCCC"/>
<path d="M25.8754 205.958C32.3224 205.958 37.5487 200.721 37.5487 194.26C37.5487 187.799 32.3224 182.562 25.8754 182.562C19.4284 182.562 14.2021 187.799 14.2021 194.26C14.2021 200.721 19.4284 205.958 25.8754 205.958Z" fill="#A0616A"/>
<path d="M18.8211 204.653C18.6558 204.844 18.4538 205 18.2272 205.112C18.0006 205.224 17.7539 205.289 17.5018 205.303C17.2496 205.318 16.9971 205.281 16.7592 205.197C16.5214 205.112 16.3029 204.98 16.1167 204.809C13.5138 202.697 11.4494 199.995 10.0939 196.927C8.57634 193.302 8.35394 188.878 10.0811 185.48C11.5411 182.608 14.1621 180.779 16.7787 179.285C17.7817 178.652 18.881 178.186 20.0333 177.907C20.6153 177.774 21.2185 177.765 21.8041 177.881C22.3897 177.996 22.9447 178.233 23.4334 178.577C23.9519 178.972 24.3532 179.501 24.5942 180.107C24.8352 180.714 24.9067 181.375 24.8012 182.019C25.9981 180.439 27.6116 179.225 29.4599 178.515C30.594 178.026 31.861 177.941 33.05 178.274C34.7304 178.836 35.9742 180.536 36.6663 182.363C37.2261 183.762 37.4311 185.278 37.263 186.776C37.1897 187.491 36.9721 188.183 36.6233 188.811C36.2744 189.44 35.8018 189.99 35.234 190.429C33.8634 191.377 32.0975 191.281 30.5035 190.861C28.9095 190.442 27.3625 189.731 25.7407 189.532C24.1188 189.334 22.3214 189.764 21.3551 191.214C20.6747 192.234 20.5142 193.579 20.3754 194.861L19.6532 201.528C19.6021 202.482 19.3971 203.422 19.0459 204.31C18.9865 204.434 18.9109 204.549 18.8211 204.653Z" fill="#2F2E41"/>
<path d="M35.1928 239.846L21.5952 233.73L21.4859 232.644L21.0011 227.953L14.3377 227.772L11.833 227.705L11.8616 231.787L11.8947 237.326C11.9053 238.441 12.2746 239.522 12.9477 240.409C13.6208 241.297 14.5617 241.942 15.6306 242.251L15.7826 242.294L29.0381 246.075L35.1928 247.833L36.1433 248.104V240.274L35.1928 239.846Z" fill="#A0616A"/>
<path d="M17.9639 213.364C17.2476 213.319 16.5295 213.417 15.8508 213.651C15.1721 213.884 14.546 214.25 14.0084 214.726C13.4707 215.203 13.0321 215.781 12.7175 216.427C12.403 217.073 12.2187 217.776 12.1752 218.494L11.4432 230.377C11.4134 230.881 11.5614 231.38 11.8614 231.787C11.8965 231.837 11.9346 231.884 11.9756 231.93C12.1546 232.132 12.3708 232.299 12.6124 232.42C12.8721 232.554 13.1571 232.632 13.4488 232.649L14.9934 232.744L20.0885 233.058C20.6547 233.092 21.2112 232.899 21.636 232.522C22.0609 232.146 22.3196 231.616 22.3555 231.048L23.0826 219.165C23.1703 217.716 22.6805 216.291 21.7208 215.203C20.7611 214.116 19.4099 213.454 17.9639 213.364Z" fill="#CCCCCC"/>
<path d="M439.191 203.358C438.196 203.895 436.956 204.424 436.009 203.777C435.084 203.144 435.018 201.737 435.337 200.643C435.656 199.549 436.255 198.527 436.311 197.381C436.391 195.739 435.297 194.216 433.939 193.363C432.581 192.511 430.989 192.199 429.436 191.902L420.917 190.273C418.808 189.87 416.525 189.367 415.118 187.666C413.082 185.204 413.965 181.099 416.377 179.107C418.789 177.114 422.188 176.89 425.223 177.56C426.902 177.931 428.54 178.546 430.245 178.725C433.611 179.081 437.169 177.745 440.292 179.133C443.011 180.341 444.657 183.409 445.042 186.459C445.426 189.508 444.755 192.573 444.006 195.532C443.56 197.292 443.069 199.079 442.085 200.576C441.102 202.074 439.53 203.258 437.781 203.28L439.191 203.358Z" fill="#2F2E41"/>
<path d="M446.493 189.997C451.743 189.997 455.998 185.732 455.998 180.471C455.998 175.211 451.743 170.946 446.493 170.946C441.243 170.946 436.987 175.211 436.987 180.471C436.987 185.732 441.243 189.997 446.493 189.997Z" fill="#2F2E41"/>
<path d="M35.1926 250.505V250.567H34.5795C34.4465 250.61 34.3087 250.652 34.1757 250.695C33.3535 250.957 32.5455 251.232 31.7518 251.519H36.1432V250.638C35.8248 250.591 35.5064 250.548 35.1926 250.505ZM35.1926 250.505V250.567H34.5795C34.4465 250.61 34.3087 250.652 34.1757 250.695C33.3535 250.957 32.5455 251.232 31.7518 251.519H36.1432V250.638C35.8248 250.591 35.5064 250.548 35.1926 250.505ZM35.1926 250.505V250.567H34.5795C34.4465 250.61 34.3087 250.652 34.1757 250.695C34.822 250.795 35.4827 250.9 36.1432 251.014V250.638C35.8248 250.591 35.5064 250.548 35.1926 250.505ZM35.1926 249.405V250.567H34.5795C34.4465 250.61 34.3087 250.652 34.1757 250.695C33.3535 250.957 32.5455 251.232 31.7518 251.519H36.1432V249.19C35.8248 249.257 35.511 249.328 35.1926 249.405ZM35.1926 249.405V250.567H34.5795C34.4465 250.61 34.3087 250.652 34.1757 250.695C33.3535 250.957 32.5455 251.232 31.7518 251.519H36.1432V249.19C35.8248 249.257 35.511 249.328 35.1926 249.405ZM35.1926 249.405V250.567H34.5795C34.4465 250.61 34.3087 250.652 34.1757 250.695C33.3535 250.957 32.5455 251.232 31.7518 251.519H36.1432V249.19C35.8248 249.257 35.511 249.328 35.1926 249.405ZM81.0568 224.371H38.7572C38.424 224.369 38.0924 224.418 37.7734 224.514C37.2776 224.659 36.8188 224.909 36.4283 225.247C36.0378 225.586 35.7249 226.005 35.511 226.476C35.3007 226.937 35.1921 227.437 35.1926 227.943V250.567H30.2022C29.9213 250.567 29.6432 250.622 29.3837 250.73C29.1242 250.837 28.8884 250.995 28.6898 251.194C28.4912 251.393 28.3337 251.63 28.2262 251.89C28.1187 252.15 28.0634 252.429 28.0635 252.71C28.0634 252.788 28.0682 252.866 28.0779 252.943C28.1357 253.468 28.3843 253.952 28.7762 254.305C29.1681 254.657 29.6757 254.852 30.2022 254.853H81.0568C82.002 254.853 82.9085 254.476 83.5769 253.807C84.2453 253.137 84.621 252.228 84.6213 251.281V227.943C84.6202 226.996 84.2443 226.088 83.576 225.419C82.9078 224.749 82.0018 224.372 81.0568 224.371ZM83.6708 251.281C83.6704 251.976 83.3948 252.642 82.9047 253.133C82.4146 253.624 81.7499 253.9 81.0568 253.901H30.2022C29.8871 253.901 29.585 253.775 29.3622 253.552C29.1394 253.329 29.0142 253.026 29.014 252.71C29.014 252.658 29.0189 252.61 29.0235 252.558C29.0609 252.271 29.2011 252.007 29.4179 251.816C29.6348 251.625 29.9135 251.52 30.2022 251.519H36.1432L36.1432 227.943C36.1442 227.354 36.3431 226.782 36.7078 226.32C37.0725 225.858 37.5817 225.532 38.1536 225.395C38.3512 225.347 38.5539 225.323 38.7572 225.324H81.0568C81.7499 225.324 82.4146 225.6 82.9047 226.091C83.3948 226.583 83.6704 227.249 83.6708 227.943V251.281ZM35.1926 249.405V250.567H34.5795C34.4465 250.61 34.3087 250.652 34.1757 250.695C33.3535 250.957 32.5455 251.232 31.7518 251.519H36.1432V249.19C35.8248 249.257 35.511 249.328 35.1926 249.405ZM35.1926 249.405V250.567H34.5795C34.4465 250.61 34.3087 250.652 34.1757 250.695C33.3535 250.957 32.5455 251.232 31.7518 251.519H36.1432V249.19C35.8248 249.257 35.511 249.328 35.1926 249.405ZM35.1926 249.405V250.567H34.5795C34.4465 250.61 34.3087 250.652 34.1757 250.695C33.3535 250.957 32.5455 251.232 31.7518 251.519H36.1432V249.19C35.8248 249.257 35.511 249.328 35.1926 249.405ZM35.1926 250.505V250.567H34.5795C34.4465 250.61 34.3087 250.652 34.1757 250.695C33.3535 250.957 32.5455 251.232 31.7518 251.519H36.1432V250.638C35.8248 250.591 35.5064 250.548 35.1926 250.505Z" fill="#3F3D56"/>
<path d="M62.759 239.612C62.759 240.37 62.4585 241.097 61.9237 241.633C61.389 242.169 60.6636 242.47 59.9073 242.47C59.151 242.47 58.4257 242.169 57.8909 241.633C57.3561 241.097 57.0557 240.37 57.0557 239.612C57.0552 239.208 57.1411 238.808 57.3077 238.44C57.5328 237.938 57.898 237.512 58.3592 237.213C58.8204 236.914 59.358 236.755 59.9073 236.754C60.5308 236.751 61.1377 236.956 61.6328 237.335C61.983 237.602 62.2669 237.947 62.4622 238.341C62.6576 238.736 62.7592 239.171 62.759 239.612Z" fill="#FF626C"/>
<path d="M127.858 153.128V166.113H130.606V155.948H138.719V166.113H141.466V153.128H127.858Z" fill="#2056BE"/>
<path d="M132.504 158.703V157.785H136.822V158.703H132.504Z" fill="#2056BE"/>
<path d="M132.568 161.457V160.539H136.886V161.457H132.568Z" fill="#2056BE"/>
<path d="M132.568 164.211V163.293H136.886V164.211H132.568Z" fill="#2056BE"/>
<path d="M129.036 152.473V151.882H142.709V164.933H142.055V152.473H129.036Z" fill="#FF626C"/>
<path d="M130.345 151.227V150.636L143.953 150.571V163.687H143.298V151.227H130.345Z" fill="#FF626C"/>
</g>
<defs>
<clipPath id="clip0_0_980">
<rect width="456" height="311" fill="white"/>
</clipPath>
</defs>
</svg>
