<svg width="12" height="7" viewBox="0 0 12 7" fill="none" xmlns="http://www.w3.org/2000/svg">
<path d="M10.8499 0.533699C10.7651 0.448721 10.6643 0.381302 10.5534 0.335302C10.4425 0.289303 10.3237 0.265625 10.2036 0.265625C10.0836 0.265625 9.96468 0.289303 9.85379 0.335302C9.74289 0.381302 9.64216 0.448721 9.55736 0.533699L6.00069 4.09036L2.44403 0.533699C2.27263 0.362303 2.04017 0.266013 1.79778 0.266013C1.55539 0.266013 1.32292 0.362303 1.15152 0.533699C0.980128 0.705095 0.883841 0.937558 0.883841 1.17995C0.883841 1.42234 0.980128 1.6548 1.15152 1.8262L5.35903 6.0337C5.44383 6.11868 5.54456 6.1861 5.65545 6.2321C5.76635 6.27809 5.88522 6.30177 6.00528 6.30177C6.12533 6.30177 6.2442 6.27809 6.3551 6.2321C6.46599 6.1861 6.56672 6.11868 6.65153 6.0337L10.859 1.8262C11.2074 1.47787 11.2074 0.891199 10.8499 0.533699Z" fill="#4F4F4F"/>
</svg>
