<svg width="22" height="22" viewBox="0 0 22 22" fill="none" xmlns="http://www.w3.org/2000/svg">
<path d="M15.8494 8.53419C15.7646 8.44921 15.6638 8.38179 15.5529 8.33579C15.4421 8.28979 15.3232 8.26611 15.2031 8.26611C15.0831 8.26611 14.9642 8.28979 14.8533 8.33579C14.7424 8.38179 14.6417 8.44921 14.5569 8.53419L11.0002 12.0909L7.44354 8.53419C7.27214 8.36279 7.03968 8.2665 6.79729 8.2665C6.5549 8.2665 6.32243 8.36279 6.15104 8.53419C5.97964 8.70558 5.88335 8.93805 5.88335 9.18044C5.88335 9.42283 5.97964 9.65529 6.15104 9.82669L10.3585 14.0342C10.4433 14.1192 10.5441 14.1866 10.655 14.2326C10.7659 14.2786 10.8847 14.3023 11.0048 14.3023C11.1248 14.3023 11.2437 14.2786 11.3546 14.2326C11.4655 14.1866 11.5662 14.1192 11.651 14.0342L15.8585 9.82669C16.2069 9.47835 16.2069 8.89169 15.8494 8.53419Z" fill="black"/>
</svg>
