<svg width="623" height="528" viewBox="0 0 623 528" fill="none" xmlns="http://www.w3.org/2000/svg">
<g clip-path="url(#clip0_1_5795)">
<path d="M365.854 135.548H347.384C346.442 135.547 345.539 135.173 344.874 134.508C344.208 133.843 343.833 132.941 343.832 132V113.548C343.833 112.608 344.208 111.706 344.874 111.04C345.539 110.375 346.442 110.001 347.384 110H365.854C366.796 110.001 367.699 110.375 368.365 111.04C369.031 111.706 369.405 112.608 369.406 113.548V132C369.405 132.941 369.031 133.843 368.365 134.508C367.699 135.173 366.796 135.547 365.854 135.548ZM347.384 111.419C346.819 111.42 346.277 111.644 345.878 112.044C345.478 112.443 345.253 112.984 345.253 113.548V132C345.253 132.564 345.478 133.106 345.878 133.505C346.277 133.904 346.819 134.128 347.384 134.129H365.854C366.419 134.128 366.961 133.904 367.361 133.505C367.76 133.106 367.985 132.564 367.986 132V113.548C367.985 112.984 367.76 112.443 367.361 112.044C366.961 111.644 366.419 111.42 365.854 111.419H347.384Z" fill="#E6E6E6"/>
<path d="M150.604 25.5484H132.134C131.192 25.5473 130.289 25.1731 129.624 24.5079C128.958 23.8427 128.583 22.9408 128.582 22V3.54839C128.583 2.60763 128.958 1.70571 129.624 1.04049C130.289 0.375268 131.192 0.00107626 132.134 0H150.604C151.546 0.00107626 152.449 0.375268 153.115 1.04049C153.781 1.70571 154.155 2.60763 154.156 3.54839V22C154.155 22.9408 153.781 23.8427 153.115 24.5079C152.449 25.1731 151.546 25.5473 150.604 25.5484ZM132.134 1.41935C131.569 1.41997 131.027 1.64448 130.628 2.04361C130.228 2.44275 130.003 2.98392 130.003 3.54839V22C130.003 22.5645 130.228 23.1056 130.628 23.5048C131.027 23.9039 131.569 24.1284 132.134 24.129H150.604C151.169 24.1284 151.711 23.9039 152.111 23.5048C152.51 23.1056 152.735 22.5645 152.736 22V3.54839C152.735 2.98392 152.51 2.44275 152.111 2.04361C151.711 1.64448 151.169 1.41997 150.604 1.41935H132.134Z" fill="#E6E6E6"/>
<path d="M354.489 126.323H336.019C335.077 126.322 334.174 125.948 333.508 125.282C332.842 124.617 332.468 123.715 332.467 122.774V104.323C332.468 103.382 332.842 102.48 333.508 101.815C334.174 101.15 335.077 100.775 336.019 100.774H354.489C355.431 100.775 356.334 101.15 357 101.815C357.666 102.48 358.04 103.382 358.041 104.323V122.774C358.04 123.715 357.666 124.617 357 125.282C356.334 125.948 355.431 126.322 354.489 126.323ZM336.019 102.194C335.454 102.194 334.912 102.419 334.512 102.818C334.113 103.217 333.888 103.758 333.888 104.323V122.774C333.888 123.339 334.113 123.88 334.512 124.279C334.912 124.678 335.454 124.903 336.019 124.903H354.489C355.054 124.903 355.596 124.678 355.995 124.279C356.395 123.88 356.62 123.339 356.62 122.774V104.323C356.62 103.758 356.395 103.217 355.995 102.818C355.596 102.419 355.054 102.194 354.489 102.194H336.019Z" fill="#E6E6E6"/>
<path d="M33.3895 280.323H14.9192C13.9775 280.322 13.0746 279.948 12.4087 279.282C11.7428 278.617 11.3683 277.715 11.3672 276.774V258.323C11.3683 257.382 11.7428 256.48 12.4087 255.815C13.0746 255.15 13.9775 254.775 14.9192 254.774H33.3895C34.3313 254.775 35.2341 255.15 35.9 255.815C36.5659 256.48 36.9405 257.382 36.9415 258.323V276.774C36.9405 277.715 36.5659 278.617 35.9 279.282C35.2341 279.948 34.3313 280.322 33.3895 280.323ZM14.9192 256.194C14.3541 256.194 13.8124 256.419 13.4129 256.818C13.0133 257.217 12.7886 257.758 12.788 258.323V276.774C12.7886 277.339 13.0133 277.88 13.4129 278.279C13.8124 278.678 14.3541 278.903 14.9192 278.903H33.3895C33.9546 278.903 34.4963 278.678 34.8958 278.279C35.2954 277.88 35.5201 277.339 35.5207 276.774V258.323C35.5201 257.758 35.2954 257.217 34.8958 256.818C34.4963 256.419 33.9546 256.194 33.3895 256.194H14.9192Z" fill="#E6E6E6"/>
<path d="M22.0224 271.097H3.55199C2.61028 271.096 1.70744 270.722 1.04154 270.057C0.37565 269.392 0.00107736 268.49 0 267.549V249.097C0.00107736 248.156 0.37565 247.255 1.04154 246.589C1.70744 245.924 2.61028 245.55 3.55199 245.549H22.0224C22.9641 245.55 23.8669 245.924 24.5328 246.589C25.1987 247.255 25.5733 248.156 25.5744 249.097V267.549C25.5733 268.49 25.1987 269.392 24.5328 270.057C23.8669 270.722 22.9641 271.096 22.0224 271.097ZM3.55199 246.968C2.98695 246.969 2.44523 247.193 2.04569 247.592C1.64615 247.992 1.42141 248.533 1.4208 249.097V267.549C1.42141 268.113 1.64615 268.654 2.04569 269.054C2.44523 269.453 2.98695 269.677 3.55199 269.678H22.0224C22.5874 269.677 23.1291 269.453 23.5287 269.054C23.9282 268.654 24.1529 268.113 24.1536 267.549V249.097C24.1529 248.533 23.9282 247.992 23.5287 247.592C23.1291 247.193 22.5874 246.969 22.0224 246.968H3.55199Z" fill="#E6E6E6"/>
<path d="M65.6609 61.0593H236.594C244.842 61.0593 252.845 63.8628 259.287 69.0089C265.729 74.1551 270.227 81.3376 272.041 89.3759L358.41 472.082C359.352 476.256 359.369 480.586 358.459 484.767C357.549 488.949 355.734 492.88 353.142 496.287C350.55 499.694 347.244 502.493 343.454 504.488C339.665 506.483 335.484 507.626 331.206 507.837L155.486 516.486C146.077 516.949 136.82 513.976 129.444 508.122C122.067 502.269 117.075 493.934 115.398 484.673L66.4042 214.096L62.7592 215.136L53.3847 163.851L57.1367 162.914L43.4608 87.3865C42.875 84.1515 43.0109 80.8273 43.8586 77.6507C44.7064 74.4742 46.2452 71.5236 48.3654 69.0093C50.4855 66.495 53.1348 64.4789 56.1244 63.1047C59.1139 61.7306 62.3702 61.0322 65.6609 61.0593Z" fill="#3F3D56"/>
<path d="M214.093 69.3096H234.046C239.776 69.3096 245.333 71.2673 249.796 74.8578C254.259 78.4482 257.359 83.4554 258.58 89.0482L341.482 468.632C341.96 470.817 341.959 473.08 341.481 475.265C341.003 477.45 340.058 479.506 338.711 481.294C337.365 483.081 335.648 484.556 333.678 485.62C331.708 486.683 329.532 487.31 327.298 487.456L152.146 498.924C147.204 499.247 142.317 497.742 138.416 494.695C134.515 491.648 131.873 487.273 130.995 482.404L60.2541 90.0678C59.7963 87.5284 59.9019 84.9196 60.5635 82.4255C61.2251 79.9313 62.4266 77.6126 64.0832 75.633C65.7398 73.6534 67.8111 72.0611 70.1509 70.9685C72.4908 69.8759 75.0422 69.3096 77.625 69.3096H96.5536C98.3856 69.3096 100.167 69.9129 101.621 71.0262C103.075 72.1395 104.121 73.7005 104.597 75.4678C105.018 77.0279 105.941 78.4061 107.225 79.3889C108.509 80.3717 110.081 80.9044 111.698 80.9044H201.559C204.726 80.9044 207.776 79.7101 210.1 77.5605C212.424 75.4108 213.85 72.4641 214.093 69.3096Z" fill="white"/>
<path d="M74.5475 137.403C74.2011 135.556 75.6175 133.85 77.496 133.85H261.489C262.895 133.85 264.112 134.826 264.417 136.199L283.342 221.385C283.754 223.237 282.365 225.001 280.469 225.036L94.177 228.47C92.7128 228.497 91.4431 227.463 91.1731 226.023L74.5475 137.403Z" fill="#235DCF" fill-opacity="0.12"/>
<path d="M254.322 306.406H299.057L300.478 314.961H255.743L254.322 306.406Z" fill="#235DCF"/>
<path d="M290.72 262.763L100.998 266.776L101.017 267.668L290.739 263.655L290.72 262.763Z" fill="#2F2E41"/>
<path d="M296.522 289.074L103.229 293.533L103.249 294.425L296.543 289.966L296.522 289.074Z" fill="#2F2E41"/>
<path d="M272.793 397.954H317.527L318.948 406.509H274.214L272.793 397.954Z" fill="#235DCF"/>
<path d="M309.191 354.311L119.469 358.324L119.488 359.216L309.21 355.203L309.191 354.311Z" fill="#2F2E41"/>
<path d="M314.993 380.623L121.699 385.082L121.72 385.974L315.013 381.514L314.993 380.623Z" fill="#2F2E41"/>
<path d="M437.294 518.921L428.829 518.92L424.803 486.306L437.295 486.306L437.294 518.921Z" fill="#A0616A"/>
<path d="M439.451 527.118L412.158 527.117V526.772C412.158 523.958 413.278 521.259 415.27 519.269C417.262 517.278 419.964 516.16 422.781 516.16L439.451 516.161L439.451 527.118Z" fill="#2F2E41"/>
<path d="M542.443 513.384L534.205 515.323L522.801 484.498L534.961 481.638L542.443 513.384Z" fill="#A0616A"/>
<path d="M546.426 520.869L519.86 527.118L519.781 526.782C519.135 524.043 519.605 521.159 521.088 518.766C522.57 516.373 524.943 514.665 527.686 514.02L543.912 510.203L546.426 520.869Z" fill="#2F2E41"/>
<path d="M435.562 381.356C435.578 379.657 436.082 339.545 447.088 324.379L447.251 324.155L485.607 329.441L484.749 337.86C486.436 339.499 499.707 353.352 503.539 386.156L544.25 495.386L525.324 497.105L469.298 377.867L439.649 507.479H420.887L435.562 381.356Z" fill="#2F2E41"/>
<path d="M442.596 325.859L446.345 306.195C445.611 305.251 442.359 300.719 443.083 295.405C443.555 291.939 445.626 288.9 449.241 286.369L458.959 263.716L459.09 263.639C459.744 263.254 475.218 254.315 483.653 262.748C483.864 262.912 504.634 279.382 496.293 301.6L485.997 332.461L442.596 325.859Z" fill="#CCCCCC"/>
<path d="M429.551 352.463C430.562 352.348 431.535 352.012 432.402 351.48C433.27 350.948 434.01 350.233 434.57 349.384C435.131 348.536 435.498 347.575 435.647 346.569C435.795 345.564 435.721 344.538 435.43 343.564L455.499 329.119L443.485 324.554L426.269 338.971C424.663 339.568 423.333 340.733 422.53 342.245C421.726 343.757 421.506 345.51 421.911 347.173C422.315 348.836 423.317 350.293 424.725 351.268C426.133 352.243 427.85 352.668 429.551 352.463Z" fill="#A0616A"/>
<path d="M433.24 329.095L463.88 304.98L454.771 273.89C454.342 272.418 454.22 270.873 454.414 269.352C454.609 267.831 455.114 266.366 455.9 265.049C456.627 263.807 457.606 262.731 458.774 261.889C459.941 261.047 461.272 260.457 462.681 260.159C467.927 259.05 472.688 261.984 476.83 268.881L476.862 268.943C477.547 270.617 493.509 310.034 481.321 318.464C469.399 326.709 441.753 338.712 441.475 338.833L441.15 338.973L433.24 329.095Z" fill="#CCCCCC"/>
<path d="M473.961 254.549C484.212 254.549 492.523 246.248 492.523 236.007C492.523 225.766 484.212 217.465 473.961 217.465C463.71 217.465 455.4 225.766 455.4 236.007C455.4 246.248 463.71 254.549 473.961 254.549Z" fill="#A0616A"/>
<path d="M503.061 229.389C512.13 229.389 519.481 222.044 519.481 212.985C519.481 203.925 512.13 196.581 503.061 196.581C493.992 196.581 486.641 203.925 486.641 212.985C486.641 222.044 493.992 229.389 503.061 229.389Z" fill="#2F2E41"/>
<path d="M517.225 226.568C515.099 228.102 512.637 229.106 510.044 229.495C507.451 229.884 504.802 229.647 502.319 228.804C499.836 227.96 497.592 226.535 495.773 224.648C493.955 222.76 492.616 220.465 491.867 217.955C492.15 220.205 492.898 222.371 494.061 224.318C495.225 226.265 496.78 227.95 498.629 229.266C500.477 230.583 502.579 231.502 504.801 231.966C507.023 232.429 509.317 232.428 511.539 231.962C513.76 231.495 515.86 230.573 517.707 229.255C519.554 227.937 521.108 226.25 522.269 224.302C523.431 222.353 524.175 220.186 524.456 217.935C524.736 215.685 524.547 213.401 523.899 211.228C524.267 214.148 523.841 217.113 522.667 219.812C521.493 222.511 519.613 224.845 517.225 226.568Z" fill="#2F2E41"/>
<path d="M452.422 226.586C455.288 221.459 456.385 219.317 460.081 216.2C463.35 213.443 467.37 212.633 470.613 215.246C474.449 213.59 478.718 213.214 482.784 214.175C486.851 215.136 490.499 217.381 493.186 220.578C495.874 223.775 497.458 227.752 497.702 231.92C497.946 236.087 496.839 240.222 494.543 243.711C492.248 247.199 488.887 249.855 484.961 251.283C481.034 252.712 476.751 252.837 472.747 251.64C468.744 250.443 465.234 247.988 462.738 244.639C460.243 241.291 458.895 237.228 458.896 233.053C458.899 232.32 458.943 231.588 459.028 230.859C456.209 230.464 455.241 226.981 452.422 226.586Z" fill="#2F2E41"/>
<path d="M622.29 528H351.628C351.44 528 351.259 527.926 351.126 527.793C350.993 527.659 350.918 527.479 350.918 527.291C350.918 527.103 350.993 526.922 351.126 526.789C351.259 526.656 351.44 526.581 351.628 526.581H622.29C622.479 526.581 622.659 526.656 622.793 526.789C622.926 526.922 623.001 527.103 623.001 527.291C623.001 527.479 622.926 527.659 622.793 527.793C622.659 527.926 622.479 528 622.29 528Z" fill="#3F3D56"/>
<path d="M164 168.842V198.501H170.291V175.283H188.865V198.501H195.157V168.842H164Z" fill="#2056BE"/>
<path d="M174.635 181.574V179.477H184.521V181.574H174.635Z" fill="#2056BE"/>
<path d="M174.785 187.866V185.769H184.671V187.866H174.785Z" fill="#2056BE"/>
<path d="M174.785 194.157V192.06H184.671V194.157H174.785Z" fill="#2056BE"/>
<path d="M166.695 167.344V165.996H198.002V195.805H196.504V167.344H166.695Z" fill="#FF626C"/>
<path d="M169.691 164.498V163.15L200.848 163V192.958H199.35V164.498H169.691Z" fill="#FF626C"/>
</g>
<defs>
<clipPath id="clip0_1_5795">
<rect width="623" height="528" fill="white"/>
</clipPath>
</defs>
</svg>
