<svg width="623" height="528" viewBox="0 0 623 528" fill="none" xmlns="http://www.w3.org/2000/svg">
<g clip-path="url(#clip0_0_926)">
<path d="M365.855 135.548H347.385C346.443 135.547 345.54 135.173 344.875 134.508C344.209 133.843 343.834 132.941 343.833 132V113.548C343.834 112.608 344.209 111.706 344.875 111.04C345.54 110.375 346.443 110.001 347.385 110H365.855C366.797 110.001 367.7 110.375 368.366 111.04C369.032 111.706 369.406 112.608 369.407 113.548V132C369.406 132.941 369.032 133.843 368.366 134.508C367.7 135.173 366.797 135.547 365.855 135.548ZM347.385 111.419C346.82 111.42 346.278 111.644 345.879 112.044C345.479 112.443 345.254 112.984 345.254 113.548V132C345.254 132.564 345.479 133.106 345.879 133.505C346.278 133.904 346.82 134.128 347.385 134.129H365.855C366.42 134.128 366.962 133.904 367.362 133.505C367.761 133.106 367.986 132.564 367.987 132V113.548C367.986 112.984 367.761 112.443 367.362 112.044C366.962 111.644 366.42 111.42 365.855 111.419H347.385Z" fill="#E6E6E6"/>
<path d="M150.605 25.5484H132.134C131.192 25.5473 130.29 25.1731 129.624 24.5079C128.958 23.8427 128.583 22.9408 128.582 22V3.54839C128.583 2.60763 128.958 1.70571 129.624 1.04049C130.29 0.375268 131.192 0.00107626 132.134 0H150.605C151.546 0.00107626 152.449 0.375268 153.115 1.04049C153.781 1.70571 154.155 2.60763 154.157 3.54839V22C154.155 22.9408 153.781 23.8427 153.115 24.5079C152.449 25.1731 151.546 25.5473 150.605 25.5484ZM132.134 1.41935C131.569 1.41997 131.027 1.64448 130.628 2.04361C130.228 2.44275 130.004 2.98392 130.003 3.54839V22C130.004 22.5645 130.228 23.1056 130.628 23.5048C131.027 23.9039 131.569 24.1284 132.134 24.129H150.605C151.17 24.1284 151.711 23.9039 152.111 23.5048C152.51 23.1056 152.735 22.5645 152.736 22V3.54839C152.735 2.98392 152.51 2.44275 152.111 2.04361C151.711 1.64448 151.17 1.41997 150.605 1.41935H132.134Z" fill="#E6E6E6"/>
<path d="M354.489 126.323H336.019C335.077 126.322 334.174 125.948 333.508 125.282C332.842 124.617 332.468 123.715 332.467 122.774V104.323C332.468 103.382 332.842 102.48 333.508 101.815C334.174 101.15 335.077 100.775 336.019 100.774H354.489C355.431 100.775 356.333 101.15 356.999 101.815C357.665 102.48 358.04 103.382 358.041 104.323V122.774C358.04 123.715 357.665 124.617 356.999 125.282C356.333 125.948 355.431 126.322 354.489 126.323ZM336.019 102.194C335.454 102.194 334.912 102.419 334.512 102.818C334.113 103.217 333.888 103.758 333.887 104.323V122.774C333.888 123.339 334.113 123.88 334.512 124.279C334.912 124.678 335.454 124.903 336.019 124.903H354.489C355.054 124.903 355.596 124.678 355.995 124.279C356.395 123.88 356.619 123.339 356.62 122.774V104.323C356.619 103.758 356.395 103.217 355.995 102.818C355.596 102.419 355.054 102.194 354.489 102.194H336.019Z" fill="#E6E6E6"/>
<path d="M33.3887 280.323H14.9183C13.9766 280.322 13.0738 279.948 12.4079 279.282C11.742 278.617 11.3674 277.715 11.3663 276.774V258.323C11.3674 257.382 11.742 256.48 12.4079 255.815C13.0738 255.15 13.9766 254.775 14.9183 254.774H33.3887C34.3304 254.775 35.2332 255.15 35.8991 255.815C36.565 256.48 36.9396 257.382 36.9407 258.323V276.774C36.9396 277.715 36.565 278.617 35.8991 279.282C35.2332 279.948 34.3304 280.322 33.3887 280.323ZM14.9183 256.194C14.3533 256.194 13.8116 256.419 13.412 256.818C13.0125 257.217 12.7877 257.758 12.7871 258.323V276.774C12.7877 277.339 13.0125 277.88 13.412 278.279C13.8116 278.678 14.3533 278.903 14.9183 278.903H33.3887C33.9537 278.903 34.4954 278.678 34.895 278.279C35.2945 277.88 35.5193 277.339 35.5199 276.774V258.323C35.5193 257.758 35.2945 257.217 34.895 256.818C34.4954 256.419 33.9537 256.194 33.3887 256.194H14.9183Z" fill="#E6E6E6"/>
<path d="M22.0224 271.097H3.55199C2.61028 271.096 1.70744 270.721 1.04154 270.056C0.37565 269.391 0.00107736 268.489 0 267.548V249.097C0.00107736 248.156 0.37565 247.254 1.04154 246.589C1.70744 245.924 2.61028 245.549 3.55199 245.548H22.0224C22.9641 245.549 23.8669 245.924 24.5328 246.589C25.1987 247.254 25.5733 248.156 25.5744 249.097V267.548C25.5733 268.489 25.1987 269.391 24.5328 270.056C23.8669 270.721 22.9641 271.096 22.0224 271.097ZM3.55199 246.968C2.98695 246.968 2.44523 247.193 2.04569 247.592C1.64615 247.991 1.42141 248.532 1.4208 249.097V267.548C1.42141 268.113 1.64615 268.654 2.04569 269.053C2.44523 269.452 2.98695 269.677 3.55199 269.677H22.0224C22.5874 269.677 23.1291 269.452 23.5287 269.053C23.9282 268.654 24.1529 268.113 24.1536 267.548V249.097C24.1529 248.532 23.9282 247.991 23.5287 247.592C23.1291 247.193 22.5874 246.968 22.0224 246.968H3.55199Z" fill="#E6E6E6"/>
<path d="M65.6617 61.0598H236.595C244.843 61.0598 252.846 63.8633 259.288 69.0094C265.73 74.1556 270.228 81.3381 272.042 89.3764L358.411 472.082C359.353 476.257 359.37 480.586 358.46 484.768C357.55 488.949 355.735 492.881 353.143 496.288C350.551 499.694 347.244 502.493 343.455 504.489C339.666 506.484 335.485 507.627 331.207 507.837L155.487 516.486C146.078 516.949 136.821 513.977 129.445 508.123C122.068 502.269 117.076 493.934 115.399 484.673L66.405 214.096L62.7601 215.136L53.3856 163.852L57.1375 162.915L43.4616 87.387C42.8759 84.152 43.0117 80.8278 43.8595 77.6512C44.7073 74.4747 46.2461 71.5241 48.3662 69.0098C50.4864 66.4955 53.1357 64.4794 56.1252 63.1052C59.1148 61.7311 62.371 61.0326 65.6617 61.0598Z" fill="#3F3D56"/>
<path d="M214.092 69.3096H234.045C239.775 69.3096 245.332 71.2673 249.795 74.8578C254.258 78.4482 257.358 83.4554 258.579 89.0482L341.481 468.632C341.959 470.817 341.958 473.08 341.48 475.265C341.002 477.45 340.057 479.506 338.711 481.294C337.364 483.081 335.647 484.556 333.677 485.62C331.707 486.683 329.531 487.31 327.297 487.456L152.145 498.924C147.204 499.247 142.316 497.742 138.415 494.695C134.514 491.648 131.872 487.273 130.994 482.404L60.2532 90.0678C59.7953 87.5284 59.9009 84.9196 60.5625 82.4255C61.2241 79.9313 62.4256 77.6126 64.0822 75.633C65.7388 73.6534 67.8101 72.0611 70.15 70.9685C72.4898 69.8759 75.0412 69.3096 77.624 69.3096H96.5526C98.3846 69.3096 100.166 69.9129 101.62 71.0262C103.074 72.1395 104.12 73.7005 104.596 75.4678C105.017 77.0279 105.94 78.4061 107.224 79.3889C108.508 80.3717 110.08 80.9044 111.697 80.9044H201.558C204.725 80.9044 207.775 79.7101 210.099 77.5605C212.423 75.4108 213.849 72.4641 214.092 69.3096Z" fill="white"/>
<path d="M73.8815 133.85H263.896L284.139 224.968L91.6414 228.516L73.8815 133.85Z" fill="#235DCF"/>
<path d="M254.323 306.406H299.057L300.478 314.961H255.744L254.323 306.406Z" fill="#235DCF"/>
<path d="M290.72 262.762L100.998 266.776L101.016 267.668L290.739 263.654L290.72 262.762Z" fill="#2F2E41"/>
<path d="M296.522 289.074L103.229 293.533L103.249 294.425L296.543 289.966L296.522 289.074Z" fill="#2F2E41"/>
<path d="M272.793 397.955H317.528L318.948 406.51H274.214L272.793 397.955Z" fill="#235DCF"/>
<path d="M309.19 354.311L119.468 358.324L119.487 359.216L309.209 355.203L309.19 354.311Z" fill="#2F2E41"/>
<path d="M314.993 380.622L121.699 385.082L121.72 385.973L315.013 381.514L314.993 380.622Z" fill="#2F2E41"/>
<path d="M437.293 518.921L428.829 518.92L424.802 486.306L437.294 486.306L437.293 518.921Z" fill="#A0616A"/>
<path d="M439.451 527.118L412.159 527.117V526.772C412.159 523.957 413.278 521.258 415.27 519.268C417.263 517.278 419.965 516.16 422.782 516.16L439.452 516.16L439.451 527.118Z" fill="#2F2E41"/>
<path d="M542.443 513.384L534.205 515.323L522.801 484.498L534.961 481.638L542.443 513.384Z" fill="#A0616A"/>
<path d="M546.426 520.868L519.86 527.118L519.78 526.782C519.135 524.042 519.605 521.159 521.087 518.765C522.57 516.372 524.943 514.665 527.685 514.02L543.912 510.203L546.426 520.868Z" fill="#2F2E41"/>
<path d="M435.563 381.357C435.579 379.657 436.083 339.546 447.089 324.38L447.252 324.156L485.608 329.442L484.75 337.861C486.437 339.5 499.708 353.353 503.54 386.157L544.251 495.387L525.325 497.105L469.299 377.867L439.65 507.479H420.888L435.563 381.357Z" fill="#2F2E41"/>
<path d="M442.596 325.859L446.346 306.195C445.612 305.251 442.36 300.719 443.083 295.405C443.556 291.939 445.627 288.9 449.241 286.369L458.959 263.716L459.09 263.639C459.745 263.254 475.218 254.315 483.654 262.748C483.865 262.912 504.634 279.382 496.294 301.6L485.997 332.461L442.596 325.859Z" fill="#CCCCCC"/>
<path d="M429.552 352.463C430.563 352.347 431.536 352.012 432.403 351.48C433.27 350.948 434.01 350.232 434.571 349.384C435.131 348.536 435.499 347.575 435.647 346.569C435.796 345.563 435.722 344.537 435.43 343.563L455.5 329.118L443.485 324.553L426.269 338.97C424.664 339.568 423.333 340.733 422.53 342.244C421.727 343.756 421.507 345.51 421.911 347.173C422.316 348.836 423.317 350.293 424.725 351.268C426.133 352.243 427.851 352.668 429.552 352.463Z" fill="#A0616A"/>
<path d="M433.24 329.095L463.88 304.98L454.771 273.89C454.341 272.418 454.22 270.873 454.414 269.352C454.608 267.831 455.114 266.366 455.899 265.049C456.627 263.807 457.606 262.731 458.773 261.889C459.941 261.047 461.272 260.457 462.681 260.159C467.926 259.05 472.688 261.984 476.83 268.881L476.862 268.943C477.547 270.617 493.509 310.034 481.321 318.464C469.399 326.709 441.752 338.712 441.474 338.833L441.15 338.973L433.24 329.095Z" fill="#CCCCCC"/>
<path d="M473.961 254.55C484.212 254.55 492.523 246.248 492.523 236.008C492.523 225.767 484.212 217.465 473.961 217.465C463.71 217.465 455.4 225.767 455.4 236.008C455.4 246.248 463.71 254.55 473.961 254.55Z" fill="#A0616A"/>
<path d="M503.061 229.388C512.13 229.388 519.481 222.044 519.481 212.984C519.481 203.925 512.13 196.581 503.061 196.581C493.992 196.581 486.64 203.925 486.64 212.984C486.64 222.044 493.992 229.388 503.061 229.388Z" fill="#2F2E41"/>
<path d="M517.224 226.568C515.099 228.102 512.637 229.106 510.043 229.495C507.45 229.884 504.801 229.647 502.319 228.804C499.836 227.96 497.591 226.535 495.773 224.648C493.955 222.76 492.615 220.465 491.867 217.955C492.15 220.205 492.897 222.371 494.061 224.318C495.225 226.265 496.78 227.95 498.628 229.266C500.477 230.583 502.578 231.502 504.8 231.966C507.022 232.429 509.317 232.428 511.538 231.962C513.759 231.495 515.86 230.573 517.707 229.255C519.554 227.937 521.107 226.25 522.269 224.302C523.43 222.353 524.175 220.186 524.455 217.935C524.736 215.685 524.546 213.401 523.899 211.228C524.266 214.148 523.841 217.113 522.666 219.812C521.492 222.511 519.612 224.845 517.224 226.568Z" fill="#2F2E41"/>
<path d="M452.422 226.586C455.289 221.459 456.385 219.317 460.082 216.2C463.35 213.443 467.37 212.633 470.613 215.246C474.449 213.59 478.718 213.214 482.784 214.175C486.851 215.136 490.499 217.381 493.187 220.578C495.874 223.775 497.458 227.752 497.702 231.92C497.946 236.087 496.839 240.222 494.543 243.711C492.248 247.199 488.887 249.855 484.961 251.283C481.034 252.712 476.751 252.837 472.748 251.64C468.744 250.443 465.234 247.988 462.739 244.639C460.243 241.291 458.895 237.228 458.896 233.053C458.899 232.32 458.943 231.588 459.028 230.859C456.209 230.464 455.241 226.981 452.422 226.586Z" fill="#2F2E41"/>
<path d="M622.29 528H351.628C351.439 528 351.259 527.925 351.125 527.792C350.992 527.659 350.917 527.478 350.917 527.29C350.917 527.102 350.992 526.922 351.125 526.788C351.259 526.655 351.439 526.581 351.628 526.581H622.29C622.478 526.581 622.659 526.655 622.792 526.788C622.925 526.922 623 527.102 623 527.29C623 527.478 622.925 527.659 622.792 527.792C622.659 527.925 622.478 528 622.29 528Z" fill="#3F3D56"/>
</g>
<defs>
<clipPath id="clip0_0_926">
<rect width="623" height="528" fill="white"/>
</clipPath>
</defs>
</svg>
