<svg width="623" height="528" viewBox="0 0 623 528" fill="none" xmlns="http://www.w3.org/2000/svg">
<g clip-path="url(#clip0_1052_1933)">
<path d="M365.854 135.548H347.384C346.442 135.547 345.539 135.173 344.874 134.508C344.208 133.843 343.833 132.941 343.832 132V113.548C343.833 112.608 344.208 111.706 344.874 111.04C345.539 110.375 346.442 110.001 347.384 110H365.854C366.796 110.001 367.699 110.375 368.365 111.04C369.031 111.706 369.405 112.608 369.406 113.548V132C369.405 132.941 369.031 133.843 368.365 134.508C367.699 135.173 366.796 135.547 365.854 135.548ZM347.384 111.419C346.819 111.42 346.277 111.644 345.878 112.044C345.478 112.443 345.253 112.984 345.253 113.548V132C345.253 132.564 345.478 133.106 345.878 133.505C346.277 133.904 346.819 134.128 347.384 134.129H365.854C366.419 134.128 366.961 133.904 367.361 133.505C367.76 133.106 367.985 132.564 367.986 132V113.548C367.985 112.984 367.76 112.443 367.361 112.044C366.961 111.644 366.419 111.42 365.854 111.419H347.384Z" fill="#E6E6E6"/>
<path d="M150.604 25.5484H132.134C131.192 25.5473 130.289 25.1731 129.624 24.5079C128.958 23.8427 128.583 22.9408 128.582 22V3.54839C128.583 2.60763 128.958 1.70571 129.624 1.04049C130.289 0.375268 131.192 0.00107626 132.134 0H150.604C151.546 0.00107626 152.449 0.375268 153.115 1.04049C153.781 1.70571 154.155 2.60763 154.156 3.54839V22C154.155 22.9408 153.781 23.8427 153.115 24.5079C152.449 25.1731 151.546 25.5473 150.604 25.5484ZM132.134 1.41935C131.569 1.41997 131.027 1.64448 130.628 2.04361C130.228 2.44275 130.003 2.98392 130.003 3.54839V22C130.003 22.5645 130.228 23.1056 130.628 23.5048C131.027 23.9039 131.569 24.1284 132.134 24.129H150.604C151.169 24.1284 151.711 23.9039 152.111 23.5048C152.51 23.1056 152.735 22.5645 152.736 22V3.54839C152.735 2.98392 152.51 2.44275 152.111 2.04361C151.711 1.64448 151.169 1.41997 150.604 1.41935H132.134Z" fill="#E6E6E6"/>
<path d="M354.489 126.322H336.019C335.077 126.321 334.174 125.947 333.508 125.281C332.842 124.616 332.468 123.714 332.467 122.773V104.322C332.468 103.381 332.842 102.479 333.508 101.814C334.174 101.149 335.077 100.775 336.019 100.773H354.489C355.431 100.775 356.334 101.149 357 101.814C357.666 102.479 358.04 103.381 358.041 104.322V122.773C358.04 123.714 357.666 124.616 357 125.281C356.334 125.947 355.431 126.321 354.489 126.322ZM336.019 102.193C335.454 102.193 334.912 102.418 334.512 102.817C334.113 103.216 333.888 103.757 333.888 104.322V122.773C333.888 123.338 334.113 123.879 334.512 124.278C334.912 124.677 335.454 124.902 336.019 124.902H354.489C355.054 124.902 355.596 124.677 355.995 124.278C356.395 123.879 356.62 123.338 356.62 122.773V104.322C356.62 103.757 356.395 103.216 355.995 102.817C355.596 102.418 355.054 102.193 354.489 102.193H336.019Z" fill="#E6E6E6"/>
<path d="M33.3895 280.322H14.9192C13.9775 280.321 13.0746 279.947 12.4087 279.281C11.7428 278.616 11.3683 277.714 11.3672 276.773V258.322C11.3683 257.381 11.7428 256.479 12.4087 255.814C13.0746 255.149 13.9775 254.775 14.9192 254.773H33.3895C34.3313 254.775 35.2341 255.149 35.9 255.814C36.5659 256.479 36.9405 257.381 36.9415 258.322V276.773C36.9405 277.714 36.5659 278.616 35.9 279.281C35.2341 279.947 34.3313 280.321 33.3895 280.322ZM14.9192 256.193C14.3541 256.193 13.8124 256.418 13.4129 256.817C13.0133 257.216 12.7886 257.757 12.788 258.322V276.773C12.7886 277.338 13.0133 277.879 13.4129 278.278C13.8124 278.677 14.3541 278.902 14.9192 278.902H33.3895C33.9546 278.902 34.4963 278.677 34.8958 278.278C35.2954 277.879 35.5201 277.338 35.5207 276.773V258.322C35.5201 257.757 35.2954 257.216 34.8958 256.817C34.4963 256.418 33.9546 256.193 33.3895 256.193H14.9192Z" fill="#E6E6E6"/>
<path d="M22.0224 271.095H3.55199C2.61028 271.094 1.70744 270.72 1.04154 270.055C0.37565 269.39 0.00107736 268.488 0 267.547V249.095C0.00107736 248.155 0.37565 247.253 1.04154 246.587C1.70744 245.922 2.61028 245.548 3.55199 245.547H22.0224C22.9641 245.548 23.8669 245.922 24.5328 246.587C25.1987 247.253 25.5733 248.155 25.5744 249.095V267.547C25.5733 268.488 25.1987 269.39 24.5328 270.055C23.8669 270.72 22.9641 271.094 22.0224 271.095ZM3.55199 246.966C2.98695 246.967 2.44523 247.191 2.04569 247.59C1.64615 247.99 1.42141 248.531 1.4208 249.095V267.547C1.42141 268.111 1.64615 268.653 2.04569 269.052C2.44523 269.451 2.98695 269.675 3.55199 269.676H22.0224C22.5874 269.675 23.1291 269.451 23.5287 269.052C23.9282 268.653 24.1529 268.111 24.1536 267.547V249.095C24.1529 248.531 23.9282 247.99 23.5287 247.59C23.1291 247.191 22.5874 246.967 22.0224 246.966H3.55199Z" fill="#E6E6E6"/>
<path d="M65.6609 61.0593H236.594C244.842 61.0593 252.845 63.8628 259.287 69.0089C265.729 74.1551 270.227 81.3376 272.041 89.3759L358.41 472.082C359.352 476.256 359.369 480.586 358.459 484.767C357.549 488.949 355.734 492.88 353.142 496.287C350.55 499.694 347.244 502.493 343.454 504.488C339.665 506.483 335.484 507.626 331.206 507.837L155.486 516.486C146.077 516.949 136.82 513.976 129.444 508.122C122.067 502.269 117.075 493.934 115.398 484.673L66.4042 214.096L62.7592 215.136L53.3847 163.851L57.1367 162.914L43.4608 87.3865C42.875 84.1515 43.0109 80.8273 43.8586 77.6507C44.7064 74.4742 46.2452 71.5236 48.3654 69.0093C50.4855 66.495 53.1348 64.4789 56.1244 63.1047C59.1139 61.7306 62.3702 61.0322 65.6609 61.0593Z" fill="#3F3D56"/>
<path d="M214.093 69.3086H234.046C239.776 69.3086 245.333 71.2663 249.796 74.8568C254.259 78.4472 257.359 83.4545 258.58 89.0472L341.482 468.631C341.96 470.816 341.959 473.079 341.481 475.264C341.003 477.449 340.058 479.505 338.711 481.293C337.365 483.08 335.648 484.555 333.678 485.619C331.708 486.682 329.532 487.309 327.298 487.455L152.146 498.923C147.204 499.246 142.317 497.741 138.416 494.694C134.515 491.647 131.873 487.272 130.995 482.403L60.2541 90.0668C59.7963 87.5275 59.9019 84.9186 60.5635 82.4245C61.2251 79.9304 62.4266 77.6117 64.0832 75.632C65.7398 73.6524 67.8111 72.0601 70.1509 70.9675C72.4908 69.8749 75.0422 69.3086 77.625 69.3086H96.5536C98.3856 69.3086 100.167 69.912 101.621 71.0252C103.075 72.1385 104.121 73.6996 104.597 75.4668C105.018 77.027 105.941 78.4051 107.225 79.3879C108.509 80.3707 110.081 80.9034 111.698 80.9034H201.559C204.726 80.9034 207.776 79.7092 210.1 77.5595C212.424 75.4098 213.85 72.4631 214.093 69.3086Z" fill="white"/>
<path d="M74.5475 137.401C74.2011 135.554 75.6175 133.848 77.496 133.848H261.489C262.895 133.848 264.112 134.824 264.417 136.197L283.342 221.384C283.754 223.235 282.365 224.999 280.469 225.034L94.177 228.468C92.7128 228.495 91.4431 227.461 91.1731 226.021L74.5475 137.401Z" fill="#235DCF" fill-opacity="0.12"/>
<path d="M254.322 306.406H299.057L300.478 314.961H255.743L254.322 306.406Z" fill="#235DCF"/>
<path d="M290.72 262.764L100.998 266.777L101.017 267.669L290.739 263.656L290.72 262.764Z" fill="#2F2E41"/>
<path d="M296.522 289.072L103.229 293.531L103.249 294.423L296.543 289.964L296.522 289.072Z" fill="#2F2E41"/>
<path d="M272.793 397.953H317.527L318.948 406.508H274.214L272.793 397.953Z" fill="#235DCF"/>
<path d="M309.191 354.311L119.469 358.324L119.488 359.216L309.21 355.203L309.191 354.311Z" fill="#2F2E41"/>
<path d="M314.993 380.623L121.699 385.082L121.72 385.974L315.013 381.514L314.993 380.623Z" fill="#2F2E41"/>
<path d="M437.294 518.92L428.829 518.919L424.803 486.305L437.295 486.305L437.294 518.92Z" fill="#A0616A"/>
<path d="M439.451 527.118L412.158 527.117V526.772C412.158 523.958 413.278 521.259 415.27 519.269C417.262 517.278 419.964 516.16 422.781 516.16L439.451 516.161L439.451 527.118Z" fill="#2F2E41"/>
<path d="M542.443 513.383L534.205 515.322L522.801 484.497L534.961 481.637L542.443 513.383Z" fill="#A0616A"/>
<path d="M546.426 520.869L519.86 527.118L519.781 526.782C519.135 524.043 519.605 521.159 521.088 518.766C522.57 516.373 524.943 514.665 527.686 514.02L543.912 510.203L546.426 520.869Z" fill="#2F2E41"/>
<path d="M435.562 381.357C435.578 379.658 436.082 339.546 447.088 324.38L447.251 324.156L485.607 329.442L484.749 337.861C486.436 339.5 499.707 353.353 503.539 386.157L544.25 495.387L525.324 497.106L469.298 377.868L439.649 507.48H420.887L435.562 381.357Z" fill="#2F2E41"/>
<path d="M442.596 325.86L446.345 306.196C445.611 305.252 442.359 300.72 443.083 295.406C443.555 291.94 445.626 288.901 449.241 286.37L458.959 263.717L459.09 263.64C459.744 263.255 475.218 254.316 483.653 262.749C483.864 262.913 504.634 279.383 496.293 301.601L485.997 332.462L442.596 325.86Z" fill="#CCCCCC"/>
<path d="M429.551 352.464C430.562 352.349 431.535 352.013 432.402 351.481C433.27 350.949 434.01 350.234 434.57 349.385C435.131 348.537 435.498 347.576 435.647 346.57C435.795 345.565 435.721 344.539 435.43 343.565L455.499 329.12L443.485 324.555L426.269 338.972C424.663 339.569 423.333 340.734 422.53 342.246C421.726 343.758 421.506 345.511 421.911 347.174C422.315 348.837 423.317 350.294 424.725 351.269C426.133 352.244 427.85 352.669 429.551 352.464Z" fill="#A0616A"/>
<path d="M433.24 329.094L463.88 304.979L454.771 273.889C454.342 272.417 454.22 270.872 454.414 269.351C454.609 267.83 455.114 266.365 455.9 265.048C456.627 263.806 457.606 262.73 458.774 261.888C459.941 261.046 461.272 260.456 462.681 260.158C467.927 259.049 472.688 261.983 476.83 268.88L476.862 268.942C477.547 270.616 493.509 310.033 481.321 318.463C469.399 326.708 441.753 338.711 441.475 338.832L441.15 338.972L433.24 329.094Z" fill="#CCCCCC"/>
<path d="M473.961 254.549C484.212 254.549 492.523 246.248 492.523 236.007C492.523 225.766 484.212 217.465 473.961 217.465C463.71 217.465 455.4 225.766 455.4 236.007C455.4 246.248 463.71 254.549 473.961 254.549Z" fill="#A0616A"/>
<path d="M503.061 229.389C512.13 229.389 519.481 222.045 519.481 212.986C519.481 203.926 512.13 196.582 503.061 196.582C493.992 196.582 486.641 203.926 486.641 212.986C486.641 222.045 493.992 229.389 503.061 229.389Z" fill="#2F2E41"/>
<path d="M517.225 226.567C515.099 228.101 512.637 229.105 510.044 229.494C507.451 229.883 504.802 229.646 502.319 228.803C499.836 227.959 497.592 226.534 495.773 224.647C493.955 222.759 492.616 220.464 491.867 217.954C492.15 220.204 492.898 222.37 494.061 224.317C495.225 226.264 496.78 227.949 498.629 229.265C500.477 230.582 502.579 231.501 504.801 231.965C507.023 232.428 509.317 232.427 511.539 231.961C513.76 231.494 515.86 230.572 517.707 229.254C519.554 227.936 521.108 226.249 522.269 224.301C523.431 222.352 524.175 220.185 524.456 217.934C524.736 215.684 524.547 213.4 523.899 211.227C524.267 214.147 523.841 217.112 522.667 219.811C521.493 222.51 519.613 224.844 517.225 226.567Z" fill="#2F2E41"/>
<path d="M452.422 226.588C455.288 221.461 456.385 219.319 460.081 216.202C463.35 213.445 467.37 212.635 470.613 215.247C474.449 213.592 478.718 213.216 482.784 214.177C486.851 215.138 490.499 217.383 493.186 220.58C495.874 223.777 497.458 227.754 497.702 231.922C497.946 236.089 496.839 240.224 494.543 243.713C492.248 247.201 488.887 249.857 484.961 251.285C481.034 252.714 476.751 252.839 472.747 251.642C468.744 250.445 465.234 247.99 462.738 244.641C460.243 241.293 458.895 237.23 458.896 233.055C458.899 232.322 458.943 231.589 459.028 230.861C456.209 230.466 455.241 226.983 452.422 226.588Z" fill="#2F2E41"/>
<path d="M622.29 528.001H351.628C351.44 528.001 351.259 527.927 351.126 527.794C350.993 527.66 350.918 527.48 350.918 527.292C350.918 527.103 350.993 526.923 351.126 526.79C351.259 526.657 351.44 526.582 351.628 526.582H622.29C622.479 526.582 622.659 526.657 622.793 526.79C622.926 526.923 623.001 527.103 623.001 527.292C623.001 527.48 622.926 527.66 622.793 527.794C622.659 527.927 622.479 528.001 622.29 528.001Z" fill="#3F3D56"/>
<path d="M154 166.844L159 196.502H168L164 173.285H180.5L185 196.502H193.5L188 166.844H154Z" fill="#2056BE"/>
<path d="M168.635 180.097L168 178L178 178.023L178.521 180.097H168.635Z" fill="#2056BE"/>
<path d="M169.635 185.097L169 183L179 183.023L179.521 185.097H169.635Z" fill="#2056BE"/>
<path d="M170.715 190.097L170 188H179.886L180.215 190.097H170.715Z" fill="#2056BE"/>
<path d="M161.696 165.344L161 163.996H193.002L197.5 193.5H196L191.504 165.344H161.696Z" fill="#FF626C"/>
<path d="M164.691 162.498V161.15L195.848 161L200.5 191.5H199L194.35 162.498H164.691Z" fill="#FF626C"/>
</g>
<defs>
<clipPath id="clip0_1052_1933">
<rect width="623" height="528" fill="white"/>
</clipPath>
</defs>
</svg>
