<svg width="40" height="40" viewBox="0 0 40 40" fill="none" xmlns="http://www.w3.org/2000/svg">
<path d="M16.665 0C7.49924 0 0 7.51264 0 16.7654C0 25.1314 6.09938 32.0751 14.0652 33.33V21.6177H9.83234V16.7654H14.0652V13.0676C14.0652 8.86792 16.5483 6.55892 20.3646 6.55892C22.1811 6.55892 24.0809 6.87682 24.0809 6.87682V11.0096H21.9811C19.9147 11.0096 19.2647 12.298 19.2647 13.6198V16.7654H23.8976L23.1477 21.6177H19.2647V33.33C23.1917 32.7073 26.7676 30.6956 29.3469 27.658C31.9262 24.6204 33.3389 20.757 33.33 16.7654C33.33 7.51264 25.8307 0 16.665 0Z" fill="#235DCF"/>
</svg>
