<svg width="20" height="20" viewBox="0 0 20 20" fill="none" xmlns="http://www.w3.org/2000/svg">
<g clip-path="url(#clip0_1_1948)">
<path d="M19.05 7.94118H1.95C1.69804 7.94118 1.45641 7.83892 1.27825 7.6569C1.10009 7.47488 1 7.228 1 6.97059C1 6.71317 1.10009 6.4663 1.27825 6.28428C1.45641 6.10226 1.69804 6 1.95 6H19.05C19.302 6 19.5436 6.10226 19.7218 6.28428C19.8999 6.4663 20 6.71317 20 6.97059C20 7.228 19.8999 7.47488 19.7218 7.6569C19.5436 7.83892 19.302 7.94118 19.05 7.94118ZM15.8833 12.4706H5.11667C4.86471 12.4706 4.62307 12.3683 4.44492 12.1863C4.26676 12.0043 4.16667 11.7574 4.16667 11.5C4.16667 11.2426 4.26676 10.9957 4.44492 10.8137C4.62307 10.6317 4.86471 10.5294 5.11667 10.5294H15.8833C16.1353 10.5294 16.3769 10.6317 16.5551 10.8137C16.7332 10.9957 16.8333 11.2426 16.8333 11.5C16.8333 11.7574 16.7332 12.0043 16.5551 12.1863C16.3769 12.3683 16.1353 12.4706 15.8833 12.4706ZM12.0833 17H8.91667C8.66471 17 8.42307 16.8977 8.24492 16.7157C8.06676 16.5337 7.96667 16.2868 7.96667 16.0294C7.96667 15.772 8.06676 15.5251 8.24492 15.3431C8.42307 15.1611 8.66471 15.0588 8.91667 15.0588H12.0833C12.3353 15.0588 12.5769 15.1611 12.7551 15.3431C12.9332 15.5251 13.0333 15.772 13.0333 16.0294C13.0333 16.2868 12.9332 16.5337 12.7551 16.7157C12.5769 16.8977 12.3353 17 12.0833 17Z" fill="#235DCF"/>
</g>
<defs>
<clipPath id="clip0_1_1948">
<rect width="20" height="20" fill="white"/>
</clipPath>
</defs>
</svg>
