<svg width="75" height="75" viewBox="0 0 75 75" fill="none" xmlns="http://www.w3.org/2000/svg">
<path d="M66.0112 28.1962C68.0978 34.6065 67.9642 41.5328 65.632 47.8579C63.2999 54.183 58.905 59.5381 53.1565 63.0594C47.4079 66.5807 40.6408 68.063 33.9466 67.2671C27.2524 66.4712 21.0215 63.4436 16.2588 58.6725C11.4962 53.9015 8.47948 47.6652 7.69535 40.9697C6.91123 34.2741 8.40538 27.5096 11.9368 21.7672C15.4682 16.0248 20.831 11.6395 27.1602 9.31839C33.4894 6.99733 40.4159 6.87592 46.8225 8.97374L42.8962 12.9C42.6812 13.115 42.4837 13.3462 42.3037 13.5937C37.1741 12.5584 31.8474 13.2014 27.1114 15.4277C22.3755 17.654 18.4818 21.3453 16.0062 25.9558C13.5305 30.5663 12.6044 35.8512 13.3648 41.0287C14.1252 46.2063 16.5318 51.0017 20.2285 54.7057C23.9252 58.4097 28.7159 60.8256 33.892 61.5962C39.068 62.3668 44.3547 61.4511 48.97 58.9845C53.5854 56.5179 57.2844 52.6315 59.52 47.8999C61.7556 43.1684 62.409 37.8429 61.3837 32.7112C61.6403 32.5292 61.8811 32.326 62.1037 32.1037L66.0112 28.1962ZM55.8675 33.75C56.1175 34.965 56.2425 36.215 56.2425 37.5C56.2414 41.3694 55.0432 45.1437 52.8122 48.3053C50.5812 51.4668 47.4267 53.8606 43.7815 55.1585C40.1362 56.4563 36.1787 56.5946 32.4517 55.5543C28.7247 54.5141 25.4109 52.3462 22.9647 49.3481C20.5185 46.35 19.0598 42.6686 18.7886 38.8087C18.5174 34.9488 19.4471 31.0995 21.4501 27.7888C23.453 24.4781 26.4312 21.8683 29.9762 20.3171C33.5211 18.766 37.4591 18.3496 41.25 19.125V24.9225C38.4512 24.087 35.4537 24.2089 32.732 25.269C30.0103 26.3291 27.72 28.2667 26.2237 30.7752C24.7274 33.2836 24.1105 36.2195 24.4708 39.118C24.8311 42.0166 26.1479 44.7121 28.2128 46.7779C30.2777 48.8436 32.9727 50.1616 35.8711 50.5231C38.7694 50.8847 41.7056 50.2691 44.2147 48.7738C46.7237 47.2785 48.6624 44.989 49.7236 42.2678C50.7848 39.5466 50.908 36.5491 50.0737 33.75H55.8675ZM37.4925 43.125C38.3551 43.1254 39.2063 42.9275 39.9802 42.5464C40.7542 42.1653 41.4301 41.6114 41.9557 40.9273C42.4813 40.2433 42.8426 39.4476 43.0115 38.6016C43.1804 37.7557 43.1525 36.8822 42.93 36.0487L48.8625 30.1125L48.975 30H58.125C58.3714 30.0004 58.6154 29.9523 58.8432 29.8584C59.071 29.7644 59.278 29.6265 59.4525 29.4525L66.9525 21.9525C67.2154 21.6903 67.3945 21.3559 67.4671 20.9917C67.5397 20.6276 67.5026 20.25 67.3604 19.907C67.2182 19.564 66.9774 19.2709 66.6684 19.0649C66.3595 18.8589 65.9963 18.7493 65.625 18.75H56.25V9.37499C56.2499 9.00444 56.14 8.64221 55.9342 8.33406C55.7284 8.02591 55.4359 7.78564 55.0937 7.6436C54.7514 7.50157 54.3748 7.46413 54.0112 7.53601C53.6477 7.6079 53.3137 7.78588 53.0512 8.04749L45.5512 15.5475C45.3766 15.7216 45.2379 15.9285 45.1433 16.1563C45.0488 16.3841 45 16.6283 45 16.875V26.025L44.8875 26.1375L38.955 32.0662C38.1208 31.8416 37.2461 31.8122 36.3987 31.9802C35.5513 32.1481 34.754 32.5091 34.0686 33.0349C33.3832 33.5607 32.8281 34.2374 32.4464 35.0124C32.0646 35.7874 31.8666 36.6399 31.8675 37.5037C31.8675 38.9956 32.4601 40.4263 33.515 41.4812C34.5699 42.5361 36.0006 43.1287 37.4925 43.1287" fill="#235DCF"/>
</svg>
