<svg width="91" height="91" viewBox="0 0 91 91" fill="none" xmlns="http://www.w3.org/2000/svg">
<path d="M34.1252 61.3113L20.9681 48.1542C20.2592 47.4452 19.2976 47.0469 18.295 47.0469C17.2924 47.0469 16.3308 47.4452 15.6219 48.1542C14.9129 48.8631 14.5146 49.8247 14.5146 50.8273C14.5146 51.3238 14.6124 51.8153 14.8024 52.274C14.9924 52.7326 15.2709 53.1494 15.6219 53.5004L31.4711 69.3496C32.9498 70.8284 35.3386 70.8284 36.8173 69.3496L76.9331 29.2338C77.6421 28.5248 78.0404 27.5633 78.0404 26.5606C78.0404 25.558 77.6421 24.5965 76.9331 23.8875C76.2242 23.1786 75.2626 22.7803 74.26 22.7803C73.2574 22.7803 72.2958 23.1786 71.5869 23.8875L34.1252 61.3113Z" fill="#5BB03E"/>
</svg>
