<svg width="42" height="42" viewBox="0 0 42 42" fill="none" xmlns="http://www.w3.org/2000/svg">
<path d="M15.7503 28.2972L9.67776 22.2247C9.35054 21.8975 8.90675 21.7137 8.444 21.7137C7.98126 21.7137 7.53747 21.8975 7.21025 22.2247C6.88304 22.5519 6.69922 22.9957 6.69922 23.4585C6.69922 23.6876 6.74435 23.9145 6.83203 24.1262C6.91972 24.3378 7.04824 24.5302 7.21025 24.6922L14.5253 32.0072C15.2078 32.6897 16.3103 32.6897 16.9928 32.0072L35.5078 13.4922C35.835 13.165 36.0188 12.7212 36.0188 12.2585C36.0188 11.7957 35.835 11.3519 35.5078 11.0247C35.1805 10.6975 34.7367 10.5137 34.274 10.5137C33.8113 10.5137 33.3675 10.6975 33.0403 11.0247L15.7503 28.2972Z" fill="#FF626C"/>
</svg>
