<svg width="29" height="29" viewBox="0 0 29 29" fill="none" xmlns="http://www.w3.org/2000/svg">
<path d="M24.4688 8.38282H14.7821L11.6215 5.22227C11.4745 5.0747 11.2997 4.95769 11.1072 4.87798C10.9147 4.79827 10.7084 4.75743 10.5 4.75782H4.53125C4.11063 4.75782 3.70724 4.9249 3.40982 5.22233C3.1124 5.51975 2.94531 5.92314 2.94531 6.34375V22.7265C2.94561 23.1284 3.1054 23.5137 3.38958 23.7979C3.67377 24.0821 4.05912 24.2419 4.46102 24.2422H24.5696C24.9634 24.2419 25.3409 24.0853 25.6194 23.8069C25.8978 23.5284 26.0544 23.1509 26.0547 22.7571V9.96875C26.0547 9.54814 25.8876 9.14475 25.5902 8.84733C25.2928 8.5499 24.8894 8.38282 24.4688 8.38282ZM4.53125 6.11719H10.5C10.56 6.11744 10.6175 6.14148 10.6598 6.18403L12.8586 8.38282H4.30469V6.34375C4.30469 6.28366 4.32856 6.22604 4.37105 6.18355C4.41353 6.14106 4.47116 6.11719 4.53125 6.11719ZM24.6953 22.7571C24.6953 22.7904 24.6821 22.8224 24.6585 22.846C24.6349 22.8696 24.6029 22.8828 24.5696 22.8828H4.46102C4.41974 22.8822 4.38031 22.8656 4.35112 22.8364C4.32193 22.8072 4.30527 22.7678 4.30469 22.7265V9.74219H24.4688C24.5288 9.74219 24.5865 9.76606 24.629 9.80855C24.6714 9.85104 24.6953 9.90866 24.6953 9.96875V22.7571Z" fill="#4F4F4F" fill-opacity="0.36"/>
</svg>
