<svg width="282" height="36" viewBox="0 0 282 36" fill="none" xmlns="http://www.w3.org/2000/svg">
<path d="M63.73 30V16H76.11V30H73.55V17.56L74.15 18.2H65.69L66.29 17.56V30H63.73ZM84.5377 30.14C83.4443 30.14 82.471 29.9067 81.6177 29.44C80.7643 28.96 80.091 28.3067 79.5977 27.48C79.1043 26.6533 78.8577 25.7133 78.8577 24.66C78.8577 23.5933 79.1043 22.6533 79.5977 21.84C80.091 21.0133 80.7643 20.3667 81.6177 19.9C82.471 19.4333 83.4443 19.2 84.5377 19.2C85.6443 19.2 86.6243 19.4333 87.4777 19.9C88.3443 20.3667 89.0177 21.0067 89.4977 21.82C89.991 22.6333 90.2377 23.58 90.2377 24.66C90.2377 25.7133 89.991 26.6533 89.4977 27.48C89.0177 28.3067 88.3443 28.96 87.4777 29.44C86.6243 29.9067 85.6443 30.14 84.5377 30.14ZM84.5377 28C85.151 28 85.6977 27.8667 86.1777 27.6C86.6577 27.3333 87.031 26.9467 87.2977 26.44C87.5777 25.9333 87.7177 25.34 87.7177 24.66C87.7177 23.9667 87.5777 23.3733 87.2977 22.88C87.031 22.3733 86.6577 21.9867 86.1777 21.72C85.6977 21.4533 85.1577 21.32 84.5577 21.32C83.9443 21.32 83.3977 21.4533 82.9177 21.72C82.451 21.9867 82.0777 22.3733 81.7977 22.88C81.5177 23.3733 81.3777 23.9667 81.3777 24.66C81.3777 25.34 81.5177 25.9333 81.7977 26.44C82.0777 26.9467 82.451 27.3333 82.9177 27.6C83.3977 27.8667 83.9377 28 84.5377 28ZM99.9102 28.84V21.44H95.8102L95.7502 23.16C95.7235 23.7733 95.6835 24.3667 95.6302 24.94C95.5768 25.5 95.4902 26.02 95.3702 26.5C95.2502 26.9667 95.0768 27.3533 94.8502 27.66C94.6235 27.9667 94.3235 28.1667 93.9502 28.26L91.4702 27.88C91.8702 27.88 92.1902 27.7533 92.4302 27.5C92.6835 27.2333 92.8768 26.8733 93.0102 26.42C93.1568 25.9533 93.2635 25.4267 93.3302 24.84C93.3968 24.24 93.4435 23.62 93.4702 22.98L93.6102 19.32H102.41V28.84H99.9102ZM91.0902 32.38V27.88H103.99V32.38H101.65V30H93.4102V32.38H91.0902ZM106.223 30V19.32H116.463V30H113.983V20.86L114.563 21.44H108.143L108.723 20.86V30H106.223ZM119.836 30V19.32H122.336V26.36L128.236 19.32H130.516V30H128.016V22.96L122.136 30H119.836ZM141.059 27.88L140.519 28.48V19.32H143.019V28.48L142.419 27.88H147.699L147.119 28.48V19.32H149.619V30H133.879V19.32H136.379V28.48L135.799 27.88H141.059ZM152.981 30V19.32H155.481V26.36L161.381 19.32H163.661V30H161.161V22.96L155.281 30H152.981ZM179.331 30.2C178.238 30.2 177.231 30.02 176.311 29.66C175.391 29.3 174.591 28.8 173.911 28.16C173.231 27.5067 172.704 26.7467 172.331 25.88C171.958 25 171.771 24.04 171.771 23C171.771 21.96 171.958 21.0067 172.331 20.14C172.704 19.26 173.231 18.5 173.911 17.86C174.591 17.2067 175.391 16.7 176.311 16.34C177.231 15.98 178.231 15.8 179.311 15.8C180.404 15.8 181.404 15.98 182.311 16.34C183.231 16.7 184.031 17.2067 184.711 17.86C185.391 18.5 185.918 19.26 186.291 20.14C186.664 21.0067 186.851 21.96 186.851 23C186.851 24.04 186.664 25 186.291 25.88C185.918 26.76 185.391 27.52 184.711 28.16C184.031 28.8 183.231 29.3 182.311 29.66C181.404 30.02 180.411 30.2 179.331 30.2ZM179.311 27.92C180.018 27.92 180.671 27.8 181.271 27.56C181.871 27.32 182.391 26.98 182.831 26.54C183.271 26.0867 183.611 25.5667 183.851 24.98C184.104 24.38 184.231 23.72 184.231 23C184.231 22.28 184.104 21.6267 183.851 21.04C183.611 20.44 183.271 19.92 182.831 19.48C182.391 19.0267 181.871 18.68 181.271 18.44C180.671 18.2 180.018 18.08 179.311 18.08C178.604 18.08 177.951 18.2 177.351 18.44C176.764 18.68 176.244 19.0267 175.791 19.48C175.351 19.92 175.004 20.44 174.751 21.04C174.511 21.6267 174.391 22.28 174.391 23C174.391 23.7067 174.511 24.36 174.751 24.96C175.004 25.56 175.351 26.0867 175.791 26.54C176.231 26.98 176.751 27.32 177.351 27.56C177.951 27.8 178.604 27.92 179.311 27.92ZM189.446 30V19.32H191.946V23.66H197.326V19.32H199.826V30H197.326V25.78H191.946V30H189.446ZM201.616 29.98L201.736 27.88C201.829 27.8933 201.916 27.9067 201.996 27.92C202.076 27.9333 202.149 27.94 202.216 27.94C202.629 27.94 202.949 27.8133 203.176 27.56C203.403 27.3067 203.569 26.9667 203.676 26.54C203.796 26.1 203.876 25.6133 203.916 25.08C203.969 24.5333 204.009 23.9867 204.036 23.44L204.216 19.32H212.856V30H210.356V20.76L210.936 21.44H205.856L206.396 20.74L206.256 23.56C206.216 24.5067 206.136 25.3867 206.016 26.2C205.909 27 205.736 27.7 205.496 28.3C205.269 28.9 204.949 29.3667 204.536 29.7C204.136 30.0333 203.623 30.2 202.996 30.2C202.796 30.2 202.576 30.18 202.336 30.14C202.109 30.1 201.869 30.0467 201.616 29.98ZM222.703 30V27.84L222.563 27.38V23.6C222.563 22.8667 222.343 22.3 221.903 21.9C221.463 21.4867 220.796 21.28 219.903 21.28C219.303 21.28 218.71 21.3733 218.123 21.56C217.55 21.7467 217.063 22.0067 216.663 22.34L215.683 20.52C216.256 20.08 216.936 19.7533 217.723 19.54C218.523 19.3133 219.35 19.2 220.203 19.2C221.75 19.2 222.943 19.5733 223.783 20.32C224.636 21.0533 225.063 22.1933 225.063 23.74V30H222.703ZM219.343 30.14C218.543 30.14 217.843 30.0067 217.243 29.74C216.643 29.46 216.176 29.08 215.843 28.6C215.523 28.1067 215.363 27.5533 215.363 26.94C215.363 26.34 215.503 25.8 215.783 25.32C216.076 24.84 216.55 24.46 217.203 24.18C217.856 23.9 218.723 23.76 219.803 23.76H222.903V25.42H219.983C219.13 25.42 218.556 25.56 218.263 25.84C217.97 26.1067 217.823 26.44 217.823 26.84C217.823 27.2933 218.003 27.6533 218.363 27.92C218.723 28.1867 219.223 28.32 219.863 28.32C220.476 28.32 221.023 28.18 221.503 27.9C221.996 27.62 222.35 27.2067 222.563 26.66L222.983 28.16C222.743 28.7867 222.31 29.2733 221.683 29.62C221.07 29.9667 220.29 30.14 219.343 30.14ZM228.157 30V19.32H230.657V26.36L236.557 19.32H238.837V30H236.337V22.96L230.457 30H228.157ZM233.337 18.06C232.27 18.06 231.45 17.8133 230.877 17.32C230.303 16.8133 230.01 16.08 229.997 15.12H231.657C231.67 15.6 231.817 15.98 232.097 16.26C232.39 16.54 232.797 16.68 233.317 16.68C233.823 16.68 234.223 16.54 234.517 16.26C234.823 15.98 234.983 15.6 234.997 15.12H236.697C236.683 16.08 236.383 16.8133 235.797 17.32C235.223 17.8133 234.403 18.06 233.337 18.06ZM242.2 30V19.32H244.7V23.66H250.08V19.32H252.58V30H250.08V25.78H244.7V30H242.2Z" fill="#235DCF"/>
<path d="M0 5.8418V35.5005H6.29125V12.2828H24.8654V35.5005H31.1566V5.8418H0Z" fill="#2056BE"/>
<path d="M10.6367 18.5736V16.4766H20.523V18.5736H10.6367Z" fill="#2056BE"/>
<path d="M10.7852 24.8647V22.7676H20.6714V24.8647H10.7852Z" fill="#2056BE"/>
<path d="M10.7852 31.1557V29.0586H20.6714V31.1557H10.7852Z" fill="#2056BE"/>
<path d="M2.69531 4.34422V2.99609H34.0017V32.8046H32.5038V4.34422H2.69531Z" fill="#FF626C"/>
<path d="M5.69141 1.49792V0.149792L36.848 0V29.9583H35.3501V1.49792H5.69141Z" fill="#FF626C"/>
</svg>
