<svg width="46" height="46" viewBox="0 0 46 46" fill="none" xmlns="http://www.w3.org/2000/svg">
<path d="M22.6834 20.405C22.6734 20.933 22.5068 21.4461 22.2048 21.8793C21.9028 22.3124 21.4789 22.6462 20.987 22.8382C20.4951 23.0303 19.9573 23.072 19.4416 22.958C18.926 22.844 18.4558 22.5795 18.0907 22.198C17.7256 21.8165 17.482 21.3351 17.3907 20.815C17.2995 20.2949 17.3647 19.7594 17.5781 19.2764C17.7915 18.7933 18.1436 18.3846 18.5896 18.1019C19.0356 17.8191 19.5555 17.6752 20.0834 17.6883C20.7849 17.7143 21.4487 18.0125 21.9341 18.5196C22.4195 19.0268 22.6883 19.703 22.6834 20.405Z" fill="#235DCF"/>
<path d="M24.6049 12.0547H15.5633C14.6686 12.0547 13.8106 12.4101 13.178 13.0427C12.5453 13.6753 12.1899 14.5334 12.1899 15.428V24.673C12.1899 25.116 12.2772 25.5547 12.4467 25.9639C12.6162 26.3732 12.8647 26.7451 13.178 27.0583C13.4912 27.3716 13.8631 27.6201 14.2724 27.7896C14.6816 27.9591 15.1203 28.0464 15.5633 28.0464H24.6049C25.0479 28.0464 25.4866 27.9591 25.8959 27.7896C26.3051 27.6201 26.677 27.3716 26.9902 27.0583C27.3035 26.7451 27.552 26.3732 27.7215 25.9639C27.891 25.5547 27.9783 25.116 27.9783 24.673V15.4447C27.98 15.0004 27.8941 14.5602 27.7254 14.1492C27.5567 13.7382 27.3085 13.3645 26.9952 13.0496C26.6818 12.7347 26.3094 12.4847 25.8992 12.3139C25.489 12.1432 25.0492 12.0551 24.6049 12.0547ZM20.0833 24.9264C19.1882 24.9466 18.3074 24.6996 17.5533 24.217C16.7992 23.7345 16.206 23.0382 15.8494 22.217C15.4928 21.3958 15.389 20.4869 15.5511 19.6065C15.7133 18.726 16.1341 17.9138 16.7599 17.2735C17.3857 16.6333 18.1881 16.194 19.0647 16.0118C19.9412 15.8296 20.8522 15.9127 21.6813 16.2504C22.5104 16.5882 23.2201 17.1654 23.7197 17.9083C24.2194 18.6512 24.4864 19.5261 24.4866 20.4214C24.4934 21.0063 24.3849 21.5869 24.1673 22.1299C23.9497 22.673 23.6272 23.1678 23.2183 23.5861C22.8094 24.0045 22.322 24.3382 21.7841 24.5681C21.2462 24.7981 20.6682 24.9198 20.0833 24.9264ZM24.9766 15.918C24.8666 15.918 24.7578 15.8961 24.6564 15.8535C24.555 15.811 24.4631 15.7486 24.3861 15.67C24.3091 15.5915 24.2486 15.4984 24.208 15.3962C24.1675 15.2939 24.1477 15.1846 24.1499 15.0747C24.1499 14.851 24.2388 14.6365 24.3969 14.4784C24.5551 14.3202 24.7696 14.2314 24.9933 14.2314C25.2169 14.2314 25.4314 14.3202 25.5896 14.4784C25.7478 14.6365 25.8366 14.851 25.8366 15.0747C25.8399 15.1937 25.8175 15.3121 25.7708 15.4217C25.7241 15.5313 25.6543 15.6295 25.5661 15.7096C25.478 15.7896 25.3735 15.8497 25.26 15.8857C25.1464 15.9217 25.0265 15.9327 24.9083 15.918H24.9766Z" fill="#235DCF"/>
<path d="M20.0832 3.33334C15.6629 3.31124 11.4149 5.04599 8.2737 8.15597C5.13246 11.2659 3.35532 15.4964 3.33322 19.9167C3.31112 24.3369 5.04587 28.585 8.15584 31.7262C11.2658 34.8674 15.4963 36.6446 19.9165 36.6667C22.1052 36.6776 24.2747 36.2574 26.301 35.4299C28.3272 34.6024 30.1707 33.384 31.7261 31.844C33.2815 30.3041 34.5183 28.473 35.366 26.4551C36.2137 24.4371 36.6556 22.272 36.6666 20.0833C36.6775 17.8946 36.2572 15.7252 35.4298 13.6989C34.6023 11.6727 33.3838 9.8292 31.8439 8.27382C30.304 6.71844 28.4728 5.48159 26.4549 4.6339C24.437 3.78621 22.2719 3.34428 20.0832 3.33334ZM30.2049 24.5033C30.2095 25.2511 30.0657 25.9923 29.7818 26.684C29.4978 27.3757 29.0794 28.0042 28.5507 28.533C28.0221 29.0618 27.3937 29.4804 26.7021 29.7646C26.0104 30.0487 25.2693 30.1928 24.5216 30.1883H15.6482C14.9006 30.1925 14.1596 30.0484 13.4681 29.7643C12.7766 29.4802 12.1483 29.0618 11.6195 28.5332C11.0908 28.0046 10.6722 27.3764 10.3879 26.685C10.1036 25.9936 9.95924 25.2526 9.96322 24.505V15.63C9.95857 14.8823 10.1024 14.1411 10.3863 13.4494C10.6703 12.7576 11.0887 12.1291 11.6174 11.6003C12.146 11.0715 12.7744 10.6529 13.466 10.3688C14.1577 10.0846 14.8988 9.94058 15.6466 9.94501H24.5216C25.2691 9.94058 26.0102 10.0846 26.7017 10.3686C27.3932 10.6527 28.0215 11.0711 28.5501 11.5998C29.0788 12.1284 29.4972 12.7567 29.7813 13.4482C30.0653 14.1397 30.2093 14.8808 30.2049 15.6283V24.5033Z" fill="#235DCF"/>
</svg>
