<svg width="71" height="71" viewBox="0 0 71 71" fill="none" xmlns="http://www.w3.org/2000/svg">
<path fill-rule="evenodd" clip-rule="evenodd" d="M57.6725 9.26853C58.328 8.87421 59.1108 8.74915 59.8565 8.91959C60.6023 9.09003 61.253 9.54272 61.6721 10.1827L64.6009 14.6497C64.9827 15.2333 65.146 15.933 65.0621 16.6253C64.9782 17.3176 64.6525 17.958 64.1423 18.4334L64.1335 18.4453L64.0921 18.4837L63.9234 18.6405L63.2578 19.2766C59.5748 22.8492 56.0034 26.5351 52.5486 30.3289C46.0492 37.4762 38.3309 46.8305 33.1361 55.9067C31.6865 58.439 28.1453 58.9833 26.0449 56.7971L6.86014 36.8639C6.58521 36.5781 6.37053 36.24 6.22888 35.8696C6.08722 35.4992 6.02148 35.1041 6.03556 34.7078C6.04963 34.3115 6.14324 33.9221 6.31081 33.5627C6.47838 33.2033 6.7165 32.8812 7.01101 32.6157L12.8093 27.3854C13.3189 26.926 13.9723 26.6579 14.6576 26.6272C15.343 26.5964 16.0178 26.8048 16.5664 27.2167L26.3556 34.5564C41.6472 19.4777 50.3181 13.6912 57.6725 9.26853Z" fill="#235DCF"/>
</svg>
