<svg width="35" height="35" viewBox="0 0 35 35" fill="none" xmlns="http://www.w3.org/2000/svg">
<path d="M15.9534 17.5L6.88179 8.43066C6.7801 8.32897 6.69943 8.20824 6.6444 8.07538C6.58936 7.94251 6.56104 7.8001 6.56104 7.65629C6.56104 7.51247 6.58936 7.37007 6.6444 7.2372C6.69943 7.10433 6.7801 6.98361 6.88179 6.88191C6.98348 6.78022 7.10421 6.69955 7.23708 6.64452C7.36995 6.58948 7.51235 6.56116 7.65617 6.56116C7.79998 6.56116 7.94239 6.58948 8.07526 6.64452C8.20812 6.69955 8.32885 6.78022 8.43054 6.88191L17.4999 15.9535L26.5693 6.88191C26.7747 6.67654 27.0532 6.56116 27.3437 6.56116C27.6341 6.56116 27.9127 6.67654 28.118 6.88191C28.3234 7.08729 28.4388 7.36584 28.4388 7.65629C28.4388 7.94674 28.3234 8.22529 28.118 8.43066L19.0465 17.5L28.118 26.5694C28.3234 26.7748 28.4388 27.0533 28.4388 27.3438C28.4388 27.6342 28.3234 27.9128 28.118 28.1182C27.9127 28.3235 27.6341 28.4389 27.3437 28.4389C27.0532 28.4389 26.7747 28.3235 26.5693 28.1182L17.4999 19.0466L8.43054 28.1182C8.22516 28.3235 7.94661 28.4389 7.65617 28.4389C7.36572 28.4389 7.08717 28.3235 6.88179 28.1182C6.67641 27.9128 6.56104 27.6342 6.56104 27.3438C6.56104 27.0533 6.67641 26.7748 6.88179 26.5694L15.9534 17.5Z" fill="#235DCF"/>
</svg>
