<svg width="750" height="443" viewBox="0 0 750 443" fill="none" xmlns="http://www.w3.org/2000/svg">
<g clip-path="url(#clip0_2032_8)">
<path d="M462.518 351.603L458.867 380.304L453.495 347.701C427.678 337.813 397.491 335.893 397.491 335.893C397.491 335.893 390.829 398.162 412.823 424.2C434.817 450.237 458.006 446.279 477.138 430.182C496.27 414.085 504.1 391.945 482.106 365.907C477.211 360.112 470.3 355.412 462.518 351.603Z" fill="#F2F2F2"/>
<path d="M455.359 384.643L456.443 385.926C468.968 400.909 476.28 414.669 478.256 427.027C478.288 427.207 478.309 427.385 478.34 427.565L477.502 427.694L476.695 427.808C474.706 414.341 466.08 400.197 455.159 387.126C454.811 386.702 454.458 386.271 454.092 385.85C449.42 380.358 444.375 375.07 439.262 370.112C438.869 369.725 438.465 369.336 438.061 368.948C431.277 362.439 424.431 356.526 418.316 351.53C417.885 351.175 417.448 350.825 417.017 350.482C406.631 342.068 398.543 336.451 396.739 335.218C396.522 335.064 396.399 334.983 396.371 334.963L396.831 334.282L396.832 334.271L397.298 333.585C397.326 333.605 397.74 333.876 398.487 334.4C401.294 336.342 408.833 341.683 418.181 349.23C418.601 349.573 419.038 349.923 419.469 350.278C424.435 354.327 429.861 358.957 435.327 364.01C436.702 365.277 438.042 366.541 439.347 367.801C439.757 368.184 440.161 368.572 440.554 368.96C446.082 374.318 451.017 379.546 455.359 384.643Z" fill="white"/>
<path d="M418.181 349.231C417.803 349.647 417.418 350.068 417.017 350.482C415.927 351.609 414.781 352.678 413.582 353.688C408.477 357.994 402.469 361.103 396 362.785C396.017 363.346 396.034 363.908 396.05 364.482C402.898 362.763 409.262 359.506 414.655 354.958C415.935 353.881 417.157 352.737 418.316 351.53C418.711 351.122 419.096 350.7 419.469 350.278C422.564 346.812 425.113 342.896 427.03 338.666C426.462 338.547 425.904 338.429 425.359 338.312C423.518 342.284 421.099 345.964 418.181 349.231Z" fill="white"/>
<path d="M439.347 367.801C438.929 368.196 438.5 368.579 438.061 368.948C437.933 369.067 437.793 369.185 437.659 369.297C432.121 373.957 425.537 377.211 418.467 378.782C411.397 380.353 404.051 380.194 397.056 378.319C397.118 378.908 397.18 379.498 397.254 380.088C404.428 381.903 411.933 381.987 419.146 380.331C426.359 378.676 433.073 375.329 438.732 370.568C438.911 370.418 439.089 370.268 439.262 370.112C439.702 369.731 440.13 369.348 440.554 368.96C447.057 362.893 451.673 355.086 453.848 346.471C453.327 346.267 452.807 346.064 452.28 345.866C450.2 354.278 445.705 361.901 439.347 367.801Z" fill="white"/>
<path d="M455.359 384.643C454.946 385.056 454.521 385.456 454.092 385.85C453.631 386.271 453.164 386.686 452.686 387.087C445.238 393.34 435.96 397.016 426.243 397.566C416.526 398.115 406.892 395.509 398.783 390.137C398.931 390.893 399.074 391.642 399.235 392.387C407.595 397.52 417.362 399.893 427.15 399.17C436.938 398.447 446.249 394.664 453.76 388.358C454.237 387.956 454.709 387.548 455.159 387.126C455.6 386.733 456.024 386.333 456.443 385.926C464.851 377.65 469.793 366.495 470.268 354.719C469.738 354.361 469.193 354.026 468.643 353.685C468.417 365.335 463.652 376.44 455.359 384.643Z" fill="white"/>
<path d="M599.174 207.042V160.777C599.174 153.675 596.348 146.865 591.316 141.843C586.284 136.821 579.46 134 572.344 134H474.13C470.606 134 467.118 134.693 463.862 136.038C460.607 137.384 457.649 139.356 455.158 141.843C452.666 144.329 450.69 147.281 449.342 150.53C447.993 153.778 447.299 157.26 447.299 160.777V191.503H445.574V202.329H447.299V213.877H445.574V230.478H447.299V237.695H445.574V254.296H447.299V414.591C447.299 418.107 447.993 421.589 449.342 424.838C450.69 428.087 452.666 431.039 455.158 433.525C457.649 436.011 460.607 437.984 463.862 439.329C467.117 440.675 470.606 441.368 474.13 441.368H572.344C575.867 441.368 579.356 440.675 582.611 439.33C585.867 437.984 588.824 436.012 591.316 433.525C593.807 431.039 595.784 428.087 597.132 424.838C598.48 421.589 599.174 418.107 599.174 414.591V239.974H600.867V207.042H599.174Z" fill="#3F3D56"/>
<path d="M573.426 140.966H560.606C561.196 142.409 561.421 143.974 561.262 145.524C561.102 147.074 560.564 148.561 559.693 149.854C558.822 151.147 557.646 152.206 556.268 152.939C554.891 153.671 553.354 154.055 551.793 154.055H495.527C493.966 154.055 492.429 153.671 491.051 152.939C489.674 152.206 488.498 151.147 487.627 149.854C486.756 148.561 486.217 147.074 486.058 145.524C485.899 143.974 486.124 142.409 486.713 140.966H474.739C469.425 140.966 464.329 143.073 460.571 146.823C456.814 150.573 454.703 155.66 454.703 160.963V414.404C454.703 417.03 455.221 419.631 456.228 422.057C457.235 424.483 458.711 426.687 460.571 428.544C462.432 430.401 464.641 431.874 467.072 432.879C469.503 433.884 472.108 434.401 474.739 434.401H573.427C578.741 434.401 583.837 432.294 587.595 428.544C591.352 424.794 593.463 419.708 593.463 414.405V160.963C593.463 158.337 592.945 155.737 591.938 153.311C590.931 150.884 589.455 148.68 587.595 146.823C585.734 144.966 583.525 143.493 581.094 142.488C578.663 141.484 576.058 140.966 573.426 140.966Z" fill="white"/>
<path d="M575.909 229.167H472.257C471.535 229.166 470.842 228.879 470.331 228.369C469.821 227.86 469.533 227.169 469.532 226.448V184.474C469.533 183.753 469.821 183.062 470.331 182.552C470.842 182.042 471.535 181.756 472.257 181.755H575.909C576.631 181.756 577.324 182.042 577.834 182.552C578.345 183.062 578.632 183.753 578.633 184.474V226.448C578.632 227.169 578.345 227.86 577.834 228.369C577.324 228.879 576.631 229.166 575.909 229.167Z" fill="#FF626C"/>
<path d="M566.039 249.03H482.127C481.332 249.03 480.569 248.715 480.007 248.154C479.445 247.593 479.13 246.832 479.13 246.039C479.13 245.246 479.445 244.485 480.007 243.924C480.569 243.363 481.332 243.048 482.127 243.048H566.039C566.834 243.048 567.596 243.363 568.158 243.924C568.72 244.485 569.036 245.246 569.036 246.039C569.036 246.832 568.72 247.593 568.158 248.154C567.596 248.715 566.834 249.03 566.039 249.03Z" fill="#FF626C"/>
<path d="M566.039 264.256H482.127C481.259 264.256 480.428 263.912 479.815 263.3C479.202 262.689 478.857 261.859 478.857 260.993C478.857 260.128 479.202 259.298 479.815 258.686C480.428 258.074 481.259 257.73 482.127 257.73H566.039C566.906 257.73 567.738 258.074 568.351 258.686C568.964 259.298 569.309 260.128 569.309 260.993C569.309 261.859 568.964 262.689 568.351 263.3C567.738 263.912 566.906 264.256 566.039 264.256Z" fill="#E4E4E4"/>
<path d="M566.039 279.211H482.127C481.259 279.211 480.428 278.867 479.815 278.255C479.202 277.643 478.857 276.813 478.857 275.948C478.857 275.083 479.202 274.253 479.815 273.641C480.428 273.029 481.259 272.685 482.127 272.685H566.039C566.906 272.685 567.738 273.029 568.351 273.641C568.964 274.253 569.309 275.083 569.309 275.948C569.309 276.813 568.964 277.643 568.351 278.255C567.738 278.867 566.906 279.211 566.039 279.211Z" fill="#E4E4E4"/>
<path d="M583.376 361.412H479.724C479.002 361.411 478.31 361.124 477.799 360.614C477.288 360.105 477.001 359.414 477 358.693V316.719C477.001 315.998 477.288 315.307 477.799 314.797C478.31 314.288 479.002 314.001 479.724 314H583.376C584.099 314.001 584.791 314.288 585.302 314.797C585.813 315.307 586.1 315.998 586.101 316.719V358.693C586.1 359.414 585.813 360.105 585.302 360.614C584.791 361.124 584.099 361.411 583.376 361.412Z" fill="#E4E4E4"/>
<path d="M566.039 374.92H482.127C481.259 374.92 480.428 374.576 479.815 373.964C479.202 373.353 478.857 372.523 478.857 371.657C478.857 370.792 479.202 369.962 479.815 369.35C480.428 368.738 481.259 368.395 482.127 368.395H566.039C566.906 368.395 567.738 368.738 568.351 369.35C568.964 369.962 569.309 370.792 569.309 371.657C569.309 372.523 568.964 373.353 568.351 373.964C567.738 374.576 566.906 374.92 566.039 374.92Z" fill="#E4E4E4"/>
<path d="M566.039 389.875H482.127C481.259 389.875 480.428 389.531 479.815 388.919C479.202 388.307 478.857 387.477 478.857 386.612C478.857 385.747 479.202 384.917 479.815 384.305C480.428 383.693 481.259 383.349 482.127 383.349H566.039C566.906 383.349 567.738 383.693 568.351 384.305C568.964 384.917 569.309 385.747 569.309 386.612C569.309 387.477 568.964 388.307 568.351 388.919C567.738 389.531 566.906 389.875 566.039 389.875Z" fill="#E4E4E4"/>
<path d="M566.039 404.829H482.127C481.259 404.829 480.428 404.486 479.815 403.874C479.202 403.262 478.857 402.432 478.857 401.567C478.857 400.701 479.202 399.871 479.815 399.259C480.428 398.647 481.259 398.304 482.127 398.304H566.039C566.906 398.304 567.738 398.647 568.351 399.259C568.964 399.871 569.309 400.701 569.309 401.567C569.309 402.432 568.964 403.262 568.351 403.874C567.738 404.486 566.906 404.829 566.039 404.829Z" fill="#E4E4E4"/>
<path d="M660.218 213.579C659.164 205.863 657.842 197.578 652.389 192.008C650.658 190.24 648.587 188.841 646.3 187.894C644.013 186.947 641.558 186.471 639.082 186.497C636.606 186.523 634.161 187.048 631.894 188.042C629.628 189.037 627.586 190.478 625.893 192.281C621.923 196.508 620.17 202.442 620.01 208.233C619.849 214.023 621.141 219.75 622.575 225.363C630.161 225.514 637.692 224.035 644.655 221.026C646.361 220.195 648.131 219.501 649.948 218.952C651.788 218.484 653.099 219.66 654.81 220.48L655.75 218.685C656.519 220.113 658.9 219.69 659.763 218.317C660.627 216.944 660.438 215.185 660.218 213.579Z" fill="#2F2E41"/>
<path d="M729.708 424.939L724.136 428.616L707.271 408.917L715.494 403.489L729.708 424.939Z" fill="#9E616A"/>
<path d="M734.701 429.391L716.734 441.249L716.584 441.022C715.358 439.171 714.918 436.91 715.362 434.736C715.806 432.561 717.097 430.652 718.952 429.428L729.926 422.185L734.701 429.391Z" fill="#2F2E41"/>
<path d="M657.78 434.786H651.099L647.922 409.071L657.781 409.071L657.78 434.786Z" fill="#9E616A"/>
<path d="M659.483 441.249L637.944 441.248V440.976C637.944 438.757 638.827 436.629 640.399 435.06C641.972 433.491 644.104 432.609 646.327 432.609L659.484 432.61L659.483 441.249Z" fill="#2F2E41"/>
<path d="M610.251 258.067L585.028 240.086C585.139 239.144 584.974 238.19 584.552 237.341C584.13 236.491 583.469 235.782 582.651 235.3C581.832 234.818 580.891 234.584 579.941 234.626C578.992 234.668 578.075 234.985 577.303 235.537C576.53 236.09 575.936 236.855 575.591 237.739C575.246 238.623 575.166 239.587 575.361 240.516C575.555 241.444 576.016 242.296 576.687 242.968C577.358 243.64 578.21 244.102 579.139 244.3C582.292 246.942 605.32 269.798 608.617 268.592C611.964 267.368 626.595 265.153 626.595 265.153L627.002 251.289L610.251 258.067Z" fill="#9E616A"/>
<path d="M630.068 290.783L630.306 322.42C630.306 322.42 635.764 369.297 637.777 377.216C639.79 385.135 647.962 421.778 647.962 421.778L661.246 419.639L652.691 371.731L655.277 332.024L670.187 371.819L708.049 411.317L717.644 403.59L684.689 355.256L674.624 315.661C674.624 315.661 675.876 295.181 664.597 287.294L630.068 290.783Z" fill="#2F2E41"/>
<path d="M637.698 221.213C645.739 221.213 652.258 214.707 652.258 206.682C652.258 198.657 645.739 192.151 637.698 192.151C629.657 192.151 623.138 198.657 623.138 206.682C623.138 214.707 629.657 221.213 637.698 221.213Z" fill="#9E616A"/>
<path d="M641.487 295.888L636.075 307.943L651.778 314.964L657.19 302.909L641.487 295.888Z" fill="#2F2E41"/>
<path d="M661.018 234.641C659.302 231.233 658.468 227.023 654.81 225.918C652.34 225.172 642.35 226.29 640.098 227.549C636.354 229.644 639.747 233.57 637.538 237.243C635.136 241.237 632.735 245.23 630.333 249.224C628.682 251.969 627.014 254.754 626.121 257.829C625.229 260.905 625.186 264.357 626.706 267.176C628.067 269.699 630.533 271.489 631.902 274.008C633.325 276.628 630.77 288.327 629.445 290.999L630.081 291.292C638.889 291.808 647.726 291.511 656.48 290.405C658.653 290.131 660.908 289.772 662.699 288.513C665.336 286.659 666.378 283.295 667.03 280.142C670.166 264.73 668.05 248.715 661.018 234.641Z" fill="#E4E4E4"/>
<path d="M631.22 267.646C635.165 263.777 639.13 259.885 642.377 255.416C645.624 250.948 648.149 245.834 648.854 240.359C649.156 238.613 649.036 236.819 648.505 235.128C647.9 233.47 646.56 231.998 644.833 231.62C642.069 231.015 639.557 233.216 637.585 235.241C631.77 241.211 625.955 247.181 620.14 253.151C623.844 258.017 627.548 262.883 631.252 267.749L631.22 267.646Z" fill="#E4E4E4"/>
<path d="M674.214 270.626C672.988 267.286 670.769 252.684 670.769 252.684L656.877 252.277L663.669 268.996L645.135 294.889C645.135 294.889 645.169 294.946 645.232 295.048C644.257 294.892 643.258 295.033 642.366 295.453C641.473 295.873 640.728 296.552 640.228 297.401C639.729 298.25 639.498 299.231 639.565 300.213C639.633 301.196 639.996 302.135 640.608 302.908C641.219 303.681 642.05 304.252 642.992 304.546C643.934 304.84 644.943 304.844 645.887 304.556C646.831 304.268 647.665 303.703 648.282 302.934C648.899 302.165 649.268 301.228 649.343 300.246C649.411 300.285 649.491 300.299 649.568 300.286C649.646 300.273 649.716 300.233 649.768 300.173C651.83 297.591 675.44 273.965 674.214 270.626Z" fill="#9E616A"/>
<path d="M675.627 261.404C674.352 256.033 673.067 250.633 670.917 245.547C668.767 240.462 665.69 235.658 661.361 232.223C660.02 231.061 658.421 230.235 656.696 229.813C654.961 229.471 653.006 229.854 651.788 231.133C649.838 233.179 650.425 236.464 651.14 239.196C653.248 247.252 655.357 255.307 657.465 263.363C663.554 262.719 669.643 262.075 675.732 261.431L675.627 261.404Z" fill="#E4E4E4"/>
<path d="M655.9 207.812C655.445 204.297 654.969 200.753 653.9 197.443C652.83 194.133 651.107 191.033 648.634 189.158C644.719 186.189 639.65 186.762 635.26 188.469C631.865 189.79 628.552 191.797 626.158 195.024C623.764 198.251 622.419 202.855 623.31 207.075C627.992 205.774 632.674 204.474 637.357 203.173L636.844 203.599C639.883 205.308 642.19 208.843 642.88 212.846C643.573 216.835 642.687 220.937 640.408 224.287C643.601 222.955 646.795 221.623 649.988 220.292C651.959 219.47 654.069 218.522 655.237 216.414C656.593 213.97 656.278 210.73 655.9 207.812Z" fill="#2F2E41"/>
<path d="M587.157 230.593L577.791 244.622C577.567 244.958 577.263 245.234 576.906 245.424C576.548 245.614 576.149 245.713 575.744 245.71C575.262 245.71 574.791 245.568 574.391 245.301C573.99 245.035 573.677 244.656 573.491 244.212C573.425 244.062 573.376 243.906 573.345 243.745C573.218 243.109 573.349 242.448 573.71 241.908L583.076 227.879C583.254 227.611 583.484 227.382 583.751 227.203C584.019 227.024 584.319 226.899 584.635 226.836C584.95 226.773 585.276 226.773 585.591 226.835C585.907 226.897 586.208 227.021 586.476 227.199C586.744 227.377 586.974 227.607 587.153 227.874C587.332 228.14 587.457 228.44 587.52 228.755C587.584 229.07 587.584 229.395 587.522 229.71C587.459 230.025 587.335 230.325 587.157 230.593Z" fill="#FF626C"/>
<path d="M578.546 243.49L576.65 246.313L573.296 249.264C573.075 249.459 572.796 249.575 572.502 249.595C572.208 249.615 571.916 249.537 571.671 249.374C571.426 249.211 571.242 248.972 571.147 248.694C571.053 248.415 571.053 248.114 571.147 247.836L572.616 243.546L574.465 240.776L578.546 243.49Z" fill="#3F3D56"/>
<path d="M587.571 223.236L582.877 227.365C582.723 227.5 582.603 227.669 582.525 227.858C582.447 228.047 582.413 228.251 582.427 228.455C582.441 228.659 582.501 228.857 582.604 229.034C582.707 229.211 582.849 229.362 583.019 229.475L583.907 230.066L581.339 233.913C581.3 233.972 581.272 234.039 581.258 234.109C581.244 234.179 581.244 234.251 581.259 234.321C581.273 234.391 581.3 234.457 581.34 234.517C581.38 234.576 581.431 234.627 581.491 234.667C581.55 234.706 581.617 234.734 581.687 234.748C581.757 234.761 581.83 234.761 581.9 234.747C581.97 234.733 582.037 234.706 582.096 234.666C582.156 234.626 582.207 234.575 582.246 234.516L584.814 230.669L585.702 231.26C585.997 231.455 586.357 231.526 586.704 231.458C587.051 231.389 587.357 231.186 587.554 230.892C587.619 230.795 587.671 230.689 587.709 230.578L589.72 224.665C589.814 224.387 589.814 224.085 589.719 223.807C589.624 223.529 589.44 223.29 589.195 223.127C588.95 222.964 588.658 222.886 588.364 222.906C588.07 222.926 587.792 223.042 587.571 223.236Z" fill="#3F3D56"/>
<path d="M749.351 442.396H396.649C396.477 442.395 396.312 442.327 396.191 442.205C396.07 442.084 396.002 441.92 396.002 441.748C396.002 441.577 396.07 441.412 396.191 441.291C396.312 441.17 396.477 441.101 396.649 441.101H749.351C749.523 441.101 749.687 441.17 749.809 441.291C749.93 441.412 749.998 441.577 749.998 441.748C749.998 441.92 749.93 442.084 749.809 442.205C749.687 442.327 749.523 442.395 749.351 442.396Z" fill="#3F3D56"/>
<path d="M527.761 145.707H513.049C512.76 145.707 512.483 145.592 512.278 145.388C512.074 145.184 511.959 144.908 511.959 144.619C511.959 144.331 512.074 144.054 512.278 143.85C512.483 143.646 512.76 143.532 513.049 143.532H527.761C528.05 143.532 528.327 143.646 528.531 143.85C528.736 144.054 528.851 144.331 528.851 144.619C528.851 144.908 528.736 145.184 528.531 145.388C528.327 145.592 528.05 145.707 527.761 145.707Z" fill="white"/>
<path d="M535.117 145.707C535.719 145.707 536.207 145.22 536.207 144.619C536.207 144.019 535.719 143.532 535.117 143.532C534.515 143.532 534.027 144.019 534.027 144.619C534.027 145.22 534.515 145.707 535.117 145.707Z" fill="white"/>
</g>
<g clip-path="url(#clip1_2032_8)">
<path d="M301.592 121.694H117.969V208.964H301.592V121.694Z" fill="#E6E6E6"/>
<path d="M296.462 128.881H123.099V201.777H296.462V128.881Z" fill="white"/>
<path d="M301.592 116.561H117.969V124.775H301.592V116.561Z" fill="#235DCF"/>
<path d="M123.611 122.721C124.461 122.721 125.15 122.032 125.15 121.181C125.15 120.331 124.461 119.641 123.611 119.641C122.762 119.641 122.073 120.331 122.073 121.181C122.073 122.032 122.762 122.721 123.611 122.721Z" fill="white"/>
<path d="M129.253 122.721C129.82 122.721 130.279 122.032 130.279 121.181C130.279 120.331 129.82 119.641 129.253 119.641C128.687 119.641 128.228 120.331 128.228 121.181C128.228 122.032 128.687 122.721 129.253 122.721Z" fill="white"/>
<path d="M134.896 122.721C135.745 122.721 136.434 122.032 136.434 121.181C136.434 120.331 135.745 119.641 134.896 119.641C134.046 119.641 133.357 120.331 133.357 121.181C133.357 122.032 134.046 122.721 134.896 122.721Z" fill="white"/>
<path d="M255.43 141.202H226.707V190.484H255.43V141.202Z" fill="#F2F2F2"/>
<path d="M221.577 141.202H164.131V154.549H221.577V141.202Z" fill="#235DCF"/>
<path d="M221.577 158.656H164.131V173.03H221.577V158.656Z" fill="#F2F2F2"/>
<path d="M221.577 177.137H164.131V190.484H221.577V177.137Z" fill="#F2F2F2"/>
<path d="M125.034 302.951C125.042 301.525 124.749 300.114 124.175 298.809C123.601 297.505 122.758 296.337 121.702 295.381C120.646 294.426 119.4 293.705 118.047 293.266C116.693 292.827 115.263 292.679 113.848 292.832C113.401 292.883 112.957 292.965 112.521 293.078L78.3439 263.719L80.3862 252.687L63.5408 247.216L58.4619 264.896C57.8611 267.018 57.959 269.277 58.741 271.339C59.523 273.4 60.9475 275.154 62.8031 276.341L104.847 302.99C104.847 303.321 104.864 303.653 104.899 303.982C105.052 305.4 105.503 306.769 106.221 308C106.939 309.231 107.909 310.295 109.067 311.125C110.224 311.954 111.544 312.528 112.938 312.811C114.333 313.093 115.771 313.077 117.159 312.764C117.563 312.674 117.96 312.559 118.349 312.419C120.295 311.714 121.979 310.429 123.174 308.736C124.369 307.043 125.018 305.024 125.034 302.951Z" fill="#9F616A"/>
<path d="M40.0657 337H84.1312C84.1312 338.269 129.546 339.3 129.546 339.3C130.259 339.837 130.909 340.455 131.483 341.139C133.208 343.201 134.15 345.807 134.145 348.498V350.337C134.144 353.387 132.935 356.31 130.783 358.466C128.632 360.622 125.714 361.834 122.672 361.835H40.0657C37.0237 361.833 34.107 360.62 31.9559 358.465C29.8049 356.309 28.5953 353.386 28.5927 350.337V348.498C28.5969 345.45 29.807 342.528 31.9577 340.372C34.1084 338.217 37.0241 337.004 40.0657 337Z" fill="#3F3D56"/>
<path d="M87.9988 361.378H76.0668V438.644H87.9988V361.378Z" fill="#3F3D56"/>
<path d="M121.959 439.605C121.959 441.051 103.878 440.164 81.5739 440.164C59.2698 440.164 41.1887 441.051 41.1887 439.605C41.1887 438.158 59.2698 426.686 81.5739 426.686C103.878 426.686 121.959 438.158 121.959 439.605Z" fill="#3F3D56"/>
<path d="M111.188 429.168L122.44 429.167L127.793 399.919L111.186 399.92L111.188 429.168Z" fill="#9F616A"/>
<path d="M108.318 440.099L144.601 440.097V439.638C144.601 437.779 144.235 435.939 143.526 434.222C142.816 432.505 141.776 430.944 140.464 429.63C139.153 428.316 137.596 427.273 135.883 426.562C134.17 425.851 132.333 425.485 130.479 425.485H130.477L108.317 425.486L108.318 440.099Z" fill="#2F2E41"/>
<path d="M128.018 411.031L150.451 360.617C152.323 356.368 152.531 351.568 151.031 347.173C149.531 342.777 146.434 339.11 142.356 336.9L93.6983 310.752L71.4946 308.859L51.0132 306.993L50.8655 307.244C50.6766 307.564 46.2729 315.186 49.2496 323.545C51.5076 329.885 57.3807 334.837 66.7059 338.264C88.472 346.262 113.616 353.098 123.416 355.665C123.849 355.776 124.254 355.978 124.604 356.257C124.954 356.536 125.241 356.886 125.446 357.284C125.651 357.677 125.774 358.109 125.805 358.552C125.836 358.995 125.775 359.44 125.626 359.858L104.785 406.783C104.567 407.378 104.489 408.015 104.556 408.645C104.623 409.276 104.833 409.882 105.171 410.418C105.509 410.954 105.965 411.405 106.504 411.736C107.044 412.067 107.651 412.27 108.281 412.329L123.854 413.465C123.986 413.478 124.118 413.484 124.249 413.484C125.046 413.484 125.827 413.252 126.496 412.816C127.164 412.381 127.693 411.761 128.018 411.031Z" fill="#CBCBCB"/>
<path d="M103.845 429.168L115.097 429.167L120.451 399.919L103.843 399.92L103.845 429.168Z" fill="#9F616A"/>
<path d="M100.975 440.099L137.258 440.097V439.638C137.258 437.779 136.893 435.939 136.183 434.222C135.473 432.505 134.433 430.944 133.122 429.63C131.81 428.316 130.254 427.273 128.54 426.562C126.827 425.851 124.99 425.485 123.136 425.485H123.134L100.974 425.486L100.975 440.099Z" fill="#2F2E41"/>
<path d="M119.757 413.79L142.19 363.377C144.063 359.128 144.27 354.327 142.77 349.932C141.27 345.537 138.173 341.869 134.096 339.66L85.4378 313.511L63.2341 311.618L47.192 310.224L47.1942 310.003C47.0053 310.323 42.6017 317.946 45.5784 326.304C47.8363 332.644 49.1202 337.596 58.4455 341.023C80.2115 349.021 105.356 355.857 115.156 358.425C115.589 358.536 115.994 358.737 116.343 359.016C116.693 359.295 116.98 359.645 117.185 360.043C117.391 360.437 117.513 360.869 117.544 361.312C117.575 361.755 117.514 362.199 117.365 362.618L96.5244 409.542C96.3067 410.137 96.2284 410.775 96.2953 411.405C96.3623 412.035 96.5728 412.642 96.9106 413.178C97.2485 413.713 97.7046 414.164 98.2438 414.496C98.783 414.827 99.391 415.03 100.021 415.088L115.593 416.225C115.726 416.237 115.857 416.243 115.988 416.243C116.786 416.243 117.566 416.011 118.235 415.576C118.904 415.141 119.433 414.52 119.757 413.79Z" fill="#CBCBCB"/>
<path d="M77.4809 311.144C78.5565 310.381 94.0021 318.502 96.7557 312.064C83.9058 279.87 92.7607 265.968 84.8896 247.506C83.5032 244.322 81.4147 241.494 78.781 239.235C76.1473 236.976 73.037 235.344 69.6837 234.463L49.2621 233.43L49.1564 233.481C44.5481 235.743 40.7899 239.433 38.439 244.004C36.0882 248.575 35.2698 253.784 36.1053 258.858C36.1779 278.95 48.1735 294.274 43.9791 308.847C43.8032 309.456 43.7519 310.095 43.8282 310.724C43.9045 311.354 44.1069 311.962 44.4232 312.511C44.7299 313.042 45.1419 313.504 45.6337 313.87C46.1256 314.235 46.6869 314.495 47.283 314.635L74.2479 311.03C74.8778 311.18 75.5324 311.194 76.1681 311.071C76.8038 310.948 77.406 310.69 77.9345 310.315L77.4809 311.144Z" fill="#2F2E41"/>
<path d="M56.0774 225.786C68.5277 225.786 78.6206 215.671 78.6206 203.194C78.6206 190.717 68.5277 180.602 56.0774 180.602C43.6271 180.602 33.5342 190.717 33.5342 203.194C33.5342 215.671 43.6271 225.786 56.0774 225.786Z" fill="#9F616A"/>
<path d="M48.8969 223.93C50.0946 224.456 52.5474 214.891 51.4487 212.978C49.8147 210.133 49.9113 210.153 48.8266 208.271C47.7419 206.389 47.4992 203.813 48.9039 202.157C50.3085 200.5 53.5591 200.72 54.2002 202.797C53.7878 198.853 57.6806 195.682 61.5365 194.791C65.3924 193.9 69.4597 194.453 73.3369 193.661C77.8366 192.74 82.5183 188.961 80.723 184.002C80.4149 183.176 79.9537 182.417 79.3636 181.763C77.2894 179.426 74.3878 178.428 71.5509 177.463C65.6491 175.455 59.5858 173.422 53.3573 173.644C43.1233 174.008 33.4496 181.098 30.0016 190.761C29.5723 191.967 29.2398 193.205 29.0072 194.464C26.8693 205.984 33.5447 217.347 44.3868 221.734L48.8969 223.93Z" fill="#2F2E41"/>
<path d="M167.117 260.26L169.703 275.643C169.731 275.815 169.713 275.991 169.648 276.152L149.367 326.938C149.286 327.139 149.14 327.307 148.951 327.413C148.763 327.518 148.543 327.556 148.33 327.52C148.117 327.483 147.923 327.375 147.78 327.212C147.638 327.049 147.555 326.843 147.546 326.626L146.686 306.218C146.681 306.082 146.704 305.947 146.755 305.821L165.31 260.061C165.388 259.87 165.525 259.71 165.702 259.604C165.878 259.499 166.085 259.454 166.289 259.476C166.493 259.499 166.685 259.588 166.834 259.729C166.984 259.871 167.083 260.057 167.117 260.26Z" fill="#3F3D56"/>
<path d="M165.682 261.441L168.138 274.657L150.14 321L147.803 306.092L165.682 261.441Z" fill="#235DCF"/>
<path d="M86.9372 326.702C87.38 328.434 145.519 330.309 146.122 329.785C146.663 329.114 147.132 328.387 147.521 327.617C148.13 326.527 148.694 325.433 148.694 325.433L147.739 307.006L90.4671 300.873C90.4671 300.873 87.9334 316.25 87.1379 323.314C86.9583 324.434 86.891 325.569 86.9372 326.702Z" fill="#3F3D56"/>
<path opacity="0.1" d="M140.246 308.956L140.251 324.831L114.92 323.026L116.041 307.231L140.246 308.956Z" fill="black"/>
<path opacity="0.1" d="M107.237 311.706L107.39 311.687L106.194 318.436L92.121 317.433L92.6014 310.663L107.237 311.706Z" fill="black"/>
<path opacity="0.1" d="M86.9372 326.701C87.38 328.434 145.519 330.309 146.122 329.785C146.663 329.114 147.132 328.387 147.521 327.617L87.1379 323.314C86.9583 324.434 86.891 325.568 86.9372 326.701Z" fill="black"/>
<path d="M63.5922 299.184L112.635 308.357C112.758 308.665 112.896 308.966 113.05 309.259C113.716 310.516 114.639 311.618 115.758 312.493C116.877 313.369 118.168 313.999 119.545 314.342C120.929 314.691 122.37 314.739 123.774 314.484C125.178 314.23 126.511 313.677 127.684 312.864C129.81 311.402 131.296 309.18 131.84 306.655C132.383 304.129 131.942 301.491 130.607 299.281C129.271 297.07 127.143 295.456 124.658 294.768C122.173 294.08 119.519 294.371 117.241 295.58C116.844 295.794 116.463 296.034 116.099 296.301L73.5019 281.718L71.3216 270.712L53.6523 271.883L55.4832 290.333C55.7053 292.486 56.6142 294.51 58.075 296.105C59.5357 297.699 61.4705 298.779 63.5922 299.184Z" fill="#9F616A"/>
<path d="M53.0537 280.113L78.7284 271.656L72.7394 254.422C71.9441 252.134 70.3672 250.201 68.2874 248.965C66.2076 247.729 63.7588 247.27 61.3738 247.668C58.9611 248.071 56.7716 249.325 55.201 251.204C53.6303 253.084 52.7818 255.464 52.8089 257.915L53.0537 280.113Z" fill="#2F2E41"/>
<path d="M215.924 441H0.565246C0.415334 441 0.271561 440.94 0.165556 440.834C0.0595521 440.728 0 440.584 0 440.434C0 440.283 0.0595521 440.139 0.165556 440.033C0.271561 439.927 0.415334 439.867 0.565246 439.867H215.924C216.074 439.867 216.218 439.927 216.324 440.033C216.43 440.139 216.489 440.283 216.489 440.434C216.489 440.584 216.43 440.728 216.324 440.834C216.218 440.94 216.074 441 215.924 441Z" fill="#CBCBCB"/>
<path d="M299.698 423.153C310.027 428.51 314.619 440.174 314.619 440.174C314.619 440.174 302.465 443.153 292.136 437.796C281.806 432.438 277.214 420.774 277.214 420.774C277.214 420.774 289.368 417.795 299.698 423.153Z" fill="#F1F1F1"/>
</g>
<rect x="103" width="479" height="54" rx="5" fill="#FF626C"/>
<path d="M269.739 23.248V14.192H264.827L264.747 16.544C264.715 17.3333 264.661 18.0907 264.587 18.816C264.523 19.5413 264.427 20.1973 264.299 20.784C264.171 21.36 263.989 21.8347 263.755 22.208C263.531 22.5813 263.243 22.8107 262.891 22.896L261.163 22.608C261.579 22.64 261.92 22.5013 262.187 22.192C262.464 21.872 262.677 21.4293 262.827 20.864C262.987 20.288 263.104 19.6213 263.179 18.864C263.253 18.096 263.307 17.2747 263.339 16.4L263.451 12.8H271.323V23.248H269.739ZM260.763 26.448L260.779 22.608H272.971V26.448H271.483V24H262.267L262.251 26.448H260.763ZM273.494 23.984L273.59 22.688C273.665 22.6987 273.734 22.7093 273.798 22.72C273.862 22.7307 273.921 22.736 273.974 22.736C274.315 22.736 274.582 22.6187 274.774 22.384C274.977 22.1493 275.126 21.84 275.222 21.456C275.318 21.0613 275.387 20.6187 275.43 20.128C275.473 19.6373 275.505 19.1467 275.526 18.656L275.67 15.52H282.182V24H280.646V16.416L281.014 16.864H276.662L277.014 16.4L276.902 18.752C276.87 19.4987 276.811 20.1973 276.726 20.848C276.641 21.4987 276.507 22.0693 276.326 22.56C276.155 23.0507 275.915 23.4347 275.606 23.712C275.307 23.9893 274.918 24.128 274.438 24.128C274.299 24.128 274.15 24.112 273.99 24.08C273.841 24.0587 273.675 24.0267 273.494 23.984ZM290.576 24V21.024L290.816 21.312H288.112C286.981 21.312 286.096 21.072 285.456 20.592C284.827 20.112 284.512 19.4133 284.512 18.496C284.512 17.5147 284.848 16.7733 285.52 16.272C286.203 15.7707 287.109 15.52 288.24 15.52H291.952V24H290.576ZM284.432 24L286.736 20.752H288.32L286.08 24H284.432ZM290.576 20.544V16.432L290.816 16.864H288.288C287.584 16.864 287.04 16.9973 286.656 17.264C286.272 17.52 286.08 17.9467 286.08 18.544C286.08 19.6533 286.795 20.208 288.224 20.208H290.816L290.576 20.544ZM299.246 24V15.52H300.782V19.12H305.614V15.52H307.15V24H305.614V20.448H300.782V24H299.246ZM313.768 24.096C312.915 24.096 312.158 23.9093 311.496 23.536C310.835 23.1627 310.312 22.6507 309.928 22C309.544 21.3387 309.352 20.592 309.352 19.76C309.352 18.9173 309.544 18.1707 309.928 17.52C310.312 16.8693 310.835 16.3627 311.496 16C312.158 15.6267 312.915 15.44 313.768 15.44C314.611 15.44 315.363 15.6267 316.024 16C316.696 16.3627 317.219 16.8693 317.592 17.52C317.976 18.16 318.168 18.9067 318.168 19.76C318.168 20.6027 317.976 21.3493 317.592 22C317.219 22.6507 316.696 23.1627 316.024 23.536C315.363 23.9093 314.611 24.096 313.768 24.096ZM313.768 22.752C314.312 22.752 314.798 22.6293 315.224 22.384C315.662 22.1387 316.003 21.792 316.248 21.344C316.494 20.8853 316.616 20.3573 316.616 19.76C316.616 19.152 316.494 18.6293 316.248 18.192C316.003 17.744 315.662 17.3973 315.224 17.152C314.798 16.9067 314.312 16.784 313.768 16.784C313.224 16.784 312.739 16.9067 312.312 17.152C311.886 17.3973 311.544 17.744 311.288 18.192C311.032 18.6293 310.904 19.152 310.904 19.76C310.904 20.3573 311.032 20.8853 311.288 21.344C311.544 21.792 311.886 22.1387 312.312 22.384C312.739 22.6293 313.224 22.752 313.768 22.752ZM320.386 24V15.52H324.322C325.314 15.52 326.093 15.712 326.658 16.096C327.234 16.4693 327.522 17.0027 327.522 17.696C327.522 18.3893 327.25 18.928 326.706 19.312C326.173 19.6853 325.464 19.872 324.578 19.872L324.818 19.456C325.832 19.456 326.584 19.6427 327.074 20.016C327.565 20.3893 327.81 20.9387 327.81 21.664C327.81 22.4 327.533 22.976 326.978 23.392C326.434 23.7973 325.597 24 324.466 24H320.386ZM321.89 22.816H324.354C324.994 22.816 325.474 22.72 325.794 22.528C326.114 22.3253 326.274 22.0053 326.274 21.568C326.274 21.12 326.125 20.7947 325.826 20.592C325.538 20.3787 325.08 20.272 324.45 20.272H321.89V22.816ZM321.89 19.168H324.194C324.781 19.168 325.224 19.0613 325.522 18.848C325.832 18.624 325.986 18.3147 325.986 17.92C325.986 17.5147 325.832 17.2107 325.522 17.008C325.224 16.8053 324.781 16.704 324.194 16.704H321.89V19.168ZM338.599 24V15.52H340.135V24H338.599ZM334.039 18.4C335.116 18.4107 335.932 18.656 336.487 19.136C337.052 19.616 337.335 20.2933 337.335 21.168C337.335 22.0853 337.025 22.7947 336.407 23.296C335.799 23.7867 334.924 24.0267 333.783 24.016L330.215 24V15.52H331.751V18.384L334.039 18.4ZM333.671 22.848C334.353 22.8587 334.876 22.72 335.239 22.432C335.601 22.144 335.783 21.7173 335.783 21.152C335.783 20.5973 335.601 20.192 335.239 19.936C334.887 19.68 334.364 19.5467 333.671 19.536L331.751 19.504V22.832L333.671 22.848ZM341.777 24L345.425 19.264L345.409 20.048L341.937 15.52H343.649L346.305 19.008H345.649L348.305 15.52H349.985L346.465 20.08L346.481 19.264L350.161 24H348.417L345.617 20.288L346.241 20.384L343.489 24H341.777ZM362.218 24L358.938 19.872L360.202 19.104L364.026 24H362.218ZM356.074 24V15.52H357.61V24H356.074ZM357.146 20.416V19.104H359.946V20.416H357.146ZM360.33 19.936L358.906 19.744L362.154 15.52H363.802L360.33 19.936ZM364.228 23.984L364.324 22.688C364.399 22.6987 364.468 22.7093 364.532 22.72C364.596 22.7307 364.655 22.736 364.708 22.736C365.05 22.736 365.316 22.6187 365.508 22.384C365.711 22.1493 365.86 21.84 365.956 21.456C366.052 21.0613 366.122 20.6187 366.164 20.128C366.207 19.6373 366.239 19.1467 366.26 18.656L366.404 15.52H372.916V24H371.38V16.416L371.748 16.864H367.396L367.748 16.4L367.636 18.752C367.604 19.4987 367.546 20.1973 367.46 20.848C367.375 21.4987 367.242 22.0693 367.06 22.56C366.89 23.0507 366.65 23.4347 366.34 23.712C366.042 23.9893 365.652 24.128 365.172 24.128C365.034 24.128 364.884 24.112 364.724 24.08C364.575 24.0587 364.41 24.0267 364.228 23.984ZM375.886 24V15.52H377.422V21.696L382.622 15.52H384.014V24H382.478V17.824L377.294 24H375.886ZM390.772 24.096C389.865 24.096 389.065 23.9093 388.372 23.536C387.689 23.1627 387.156 22.6507 386.772 22C386.398 21.3493 386.212 20.6027 386.212 19.76C386.212 18.9173 386.393 18.1707 386.756 17.52C387.129 16.8693 387.636 16.3627 388.276 16C388.926 15.6267 389.657 15.44 390.468 15.44C391.289 15.44 392.014 15.6213 392.644 15.984C393.273 16.3467 393.764 16.8587 394.116 17.52C394.478 18.1707 394.66 18.9333 394.66 19.808C394.66 19.872 394.654 19.9467 394.644 20.032C394.644 20.1173 394.638 20.1973 394.628 20.272H387.412V19.168H393.828L393.204 19.552C393.214 19.008 393.102 18.5227 392.868 18.096C392.633 17.6693 392.308 17.3387 391.892 17.104C391.486 16.8587 391.012 16.736 390.468 16.736C389.934 16.736 389.46 16.8587 389.044 17.104C388.628 17.3387 388.302 17.6747 388.068 18.112C387.833 18.5387 387.716 19.0293 387.716 19.584V19.84C387.716 20.4053 387.844 20.912 388.1 21.36C388.366 21.7973 388.734 22.1387 389.204 22.384C389.673 22.6293 390.212 22.752 390.82 22.752C391.321 22.752 391.774 22.6667 392.18 22.496C392.596 22.3253 392.958 22.0693 393.268 21.728L394.116 22.72C393.732 23.168 393.252 23.5093 392.676 23.744C392.11 23.9787 391.476 24.096 390.772 24.096ZM397.043 24V15.52H398.579V19.12H403.411V15.52H404.947V24H403.411V20.448H398.579V24H397.043ZM409.613 24V16.464L409.997 16.864H406.509V15.52H414.253V16.864H410.781L411.149 16.464V24H409.613ZM419.081 24.096C418.228 24.096 417.47 23.9093 416.809 23.536C416.148 23.1627 415.625 22.6507 415.241 22C414.857 21.3387 414.665 20.592 414.665 19.76C414.665 18.9173 414.857 18.1707 415.241 17.52C415.625 16.8693 416.148 16.3627 416.809 16C417.47 15.6267 418.228 15.44 419.081 15.44C419.924 15.44 420.676 15.6267 421.337 16C422.009 16.3627 422.532 16.8693 422.905 17.52C423.289 18.16 423.481 18.9067 423.481 19.76C423.481 20.6027 423.289 21.3493 422.905 22C422.532 22.6507 422.009 23.1627 421.337 23.536C420.676 23.9093 419.924 24.096 419.081 24.096ZM419.081 22.752C419.625 22.752 420.11 22.6293 420.537 22.384C420.974 22.1387 421.316 21.792 421.561 21.344C421.806 20.8853 421.929 20.3573 421.929 19.76C421.929 19.152 421.806 18.6293 421.561 18.192C421.316 17.744 420.974 17.3973 420.537 17.152C420.11 16.9067 419.625 16.784 419.081 16.784C418.537 16.784 418.052 16.9067 417.625 17.152C417.198 17.3973 416.857 17.744 416.601 18.192C416.345 18.6293 416.217 19.152 416.217 19.76C416.217 20.3573 416.345 20.8853 416.601 21.344C416.857 21.792 417.198 22.1387 417.625 22.384C418.052 22.6293 418.537 22.752 419.081 22.752ZM425.699 24V15.52H429.635C430.627 15.52 431.406 15.712 431.971 16.096C432.547 16.4693 432.835 17.0027 432.835 17.696C432.835 18.3893 432.563 18.928 432.019 19.312C431.486 19.6853 430.776 19.872 429.891 19.872L430.131 19.456C431.144 19.456 431.896 19.6427 432.387 20.016C432.878 20.3893 433.123 20.9387 433.123 21.664C433.123 22.4 432.846 22.976 432.291 23.392C431.747 23.7973 430.91 24 429.779 24H425.699ZM427.203 22.816H429.667C430.307 22.816 430.787 22.72 431.107 22.528C431.427 22.3253 431.587 22.0053 431.587 21.568C431.587 21.12 431.438 20.7947 431.139 20.592C430.851 20.3787 430.392 20.272 429.763 20.272H427.203V22.816ZM427.203 19.168H429.507C430.094 19.168 430.536 19.0613 430.835 18.848C431.144 18.624 431.299 18.3147 431.299 17.92C431.299 17.5147 431.144 17.2107 430.835 17.008C430.536 16.8053 430.094 16.704 429.507 16.704H427.203V19.168ZM204.103 42V30.8H213.751V42H212.183V31.776L212.567 32.192H205.287L205.687 31.776V42H204.103ZM222.188 42V40.208L222.108 39.872V36.816C222.108 36.1653 221.916 35.664 221.532 35.312C221.159 34.9493 220.593 34.768 219.836 34.768C219.335 34.768 218.844 34.8533 218.364 35.024C217.884 35.184 217.479 35.4027 217.148 35.68L216.508 34.528C216.945 34.176 217.468 33.9093 218.076 33.728C218.695 33.536 219.34 33.44 220.012 33.44C221.175 33.44 222.071 33.7227 222.7 34.288C223.329 34.8533 223.644 35.7173 223.644 36.88V42H222.188ZM219.404 42.096C218.775 42.096 218.22 41.9893 217.74 41.776C217.271 41.5627 216.908 41.2693 216.652 40.896C216.396 40.512 216.268 40.08 216.268 39.6C216.268 39.1413 216.375 38.7253 216.588 38.352C216.812 37.9787 217.169 37.68 217.66 37.456C218.161 37.232 218.833 37.12 219.676 37.12H222.364V38.224H219.74C218.972 38.224 218.455 38.352 218.188 38.608C217.921 38.864 217.788 39.1733 217.788 39.536C217.788 39.952 217.953 40.288 218.284 40.544C218.615 40.7893 219.073 40.912 219.66 40.912C220.236 40.912 220.737 40.784 221.164 40.528C221.601 40.272 221.916 39.8987 222.108 39.408L222.412 40.464C222.209 40.9653 221.852 41.3653 221.34 41.664C220.828 41.952 220.183 42.096 219.404 42.096ZM232.554 42L229.274 37.872L230.538 37.104L234.362 42H232.554ZM226.41 42V33.52H227.946V42H226.41ZM227.482 38.416V37.104H230.282V38.416H227.482ZM230.666 37.936L229.242 37.744L232.49 33.52H234.138L230.666 37.936ZM239.467 42.096C238.56 42.096 237.76 41.9093 237.067 41.536C236.384 41.1627 235.851 40.6507 235.467 40C235.094 39.3493 234.907 38.6027 234.907 37.76C234.907 36.9173 235.088 36.1707 235.451 35.52C235.824 34.8693 236.331 34.3627 236.971 34C237.622 33.6267 238.352 33.44 239.163 33.44C239.984 33.44 240.71 33.6213 241.339 33.984C241.968 34.3467 242.459 34.8587 242.811 35.52C243.174 36.1707 243.355 36.9333 243.355 37.808C243.355 37.872 243.35 37.9467 243.339 38.032C243.339 38.1173 243.334 38.1973 243.323 38.272H236.107V37.168H242.523L241.899 37.552C241.91 37.008 241.798 36.5227 241.563 36.096C241.328 35.6693 241.003 35.3387 240.587 35.104C240.182 34.8587 239.707 34.736 239.163 34.736C238.63 34.736 238.155 34.8587 237.739 35.104C237.323 35.3387 236.998 35.6747 236.763 36.112C236.528 36.5387 236.411 37.0293 236.411 37.584V37.84C236.411 38.4053 236.539 38.912 236.795 39.36C237.062 39.7973 237.43 40.1387 237.899 40.384C238.368 40.6293 238.907 40.752 239.515 40.752C240.016 40.752 240.47 40.6667 240.875 40.496C241.291 40.3253 241.654 40.0693 241.963 39.728L242.811 40.72C242.427 41.168 241.947 41.5093 241.371 41.744C240.806 41.9787 240.171 42.096 239.467 42.096ZM247.059 42V34.464L247.443 34.864H243.955V33.52H251.699V34.864H248.227L248.595 34.464V42H247.059ZM262.814 42.128C261.95 42.128 261.155 41.9893 260.43 41.712C259.705 41.424 259.075 41.024 258.542 40.512C258.009 39.9893 257.593 39.3813 257.294 38.688C256.995 37.9947 256.846 37.232 256.846 36.4C256.846 35.568 256.995 34.8053 257.294 34.112C257.593 33.4187 258.009 32.816 258.542 32.304C259.086 31.7813 259.721 31.3813 260.446 31.104C261.171 30.816 261.971 30.672 262.846 30.672C263.731 30.672 264.542 30.816 265.278 31.104C266.014 31.392 266.638 31.824 267.15 32.4L266.158 33.392C265.699 32.944 265.198 32.6187 264.654 32.416C264.121 32.2027 263.539 32.096 262.91 32.096C262.27 32.096 261.673 32.2027 261.118 32.416C260.574 32.6293 260.099 32.928 259.694 33.312C259.299 33.696 258.99 34.1547 258.766 34.688C258.553 35.2107 258.446 35.7813 258.446 36.4C258.446 37.008 258.553 37.5787 258.766 38.112C258.99 38.6347 259.299 39.0933 259.694 39.488C260.099 39.872 260.574 40.1707 261.118 40.384C261.662 40.5973 262.254 40.704 262.894 40.704C263.491 40.704 264.062 40.6133 264.606 40.432C265.161 40.24 265.673 39.9253 266.142 39.488L267.054 40.704C266.499 41.1733 265.849 41.5307 265.102 41.776C264.366 42.0107 263.603 42.128 262.814 42.128ZM265.518 40.496V36.336H267.054V40.704L265.518 40.496ZM275.174 42.128C274.32 42.128 273.526 41.984 272.79 41.696C272.064 41.408 271.435 41.008 270.902 40.496C270.368 39.9733 269.952 39.3653 269.654 38.672C269.355 37.9787 269.206 37.2213 269.206 36.4C269.206 35.5787 269.355 34.8213 269.654 34.128C269.952 33.4347 270.368 32.832 270.902 32.32C271.435 31.7973 272.064 31.392 272.79 31.104C273.515 30.816 274.31 30.672 275.174 30.672C276.027 30.672 276.811 30.816 277.526 31.104C278.251 31.3813 278.88 31.7813 279.414 32.304C279.958 32.816 280.374 33.4187 280.662 34.112C280.96 34.8053 281.11 35.568 281.11 36.4C281.11 37.232 280.96 37.9947 280.662 38.688C280.374 39.3813 279.958 39.9893 279.414 40.512C278.88 41.024 278.251 41.424 277.526 41.712C276.811 41.9893 276.027 42.128 275.174 42.128ZM275.174 40.704C275.792 40.704 276.363 40.5973 276.885 40.384C277.419 40.1707 277.878 39.872 278.262 39.488C278.656 39.0933 278.96 38.6347 279.174 38.112C279.398 37.5893 279.51 37.0187 279.51 36.4C279.51 35.7813 279.398 35.2107 279.174 34.688C278.96 34.1653 278.656 33.712 278.262 33.328C277.878 32.9333 277.419 32.6293 276.885 32.416C276.363 32.2027 275.792 32.096 275.174 32.096C274.544 32.096 273.963 32.2027 273.43 32.416C272.907 32.6293 272.448 32.9333 272.054 33.328C271.659 33.712 271.35 34.1653 271.126 34.688C270.912 35.2107 270.806 35.7813 270.806 36.4C270.806 37.0187 270.912 37.5893 271.126 38.112C271.35 38.6347 271.659 39.0933 272.054 39.488C272.448 39.872 272.907 40.1707 273.43 40.384C273.963 40.5973 274.544 40.704 275.174 40.704ZM283.555 42V30.8H285.155V40.608H291.219V42H283.555ZM293.055 42V30.8H297.775C298.97 30.8 300.02 31.0347 300.927 31.504C301.844 31.9733 302.554 32.6293 303.055 33.472C303.567 34.3147 303.823 35.2907 303.823 36.4C303.823 37.5093 303.567 38.4853 303.055 39.328C302.554 40.1707 301.844 40.8267 300.927 41.296C300.02 41.7653 298.97 42 297.775 42H293.055ZM294.655 40.608H297.679C298.607 40.608 299.407 40.432 300.079 40.08C300.762 39.728 301.29 39.2373 301.663 38.608C302.036 37.968 302.223 37.232 302.223 36.4C302.223 35.5573 302.036 34.8213 301.663 34.192C301.29 33.5627 300.762 33.072 300.079 32.72C299.407 32.368 298.607 32.192 297.679 32.192H294.655V40.608ZM310.379 42V33.52H311.915V37.12H316.747V33.52H318.283V42H316.747V38.448H311.915V42H310.379ZM326.469 42V40.208L326.389 39.872V36.816C326.389 36.1653 326.197 35.664 325.813 35.312C325.44 34.9493 324.875 34.768 324.117 34.768C323.616 34.768 323.125 34.8533 322.645 35.024C322.165 35.184 321.76 35.4027 321.429 35.68L320.789 34.528C321.227 34.176 321.749 33.9093 322.357 33.728C322.976 33.536 323.621 33.44 324.293 33.44C325.456 33.44 326.352 33.7227 326.981 34.288C327.611 34.8533 327.925 35.7173 327.925 36.88V42H326.469ZM323.685 42.096C323.056 42.096 322.501 41.9893 322.021 41.776C321.552 41.5627 321.189 41.2693 320.933 40.896C320.677 40.512 320.549 40.08 320.549 39.6C320.549 39.1413 320.656 38.7253 320.869 38.352C321.093 37.9787 321.451 37.68 321.941 37.456C322.443 37.232 323.115 37.12 323.957 37.12H326.645V38.224H324.021C323.253 38.224 322.736 38.352 322.469 38.608C322.203 38.864 322.069 39.1733 322.069 39.536C322.069 39.952 322.235 40.288 322.565 40.544C322.896 40.7893 323.355 40.912 323.941 40.912C324.517 40.912 325.019 40.784 325.445 40.528C325.883 40.272 326.197 39.8987 326.389 39.408L326.693 40.464C326.491 40.9653 326.133 41.3653 325.621 41.664C325.109 41.952 324.464 42.096 323.685 42.096ZM336.204 42L340.956 31.472L341.372 32.192H334.716L335.516 31.408V34.192H333.98V30.8H342.428V31.888L337.9 42H336.204ZM354.639 41.28V34.864H350.959L350.879 36.496C350.858 37.0293 350.821 37.5467 350.767 38.048C350.725 38.5387 350.65 38.992 350.543 39.408C350.447 39.824 350.303 40.1653 350.111 40.432C349.919 40.6987 349.663 40.864 349.343 40.928L347.823 40.656C348.154 40.6667 348.421 40.56 348.623 40.336C348.826 40.1013 348.981 39.7813 349.087 39.376C349.205 38.9707 349.29 38.512 349.343 38C349.397 37.4773 349.439 36.9387 349.471 36.384L349.599 33.52H356.175V41.28H354.639ZM347.487 43.968V40.656H357.471V43.968H356.031V42H348.943V43.968H347.487ZM359.472 42V33.52H361.008V37.12H365.84V33.52H367.376V42H365.84V38.448H361.008V42H359.472ZM374.139 42.096C373.232 42.096 372.432 41.9093 371.739 41.536C371.056 41.1627 370.523 40.6507 370.139 40C369.766 39.3493 369.579 38.6027 369.579 37.76C369.579 36.9173 369.76 36.1707 370.123 35.52C370.496 34.8693 371.003 34.3627 371.643 34C372.294 33.6267 373.024 33.44 373.835 33.44C374.656 33.44 375.382 33.6213 376.011 33.984C376.64 34.3467 377.131 34.8587 377.483 35.52C377.846 36.1707 378.027 36.9333 378.027 37.808C378.027 37.872 378.022 37.9467 378.011 38.032C378.011 38.1173 378.006 38.1973 377.995 38.272H370.779V37.168H377.195L376.571 37.552C376.582 37.008 376.47 36.5227 376.235 36.096C376 35.6693 375.675 35.3387 375.259 35.104C374.854 34.8587 374.379 34.736 373.835 34.736C373.302 34.736 372.827 34.8587 372.411 35.104C371.995 35.3387 371.67 35.6747 371.435 36.112C371.2 36.5387 371.083 37.0293 371.083 37.584V37.84C371.083 38.4053 371.211 38.912 371.467 39.36C371.734 39.7973 372.102 40.1387 372.571 40.384C373.04 40.6293 373.579 40.752 374.187 40.752C374.688 40.752 375.142 40.6667 375.547 40.496C375.963 40.3253 376.326 40.0693 376.635 39.728L377.483 40.72C377.099 41.168 376.619 41.5093 376.043 41.744C375.478 41.9787 374.843 42.096 374.139 42.096ZM380.41 42V33.52H381.946V39.696L387.146 33.52H388.538V42H387.002V35.824L381.818 42H380.41ZM384.378 32.416C383.599 32.416 382.986 32.2293 382.538 31.856C382.101 31.472 381.877 30.9227 381.866 30.208H382.906C382.917 30.6133 383.05 30.9333 383.306 31.168C383.573 31.4027 383.925 31.52 384.362 31.52C384.799 31.52 385.151 31.4027 385.418 31.168C385.685 30.9333 385.823 30.6133 385.834 30.208H386.906C386.895 30.9227 386.666 31.472 386.218 31.856C385.77 32.2293 385.157 32.416 384.378 32.416ZM399.736 42.128C399.032 42.128 398.408 42.016 397.864 41.792C397.331 41.568 396.872 41.2373 396.488 40.8C396.104 40.352 395.811 39.792 395.608 39.12C395.416 38.4373 395.32 37.6373 395.32 36.72C395.32 35.9947 395.384 35.344 395.512 34.768C395.64 34.192 395.821 33.68 396.056 33.232C396.301 32.784 396.6 32.3947 396.952 32.064C397.315 31.7333 397.72 31.4613 398.168 31.248C398.627 31.024 399.128 30.8533 399.672 30.736L403.544 29.872L403.768 31.296L400.2 32.064C399.987 32.1067 399.731 32.1707 399.432 32.256C399.133 32.3413 398.829 32.4747 398.52 32.656C398.211 32.8267 397.923 33.0667 397.656 33.376C397.389 33.6853 397.176 34.0907 397.016 34.592C396.856 35.0827 396.776 35.6907 396.776 36.416C396.776 36.6187 396.781 36.7733 396.792 36.88C396.803 36.9867 396.813 37.0933 396.824 37.2C396.845 37.3067 396.861 37.4667 396.872 37.68L396.232 37.024C396.403 36.4373 396.675 35.9253 397.048 35.488C397.421 35.0507 397.869 34.7147 398.392 34.48C398.925 34.2347 399.507 34.112 400.136 34.112C400.925 34.112 401.624 34.2827 402.232 34.624C402.851 34.9653 403.336 35.4347 403.688 36.032C404.04 36.6293 404.216 37.312 404.216 38.08C404.216 38.8587 404.029 39.5573 403.656 40.176C403.293 40.784 402.776 41.264 402.104 41.616C401.432 41.9573 400.643 42.128 399.736 42.128ZM399.88 40.848C400.424 40.848 400.904 40.7307 401.32 40.496C401.736 40.2507 402.061 39.9253 402.296 39.52C402.531 39.104 402.648 38.64 402.648 38.128C402.648 37.616 402.531 37.1627 402.296 36.768C402.061 36.3733 401.736 36.064 401.32 35.84C400.904 35.6053 400.413 35.488 399.848 35.488C399.315 35.488 398.835 35.6 398.408 35.824C397.981 36.0373 397.651 36.3413 397.416 36.736C397.181 37.12 397.064 37.568 397.064 38.08C397.064 38.592 397.181 39.0613 397.416 39.488C397.661 39.904 397.992 40.2347 398.408 40.48C398.835 40.7253 399.325 40.848 399.88 40.848ZM410.186 42.096C409.279 42.096 408.479 41.9093 407.786 41.536C407.103 41.1627 406.57 40.6507 406.186 40C405.813 39.3493 405.626 38.6027 405.626 37.76C405.626 36.9173 405.807 36.1707 406.17 35.52C406.543 34.8693 407.05 34.3627 407.69 34C408.341 33.6267 409.071 33.44 409.882 33.44C410.703 33.44 411.429 33.6213 412.058 33.984C412.687 34.3467 413.178 34.8587 413.53 35.52C413.893 36.1707 414.074 36.9333 414.074 37.808C414.074 37.872 414.069 37.9467 414.058 38.032C414.058 38.1173 414.053 38.1973 414.042 38.272H406.826V37.168H413.242L412.618 37.552C412.629 37.008 412.517 36.5227 412.282 36.096C412.047 35.6693 411.722 35.3387 411.306 35.104C410.901 34.8587 410.426 34.736 409.882 34.736C409.349 34.736 408.874 34.8587 408.458 35.104C408.042 35.3387 407.717 35.6747 407.482 36.112C407.247 36.5387 407.13 37.0293 407.13 37.584V37.84C407.13 38.4053 407.258 38.912 407.514 39.36C407.781 39.7973 408.149 40.1387 408.618 40.384C409.087 40.6293 409.626 40.752 410.234 40.752C410.735 40.752 411.189 40.6667 411.594 40.496C412.01 40.3253 412.373 40.0693 412.682 39.728L413.53 40.72C413.146 41.168 412.666 41.5093 412.09 41.744C411.525 41.9787 410.89 42.096 410.186 42.096ZM420.153 42.096C419.289 42.096 418.515 41.9093 417.833 41.536C417.161 41.1627 416.633 40.6507 416.249 40C415.865 39.3493 415.673 38.6027 415.673 37.76C415.673 36.9173 415.865 36.1707 416.249 35.52C416.633 34.8693 417.161 34.3627 417.833 34C418.515 33.6267 419.289 33.44 420.153 33.44C420.921 33.44 421.603 33.5947 422.201 33.904C422.809 34.2027 423.278 34.6507 423.609 35.248L422.441 36C422.163 35.584 421.822 35.28 421.417 35.088C421.022 34.8853 420.595 34.784 420.137 34.784C419.582 34.784 419.086 34.9067 418.649 35.152C418.211 35.3973 417.865 35.744 417.609 36.192C417.353 36.6293 417.225 37.152 417.225 37.76C417.225 38.368 417.353 38.896 417.609 39.344C417.865 39.792 418.211 40.1387 418.649 40.384C419.086 40.6293 419.582 40.752 420.137 40.752C420.595 40.752 421.022 40.656 421.417 40.464C421.822 40.2613 422.163 39.952 422.441 39.536L423.609 40.272C423.278 40.8587 422.809 41.312 422.201 41.632C421.603 41.9413 420.921 42.096 420.153 42.096ZM425.597 42V33.52H433.453V42H431.917V34.48L432.285 34.864H426.765L427.133 34.48V42H425.597ZM435.018 41.984L435.114 40.688C435.188 40.6987 435.258 40.7093 435.322 40.72C435.386 40.7307 435.444 40.736 435.498 40.736C435.839 40.736 436.106 40.6187 436.298 40.384C436.5 40.1493 436.65 39.84 436.746 39.456C436.842 39.0613 436.911 38.6187 436.954 38.128C436.996 37.6373 437.028 37.1467 437.049 36.656L437.194 33.52H443.706V42H442.17V34.416L442.538 34.864H438.186L438.538 34.4L438.426 36.752C438.394 37.4987 438.335 38.1973 438.25 38.848C438.164 39.4987 438.031 40.0693 437.85 40.56C437.679 41.0507 437.439 41.4347 437.13 41.712C436.831 41.9893 436.442 42.128 435.962 42.128C435.823 42.128 435.674 42.112 435.514 42.08C435.364 42.0587 435.199 42.0267 435.018 41.984ZM451.876 42V40.208L451.796 39.872V36.816C451.796 36.1653 451.604 35.664 451.22 35.312C450.846 34.9493 450.281 34.768 449.524 34.768C449.022 34.768 448.532 34.8533 448.052 35.024C447.572 35.184 447.166 35.4027 446.836 35.68L446.196 34.528C446.633 34.176 447.156 33.9093 447.764 33.728C448.382 33.536 449.028 33.44 449.7 33.44C450.862 33.44 451.758 33.7227 452.388 34.288C453.017 34.8533 453.332 35.7173 453.332 36.88V42H451.876ZM449.092 42.096C448.462 42.096 447.908 41.9893 447.428 41.776C446.958 41.5627 446.596 41.2693 446.34 40.896C446.084 40.512 445.956 40.08 445.956 39.6C445.956 39.1413 446.062 38.7253 446.276 38.352C446.5 37.9787 446.857 37.68 447.348 37.456C447.849 37.232 448.521 37.12 449.364 37.12H452.052V38.224H449.428C448.66 38.224 448.142 38.352 447.876 38.608C447.609 38.864 447.476 39.1733 447.476 39.536C447.476 39.952 447.641 40.288 447.972 40.544C448.302 40.7893 448.761 40.912 449.348 40.912C449.924 40.912 450.425 40.784 450.852 40.528C451.289 40.272 451.604 39.8987 451.796 39.408L452.1 40.464C451.897 40.9653 451.54 41.3653 451.028 41.664C450.516 41.952 449.87 42.096 449.092 42.096ZM457.777 42V34.464L458.161 34.864H454.673V33.52H462.417V34.864H458.945L459.313 34.464V42H457.777ZM463.988 42V33.52H465.524V37.12H470.356V33.52H471.892V42H470.356V38.448H465.524V42H463.988ZM478.511 42.096C477.657 42.096 476.9 41.9093 476.239 41.536C475.577 41.1627 475.055 40.6507 474.671 40C474.287 39.3387 474.095 38.592 474.095 37.76C474.095 36.9173 474.287 36.1707 474.671 35.52C475.055 34.8693 475.577 34.3627 476.239 34C476.9 33.6267 477.657 33.44 478.511 33.44C479.353 33.44 480.105 33.6267 480.767 34C481.439 34.3627 481.961 34.8693 482.335 35.52C482.719 36.16 482.911 36.9067 482.911 37.76C482.911 38.6027 482.719 39.3493 482.335 40C481.961 40.6507 481.439 41.1627 480.767 41.536C480.105 41.9093 479.353 42.096 478.511 42.096ZM478.511 40.752C479.055 40.752 479.54 40.6293 479.967 40.384C480.404 40.1387 480.745 39.792 480.991 39.344C481.236 38.8853 481.359 38.3573 481.359 37.76C481.359 37.152 481.236 36.6293 480.991 36.192C480.745 35.744 480.404 35.3973 479.967 35.152C479.54 34.9067 479.055 34.784 478.511 34.784C477.967 34.784 477.481 34.9067 477.055 35.152C476.628 35.3973 476.287 35.744 476.031 36.192C475.775 36.6293 475.647 37.152 475.647 37.76C475.647 38.3573 475.775 38.8853 476.031 39.344C476.287 39.792 476.628 40.1387 477.055 40.384C477.481 40.6293 477.967 40.752 478.511 40.752Z" fill="white"/>
<defs>
<clipPath id="clip0_2032_8">
<rect width="354" height="309" fill="white" transform="translate(396 134)"/>
</clipPath>
<clipPath id="clip1_2032_8">
<rect width="437" height="346" fill="white" transform="translate(0 95)"/>
</clipPath>
</defs>
</svg>
