<svg width="750" height="348" viewBox="0 0 750 348" fill="none" xmlns="http://www.w3.org/2000/svg">
<g clip-path="url(#clip0_2032_8)">
<path d="M462.518 256.603L458.867 285.304L453.495 252.701C427.678 242.813 397.491 240.893 397.491 240.893C397.491 240.893 390.829 303.162 412.823 329.2C434.817 355.237 458.006 351.279 477.138 335.182C496.27 319.085 504.1 296.945 482.106 270.907C477.211 265.112 470.3 260.412 462.518 256.603Z" fill="#F2F2F2"/>
<path d="M455.359 289.643L456.443 290.926C468.968 305.909 476.28 319.669 478.256 332.027C478.288 332.207 478.309 332.385 478.34 332.565L477.502 332.694L476.695 332.808C474.706 319.341 466.08 305.197 455.159 292.126C454.811 291.702 454.458 291.271 454.092 290.85C449.42 285.358 444.375 280.07 439.262 275.112C438.869 274.725 438.465 274.336 438.061 273.948C431.277 267.439 424.431 261.526 418.316 256.53C417.885 256.175 417.448 255.825 417.017 255.482C406.631 247.068 398.543 241.451 396.739 240.218C396.522 240.064 396.399 239.983 396.371 239.963L396.831 239.282L396.832 239.271L397.298 238.585C397.326 238.605 397.74 238.876 398.487 239.4C401.294 241.342 408.833 246.683 418.181 254.23C418.601 254.573 419.038 254.923 419.469 255.278C424.435 259.327 429.861 263.957 435.327 269.01C436.702 270.277 438.042 271.541 439.347 272.801C439.757 273.184 440.161 273.572 440.554 273.96C446.082 279.318 451.017 284.546 455.359 289.643Z" fill="white"/>
<path d="M418.181 254.231C417.803 254.647 417.418 255.068 417.017 255.482C415.927 256.609 414.781 257.678 413.582 258.688C408.477 262.994 402.469 266.103 396 267.785C396.017 268.346 396.034 268.908 396.05 269.482C402.898 267.763 409.262 264.506 414.655 259.958C415.935 258.881 417.157 257.737 418.316 256.53C418.711 256.122 419.096 255.7 419.469 255.278C422.564 251.812 425.113 247.896 427.03 243.666C426.462 243.547 425.904 243.429 425.359 243.312C423.518 247.284 421.099 250.964 418.181 254.231Z" fill="white"/>
<path d="M439.347 272.801C438.929 273.196 438.5 273.579 438.061 273.948C437.933 274.067 437.793 274.185 437.659 274.297C432.121 278.957 425.537 282.211 418.467 283.782C411.397 285.353 404.051 285.194 397.056 283.319C397.118 283.908 397.18 284.498 397.254 285.088C404.428 286.903 411.933 286.987 419.146 285.331C426.359 283.676 433.073 280.329 438.732 275.568C438.911 275.418 439.089 275.268 439.262 275.112C439.702 274.731 440.13 274.348 440.554 273.96C447.057 267.893 451.673 260.086 453.848 251.471C453.327 251.267 452.807 251.064 452.28 250.866C450.2 259.278 445.705 266.901 439.347 272.801Z" fill="white"/>
<path d="M455.359 289.643C454.946 290.056 454.521 290.456 454.092 290.85C453.631 291.271 453.164 291.686 452.686 292.087C445.238 298.34 435.96 302.016 426.243 302.566C416.526 303.115 406.892 300.509 398.783 295.137C398.931 295.893 399.074 296.642 399.235 297.387C407.595 302.52 417.362 304.893 427.15 304.17C436.938 303.447 446.249 299.664 453.76 293.358C454.237 292.956 454.709 292.548 455.159 292.126C455.6 291.733 456.024 291.333 456.443 290.926C464.851 282.65 469.793 271.495 470.268 259.719C469.738 259.361 469.193 259.026 468.643 258.685C468.417 270.335 463.652 281.44 455.359 289.643Z" fill="white"/>
<path d="M599.174 112.042V65.777C599.174 58.6753 596.348 51.8645 591.316 46.8429C586.284 41.8212 579.46 39 572.344 39H474.13C470.606 39 467.118 39.6926 463.862 41.0382C460.607 42.3839 457.649 44.3562 455.158 46.8427C452.666 49.3292 450.69 52.281 449.342 55.5298C447.993 58.7785 447.299 62.2605 447.299 65.7769V96.5029H445.574V107.329H447.299V118.877H445.574V135.478H447.299V142.695H445.574V159.296H447.299V319.591C447.299 323.107 447.993 326.589 449.342 329.838C450.69 333.087 452.666 336.039 455.158 338.525C457.649 341.011 460.607 342.984 463.862 344.329C467.117 345.675 470.606 346.368 474.13 346.368H572.344C575.867 346.368 579.356 345.675 582.611 344.33C585.867 342.984 588.824 341.012 591.316 338.525C593.807 336.039 595.784 333.087 597.132 329.838C598.48 326.589 599.174 323.107 599.174 319.591V144.974H600.867V112.042H599.174Z" fill="#3F3D56"/>
<path d="M573.426 45.9663H560.606C561.196 47.4089 561.421 48.974 561.262 50.5238C561.102 52.0736 560.564 53.5605 559.693 54.8536C558.822 56.1466 557.646 57.2062 556.268 57.9388C554.891 58.6714 553.354 59.0547 551.793 59.0548H495.527C493.966 59.0547 492.429 58.6714 491.051 57.9388C489.674 57.2062 488.498 56.1466 487.627 54.8536C486.756 53.5605 486.217 52.0736 486.058 50.5238C485.899 48.974 486.124 47.4089 486.713 45.9663H474.739C469.425 45.9663 464.329 48.0731 460.571 51.8232C456.814 55.5733 454.703 60.6596 454.703 65.963V319.404C454.703 322.03 455.221 324.631 456.228 327.057C457.235 329.483 458.711 331.687 460.571 333.544C462.432 335.401 464.641 336.874 467.072 337.879C469.503 338.884 472.108 339.401 474.739 339.401H573.427C578.741 339.401 583.837 337.294 587.595 333.544C591.352 329.794 593.463 324.708 593.463 319.405V65.963C593.463 63.337 592.945 60.7367 591.938 58.3106C590.931 55.8845 589.455 53.6801 587.595 51.8232C585.734 49.9663 583.525 48.4934 581.094 47.4885C578.663 46.4835 576.058 45.9663 573.426 45.9663Z" fill="white"/>
<path d="M575.909 134.167H472.257C471.535 134.166 470.842 133.879 470.331 133.369C469.821 132.86 469.533 132.169 469.532 131.448V89.4739C469.533 88.753 469.821 88.0619 470.331 87.5522C470.842 87.0424 471.535 86.7557 472.257 86.7549H575.909C576.631 86.7557 577.324 87.0424 577.834 87.5522C578.345 88.0619 578.632 88.753 578.633 89.4739V131.448C578.632 132.169 578.345 132.86 577.834 133.369C577.324 133.879 576.631 134.166 575.909 134.167Z" fill="#FF626C"/>
<path d="M566.039 154.03H482.127C481.332 154.03 480.569 153.715 480.007 153.154C479.445 152.593 479.13 151.832 479.13 151.039C479.13 150.246 479.445 149.485 480.007 148.924C480.569 148.363 481.332 148.048 482.127 148.048H566.039C566.834 148.048 567.596 148.363 568.158 148.924C568.72 149.485 569.036 150.246 569.036 151.039C569.036 151.832 568.72 152.593 568.158 153.154C567.596 153.715 566.834 154.03 566.039 154.03Z" fill="#FF626C"/>
<path d="M566.039 169.256H482.127C481.259 169.256 480.428 168.912 479.815 168.3C479.202 167.689 478.857 166.859 478.857 165.993C478.857 165.128 479.202 164.298 479.815 163.686C480.428 163.074 481.259 162.73 482.127 162.73H566.039C566.906 162.73 567.738 163.074 568.351 163.686C568.964 164.298 569.309 165.128 569.309 165.993C569.309 166.859 568.964 167.689 568.351 168.3C567.738 168.912 566.906 169.256 566.039 169.256Z" fill="#E4E4E4"/>
<path d="M566.039 184.211H482.127C481.259 184.211 480.428 183.867 479.815 183.255C479.202 182.643 478.857 181.813 478.857 180.948C478.857 180.083 479.202 179.253 479.815 178.641C480.428 178.029 481.259 177.685 482.127 177.685H566.039C566.906 177.685 567.738 178.029 568.351 178.641C568.964 179.253 569.309 180.083 569.309 180.948C569.309 181.813 568.964 182.643 568.351 183.255C567.738 183.867 566.906 184.211 566.039 184.211Z" fill="#E4E4E4"/>
<path d="M583.376 266.412H479.724C479.002 266.411 478.31 266.124 477.799 265.614C477.288 265.105 477.001 264.414 477 263.693V221.719C477.001 220.998 477.288 220.307 477.799 219.797C478.31 219.288 479.002 219.001 479.724 219H583.376C584.099 219.001 584.791 219.288 585.302 219.797C585.813 220.307 586.1 220.998 586.101 221.719V263.693C586.1 264.414 585.813 265.105 585.302 265.614C584.791 266.124 584.099 266.411 583.376 266.412Z" fill="#E4E4E4"/>
<path d="M566.039 279.92H482.127C481.259 279.92 480.428 279.576 479.815 278.964C479.202 278.353 478.857 277.523 478.857 276.657C478.857 275.792 479.202 274.962 479.815 274.35C480.428 273.738 481.259 273.395 482.127 273.395H566.039C566.906 273.395 567.738 273.738 568.351 274.35C568.964 274.962 569.309 275.792 569.309 276.657C569.309 277.523 568.964 278.353 568.351 278.964C567.738 279.576 566.906 279.92 566.039 279.92Z" fill="#E4E4E4"/>
<path d="M566.039 294.875H482.127C481.259 294.875 480.428 294.531 479.815 293.919C479.202 293.307 478.857 292.477 478.857 291.612C478.857 290.747 479.202 289.917 479.815 289.305C480.428 288.693 481.259 288.349 482.127 288.349H566.039C566.906 288.349 567.738 288.693 568.351 289.305C568.964 289.917 569.309 290.747 569.309 291.612C569.309 292.477 568.964 293.307 568.351 293.919C567.738 294.531 566.906 294.875 566.039 294.875Z" fill="#E4E4E4"/>
<path d="M566.039 309.829H482.127C481.259 309.829 480.428 309.486 479.815 308.874C479.202 308.262 478.857 307.432 478.857 306.567C478.857 305.701 479.202 304.871 479.815 304.259C480.428 303.647 481.259 303.304 482.127 303.304H566.039C566.906 303.304 567.738 303.647 568.351 304.259C568.964 304.871 569.309 305.701 569.309 306.567C569.309 307.432 568.964 308.262 568.351 308.874C567.738 309.486 566.906 309.829 566.039 309.829Z" fill="#E4E4E4"/>
<path d="M660.218 118.579C659.164 110.863 657.842 102.578 652.389 97.0076C650.658 95.2401 648.587 93.8407 646.3 92.8936C644.013 91.9466 641.558 91.4715 639.082 91.4971C636.606 91.5226 634.161 92.0483 631.894 93.0424C629.628 94.0365 627.586 95.4784 625.893 97.2813C621.923 101.508 620.17 107.442 620.01 113.233C619.849 119.023 621.141 124.75 622.575 130.363C630.161 130.514 637.692 129.035 644.655 126.026C646.361 125.195 648.131 124.501 649.948 123.952C651.788 123.484 653.099 124.66 654.81 125.48L655.75 123.685C656.519 125.113 658.9 124.69 659.763 123.317C660.627 121.944 660.438 120.185 660.218 118.579Z" fill="#2F2E41"/>
<path d="M729.708 329.939L724.136 333.616L707.271 313.917L715.494 308.489L729.708 329.939Z" fill="#9E616A"/>
<path d="M734.701 334.391L716.734 346.249L716.584 346.022C715.358 344.171 714.918 341.91 715.362 339.736C715.806 337.561 717.097 335.652 718.952 334.428L729.926 327.185L734.701 334.391Z" fill="#2F2E41"/>
<path d="M657.78 339.786H651.099L647.922 314.071L657.781 314.071L657.78 339.786Z" fill="#9E616A"/>
<path d="M659.483 346.249L637.944 346.248V345.976C637.944 343.757 638.827 341.629 640.399 340.06C641.972 338.491 644.104 337.609 646.327 337.609L659.484 337.61L659.483 346.249Z" fill="#2F2E41"/>
<path d="M610.251 163.067L585.028 145.086C585.139 144.144 584.974 143.19 584.552 142.341C584.13 141.491 583.469 140.782 582.651 140.3C581.832 139.818 580.891 139.584 579.941 139.626C578.992 139.668 578.075 139.985 577.303 140.537C576.53 141.09 575.936 141.855 575.591 142.739C575.246 143.623 575.166 144.587 575.361 145.516C575.555 146.444 576.016 147.296 576.687 147.968C577.358 148.64 578.21 149.102 579.139 149.3C582.292 151.942 605.32 174.798 608.617 173.592C611.964 172.368 626.595 170.153 626.595 170.153L627.002 156.289L610.251 163.067Z" fill="#9E616A"/>
<path d="M630.068 195.783L630.306 227.42C630.306 227.42 635.764 274.297 637.777 282.216C639.79 290.135 647.962 326.778 647.962 326.778L661.246 324.639L652.691 276.731L655.277 237.024L670.187 276.819L708.049 316.317L717.644 308.59L684.689 260.256L674.624 220.661C674.624 220.661 675.876 200.181 664.597 192.294L630.068 195.783Z" fill="#2F2E41"/>
<path d="M637.698 126.213C645.739 126.213 652.258 119.707 652.258 111.682C652.258 103.657 645.739 97.1514 637.698 97.1514C629.657 97.1514 623.138 103.657 623.138 111.682C623.138 119.707 629.657 126.213 637.698 126.213Z" fill="#9E616A"/>
<path d="M641.487 200.888L636.075 212.943L651.778 219.964L657.19 207.909L641.487 200.888Z" fill="#2F2E41"/>
<path d="M661.018 139.641C659.302 136.233 658.468 132.023 654.81 130.918C652.34 130.172 642.35 131.29 640.098 132.549C636.354 134.644 639.747 138.57 637.538 142.243C635.136 146.237 632.735 150.23 630.333 154.224C628.682 156.969 627.014 159.754 626.121 162.829C625.229 165.905 625.186 169.357 626.706 172.176C628.067 174.699 630.533 176.489 631.902 179.008C633.325 181.628 630.77 193.327 629.445 195.999L630.081 196.292C638.889 196.808 647.726 196.511 656.48 195.405C658.653 195.131 660.908 194.772 662.699 193.513C665.336 191.659 666.378 188.295 667.03 185.142C670.166 169.73 668.05 153.715 661.018 139.641Z" fill="#E4E4E4"/>
<path d="M631.22 172.646C635.165 168.777 639.13 164.885 642.377 160.416C645.624 155.948 648.149 150.834 648.854 145.359C649.156 143.613 649.036 141.819 648.505 140.128C647.9 138.47 646.56 136.998 644.833 136.62C642.069 136.015 639.557 138.216 637.585 140.241C631.77 146.211 625.955 152.181 620.14 158.151C623.844 163.017 627.548 167.883 631.252 172.749L631.22 172.646Z" fill="#E4E4E4"/>
<path d="M674.214 175.626C672.988 172.286 670.769 157.684 670.769 157.684L656.877 157.277L663.669 173.996L645.135 199.889C645.135 199.889 645.169 199.946 645.232 200.048C644.257 199.892 643.258 200.033 642.366 200.453C641.473 200.873 640.728 201.552 640.228 202.401C639.729 203.25 639.498 204.231 639.565 205.213C639.633 206.196 639.996 207.135 640.608 207.908C641.219 208.681 642.05 209.252 642.992 209.546C643.934 209.84 644.943 209.844 645.887 209.556C646.831 209.268 647.665 208.703 648.282 207.934C648.899 207.165 649.268 206.228 649.343 205.246C649.411 205.285 649.491 205.299 649.568 205.286C649.646 205.273 649.716 205.233 649.768 205.173C651.83 202.591 675.44 178.965 674.214 175.626Z" fill="#9E616A"/>
<path d="M675.627 166.404C674.352 161.033 673.067 155.633 670.917 150.547C668.767 145.462 665.69 140.658 661.361 137.223C660.02 136.061 658.421 135.235 656.696 134.813C654.961 134.471 653.006 134.854 651.788 136.133C649.838 138.179 650.425 141.464 651.14 144.196C653.248 152.252 655.357 160.307 657.465 168.363C663.554 167.719 669.643 167.075 675.732 166.431L675.627 166.404Z" fill="#E4E4E4"/>
<path d="M655.9 112.812C655.445 109.297 654.969 105.753 653.9 102.443C652.83 99.1328 651.107 96.0327 648.634 94.1577C644.719 91.189 639.65 91.7616 635.26 93.4692C631.865 94.7898 628.552 96.797 626.158 100.024C623.764 103.251 622.419 107.855 623.31 112.075C627.992 110.774 632.674 109.474 637.357 108.173L636.844 108.599C639.883 110.308 642.19 113.843 642.88 117.846C643.573 121.835 642.687 125.937 640.408 129.287C643.601 127.955 646.795 126.623 649.988 125.292C651.959 124.47 654.069 123.522 655.237 121.414C656.593 118.97 656.278 115.73 655.9 112.812Z" fill="#2F2E41"/>
<path d="M587.157 135.593L577.791 149.622C577.567 149.958 577.263 150.234 576.906 150.424C576.548 150.614 576.149 150.713 575.744 150.71C575.262 150.71 574.791 150.568 574.391 150.301C573.99 150.035 573.677 149.656 573.491 149.212C573.425 149.062 573.376 148.906 573.345 148.745C573.218 148.109 573.349 147.448 573.71 146.908L583.076 132.879C583.254 132.611 583.484 132.382 583.751 132.203C584.019 132.024 584.319 131.899 584.635 131.836C584.95 131.773 585.276 131.773 585.591 131.835C585.907 131.897 586.208 132.021 586.476 132.199C586.744 132.377 586.974 132.607 587.153 132.874C587.332 133.14 587.457 133.44 587.52 133.755C587.584 134.07 587.584 134.395 587.522 134.71C587.459 135.025 587.335 135.325 587.157 135.593Z" fill="#FF626C"/>
<path d="M578.546 148.49L576.65 151.313L573.296 154.264C573.075 154.459 572.796 154.575 572.502 154.595C572.208 154.615 571.916 154.537 571.671 154.374C571.426 154.211 571.242 153.972 571.147 153.694C571.053 153.415 571.053 153.114 571.147 152.836L572.616 148.546L574.465 145.776L578.546 148.49Z" fill="#3F3D56"/>
<path d="M587.571 128.236L582.877 132.365C582.723 132.5 582.603 132.669 582.525 132.858C582.447 133.047 582.413 133.251 582.427 133.455C582.441 133.659 582.501 133.857 582.604 134.034C582.707 134.211 582.849 134.362 583.019 134.475L583.907 135.066L581.339 138.913C581.3 138.972 581.272 139.039 581.258 139.109C581.244 139.179 581.244 139.251 581.259 139.321C581.273 139.391 581.3 139.457 581.34 139.517C581.38 139.576 581.431 139.627 581.491 139.667C581.55 139.706 581.617 139.734 581.687 139.748C581.757 139.761 581.83 139.761 581.9 139.747C581.97 139.733 582.037 139.706 582.096 139.666C582.156 139.626 582.207 139.575 582.246 139.516L584.814 135.669L585.702 136.26C585.997 136.455 586.357 136.526 586.704 136.458C587.051 136.389 587.357 136.186 587.554 135.892C587.619 135.795 587.671 135.689 587.709 135.578L589.72 129.665C589.814 129.387 589.814 129.085 589.719 128.807C589.624 128.529 589.44 128.29 589.195 128.127C588.95 127.964 588.658 127.886 588.364 127.906C588.07 127.926 587.792 128.042 587.571 128.236Z" fill="#3F3D56"/>
<path d="M749.351 347.396H396.649C396.477 347.395 396.312 347.327 396.191 347.205C396.07 347.084 396.002 346.92 396.002 346.748C396.002 346.577 396.07 346.412 396.191 346.291C396.312 346.17 396.477 346.101 396.649 346.101H749.351C749.523 346.101 749.687 346.17 749.809 346.291C749.93 346.412 749.998 346.577 749.998 346.748C749.998 346.92 749.93 347.084 749.809 347.205C749.687 347.327 749.523 347.395 749.351 347.396Z" fill="#3F3D56"/>
<path d="M527.761 50.707H513.049C512.76 50.707 512.483 50.5924 512.278 50.3884C512.074 50.1844 511.959 49.9078 511.959 49.6193C511.959 49.3309 512.074 49.0543 512.278 48.8503C512.483 48.6463 512.76 48.5317 513.049 48.5317H527.761C528.05 48.5317 528.327 48.6463 528.531 48.8503C528.736 49.0543 528.851 49.3309 528.851 49.6193C528.851 49.9078 528.736 50.1844 528.531 50.3884C528.327 50.5924 528.05 50.707 527.761 50.707Z" fill="white"/>
<path d="M535.117 50.707C535.719 50.707 536.207 50.22 536.207 49.6193C536.207 49.0187 535.719 48.5317 535.117 48.5317C534.515 48.5317 534.027 49.0187 534.027 49.6193C534.027 50.22 534.515 50.707 535.117 50.707Z" fill="white"/>
</g>
<g clip-path="url(#clip1_2032_8)">
<path d="M301.592 26.6943H117.969V113.964H301.592V26.6943Z" fill="#E6E6E6"/>
<path d="M296.462 33.8813H123.099V106.777H296.462V33.8813Z" fill="white"/>
<path d="M301.592 21.561H117.969V29.7747H301.592V21.561Z" fill="#235DCF"/>
<path d="M123.611 27.7212C124.461 27.7212 125.15 27.0317 125.15 26.1812C125.15 25.3306 124.461 24.6411 123.611 24.6411C122.762 24.6411 122.073 25.3306 122.073 26.1812C122.073 27.0317 122.762 27.7212 123.611 27.7212Z" fill="white"/>
<path d="M129.253 27.7212C129.82 27.7212 130.279 27.0317 130.279 26.1812C130.279 25.3306 129.82 24.6411 129.253 24.6411C128.687 24.6411 128.228 25.3306 128.228 26.1812C128.228 27.0317 128.687 27.7212 129.253 27.7212Z" fill="white"/>
<path d="M134.896 27.7212C135.745 27.7212 136.434 27.0317 136.434 26.1812C136.434 25.3306 135.745 24.6411 134.896 24.6411C134.046 24.6411 133.357 25.3306 133.357 26.1812C133.357 27.0317 134.046 27.7212 134.896 27.7212Z" fill="white"/>
<path d="M255.43 46.2017H226.707V95.4836H255.43V46.2017Z" fill="#F2F2F2"/>
<path d="M221.577 46.2017H164.131V59.5488H221.577V46.2017Z" fill="#235DCF"/>
<path d="M221.577 63.6558H164.131V78.0296H221.577V63.6558Z" fill="#F2F2F2"/>
<path d="M221.577 82.1367H164.131V95.4839H221.577V82.1367Z" fill="#F2F2F2"/>
<path d="M125.034 207.951C125.042 206.525 124.749 205.114 124.175 203.809C123.601 202.505 122.758 201.337 121.702 200.381C120.646 199.426 119.4 198.705 118.047 198.266C116.693 197.827 115.263 197.679 113.848 197.832C113.401 197.883 112.957 197.965 112.521 198.078L78.3439 168.719L80.3862 157.687L63.5408 152.216L58.4619 169.896C57.8611 172.018 57.959 174.277 58.741 176.339C59.523 178.4 60.9475 180.154 62.8031 181.341L104.847 207.99C104.847 208.321 104.864 208.653 104.899 208.982C105.052 210.4 105.503 211.769 106.221 213C106.939 214.231 107.909 215.295 109.067 216.125C110.224 216.954 111.544 217.528 112.938 217.811C114.333 218.093 115.771 218.077 117.159 217.764C117.563 217.674 117.96 217.559 118.349 217.419C120.295 216.714 121.979 215.429 123.174 213.736C124.369 212.043 125.018 210.024 125.034 207.951Z" fill="#9F616A"/>
<path d="M40.0657 242H84.1312C84.1312 243.269 129.546 244.3 129.546 244.3C130.259 244.837 130.909 245.455 131.483 246.139C133.208 248.201 134.15 250.807 134.145 253.498V255.337C134.144 258.387 132.935 261.31 130.783 263.466C128.632 265.622 125.714 266.834 122.672 266.835H40.0657C37.0237 266.833 34.107 265.62 31.9559 263.465C29.8049 261.309 28.5953 258.386 28.5927 255.337V253.498C28.5969 250.45 29.807 247.528 31.9577 245.372C34.1084 243.217 37.0241 242.004 40.0657 242Z" fill="#3F3D56"/>
<path d="M87.9988 266.378H76.0668V343.644H87.9988V266.378Z" fill="#3F3D56"/>
<path d="M121.959 344.605C121.959 346.051 103.878 345.164 81.5739 345.164C59.2698 345.164 41.1887 346.051 41.1887 344.605C41.1887 343.158 59.2698 331.686 81.5739 331.686C103.878 331.686 121.959 343.158 121.959 344.605Z" fill="#3F3D56"/>
<path d="M111.188 334.168L122.44 334.167L127.793 304.919L111.186 304.92L111.188 334.168Z" fill="#9F616A"/>
<path d="M108.318 345.099L144.601 345.097V344.638C144.601 342.779 144.235 340.939 143.526 339.222C142.816 337.505 141.776 335.944 140.464 334.63C139.153 333.316 137.596 332.273 135.883 331.562C134.17 330.851 132.333 330.485 130.479 330.485H130.477L108.317 330.486L108.318 345.099Z" fill="#2F2E41"/>
<path d="M128.018 316.031L150.451 265.617C152.323 261.368 152.531 256.568 151.031 252.173C149.531 247.777 146.434 244.11 142.356 241.9L93.6983 215.752L71.4946 213.859L51.0132 211.993L50.8655 212.244C50.6766 212.564 46.2729 220.186 49.2496 228.545C51.5076 234.885 57.3807 239.837 66.7059 243.264C88.472 251.262 113.616 258.098 123.416 260.665C123.849 260.776 124.254 260.978 124.604 261.257C124.954 261.536 125.241 261.886 125.446 262.284C125.651 262.677 125.774 263.109 125.805 263.552C125.836 263.995 125.775 264.44 125.626 264.858L104.785 311.783C104.567 312.378 104.489 313.015 104.556 313.645C104.623 314.276 104.833 314.882 105.171 315.418C105.509 315.954 105.965 316.405 106.504 316.736C107.044 317.067 107.651 317.27 108.281 317.329L123.854 318.465C123.986 318.478 124.118 318.484 124.249 318.484C125.046 318.484 125.827 318.252 126.496 317.816C127.164 317.381 127.693 316.761 128.018 316.031Z" fill="#CBCBCB"/>
<path d="M103.845 334.168L115.097 334.167L120.451 304.919L103.843 304.92L103.845 334.168Z" fill="#9F616A"/>
<path d="M100.975 345.099L137.258 345.097V344.638C137.258 342.779 136.893 340.939 136.183 339.222C135.473 337.505 134.433 335.944 133.122 334.63C131.81 333.316 130.254 332.273 128.54 331.562C126.827 330.851 124.99 330.485 123.136 330.485H123.134L100.974 330.486L100.975 345.099Z" fill="#2F2E41"/>
<path d="M119.757 318.79L142.19 268.377C144.063 264.128 144.27 259.327 142.77 254.932C141.27 250.537 138.173 246.869 134.096 244.66L85.4378 218.511L63.2341 216.618L47.192 215.224L47.1942 215.003C47.0053 215.323 42.6017 222.946 45.5784 231.304C47.8363 237.644 49.1202 242.596 58.4455 246.023C80.2115 254.021 105.356 260.857 115.156 263.425C115.589 263.536 115.994 263.737 116.343 264.016C116.693 264.295 116.98 264.645 117.185 265.043C117.391 265.437 117.513 265.869 117.544 266.312C117.575 266.755 117.514 267.199 117.365 267.618L96.5244 314.542C96.3067 315.137 96.2284 315.775 96.2953 316.405C96.3623 317.035 96.5728 317.642 96.9106 318.178C97.2485 318.713 97.7046 319.164 98.2438 319.496C98.783 319.827 99.391 320.03 100.021 320.088L115.593 321.225C115.726 321.237 115.857 321.243 115.988 321.243C116.786 321.243 117.566 321.011 118.235 320.576C118.904 320.141 119.433 319.52 119.757 318.79Z" fill="#CBCBCB"/>
<path d="M77.4809 216.144C78.5565 215.381 94.0021 223.502 96.7557 217.064C83.9058 184.87 92.7607 170.968 84.8896 152.506C83.5032 149.322 81.4147 146.494 78.781 144.235C76.1473 141.976 73.037 140.344 69.6837 139.463L49.2621 138.43L49.1564 138.481C44.5481 140.743 40.7899 144.433 38.439 149.004C36.0882 153.575 35.2698 158.784 36.1053 163.858C36.1779 183.95 48.1735 199.274 43.9791 213.847C43.8032 214.456 43.7519 215.095 43.8282 215.724C43.9045 216.354 44.1069 216.962 44.4232 217.511C44.7299 218.042 45.1419 218.504 45.6337 218.87C46.1256 219.235 46.6869 219.495 47.283 219.635L74.2479 216.03C74.8778 216.18 75.5324 216.194 76.1681 216.071C76.8038 215.948 77.406 215.69 77.9345 215.315L77.4809 216.144Z" fill="#2F2E41"/>
<path d="M56.0774 130.786C68.5277 130.786 78.6206 120.671 78.6206 108.194C78.6206 95.7168 68.5277 85.6021 56.0774 85.6021C43.6271 85.6021 33.5342 95.7168 33.5342 108.194C33.5342 120.671 43.6271 130.786 56.0774 130.786Z" fill="#9F616A"/>
<path d="M48.8969 128.93C50.0946 129.456 52.5474 119.891 51.4487 117.978C49.8147 115.133 49.9113 115.153 48.8266 113.271C47.7419 111.389 47.4992 108.813 48.9039 107.157C50.3085 105.5 53.5591 105.72 54.2002 107.797C53.7878 103.853 57.6806 100.682 61.5365 99.7912C65.3924 98.9003 69.4597 99.4534 73.3369 98.6606C77.8366 97.7405 82.5183 93.9605 80.723 89.0018C80.4149 88.1762 79.9537 87.4165 79.3636 86.7628C77.2894 84.4256 74.3878 83.4276 71.5509 82.4626C65.6491 80.4551 59.5858 78.4224 53.3573 78.6441C43.1233 79.0082 33.4496 86.098 30.0016 95.7613C29.5723 96.9671 29.2398 98.2052 29.0072 99.464C26.8693 110.984 33.5447 122.347 44.3868 126.734L48.8969 128.93Z" fill="#2F2E41"/>
<path d="M167.117 165.26L169.703 180.643C169.731 180.815 169.713 180.991 169.648 181.152L149.367 231.938C149.286 232.139 149.14 232.307 148.951 232.413C148.763 232.518 148.543 232.556 148.33 232.52C148.117 232.483 147.923 232.375 147.78 232.212C147.638 232.049 147.555 231.843 147.546 231.626L146.686 211.218C146.681 211.082 146.704 210.947 146.755 210.821L165.31 165.061C165.388 164.87 165.525 164.71 165.702 164.604C165.878 164.499 166.085 164.454 166.289 164.476C166.493 164.499 166.685 164.588 166.834 164.729C166.984 164.871 167.083 165.057 167.117 165.26Z" fill="#3F3D56"/>
<path d="M165.682 166.441L168.138 179.657L150.14 226L147.803 211.092L165.682 166.441Z" fill="#235DCF"/>
<path d="M86.9372 231.702C87.38 233.434 145.519 235.309 146.122 234.785C146.663 234.114 147.132 233.387 147.521 232.617C148.13 231.527 148.694 230.433 148.694 230.433L147.739 212.006L90.4671 205.873C90.4671 205.873 87.9334 221.25 87.1379 228.314C86.9583 229.434 86.891 230.569 86.9372 231.702Z" fill="#3F3D56"/>
<path opacity="0.1" d="M140.246 213.956L140.251 229.831L114.92 228.026L116.041 212.231L140.246 213.956Z" fill="black"/>
<path opacity="0.1" d="M107.237 216.706L107.39 216.687L106.194 223.436L92.121 222.433L92.6014 215.663L107.237 216.706Z" fill="black"/>
<path opacity="0.1" d="M86.9372 231.701C87.38 233.434 145.519 235.309 146.122 234.785C146.663 234.114 147.132 233.387 147.521 232.617L87.1379 228.314C86.9583 229.434 86.891 230.568 86.9372 231.701Z" fill="black"/>
<path d="M63.5922 204.184L112.635 213.357C112.758 213.665 112.896 213.966 113.05 214.259C113.716 215.516 114.639 216.618 115.758 217.493C116.877 218.369 118.168 218.999 119.545 219.342C120.929 219.691 122.37 219.739 123.774 219.484C125.178 219.23 126.511 218.677 127.684 217.864C129.81 216.402 131.296 214.18 131.84 211.655C132.383 209.129 131.942 206.491 130.607 204.281C129.271 202.07 127.143 200.456 124.658 199.768C122.173 199.08 119.519 199.371 117.241 200.58C116.844 200.794 116.463 201.034 116.099 201.301L73.5019 186.718L71.3216 175.712L53.6523 176.883L55.4832 195.333C55.7053 197.486 56.6142 199.51 58.075 201.105C59.5357 202.699 61.4705 203.779 63.5922 204.184Z" fill="#9F616A"/>
<path d="M53.0537 185.113L78.7284 176.656L72.7394 159.422C71.9441 157.134 70.3672 155.201 68.2874 153.965C66.2076 152.729 63.7588 152.27 61.3738 152.668C58.9611 153.071 56.7716 154.325 55.201 156.204C53.6303 158.084 52.7818 160.464 52.8089 162.915L53.0537 185.113Z" fill="#2F2E41"/>
<path d="M215.924 346H0.565246C0.415334 346 0.271561 345.94 0.165556 345.834C0.0595521 345.728 0 345.584 0 345.434C0 345.283 0.0595521 345.139 0.165556 345.033C0.271561 344.927 0.415334 344.867 0.565246 344.867H215.924C216.074 344.867 216.218 344.927 216.324 345.033C216.43 345.139 216.489 345.283 216.489 345.434C216.489 345.584 216.43 345.728 216.324 345.834C216.218 345.94 216.074 346 215.924 346Z" fill="#CBCBCB"/>
<path d="M299.698 328.153C310.027 333.51 314.619 345.174 314.619 345.174C314.619 345.174 302.465 348.153 292.136 342.796C281.806 337.438 277.214 325.774 277.214 325.774C277.214 325.774 289.368 322.795 299.698 328.153Z" fill="#F1F1F1"/>
</g>
<defs>
<clipPath id="clip0_2032_8">
<rect width="354" height="309" fill="white" transform="translate(396 39)"/>
</clipPath>
<clipPath id="clip1_2032_8">
<rect width="437" height="346" fill="white"/>
</clipPath>
</defs>
</svg>
