<svg width="40" height="40" viewBox="0 0 40 40" fill="none" xmlns="http://www.w3.org/2000/svg">
<circle cx="16.665" cy="16.665" r="16.665" fill="#235DCF"/>
<path fill-rule="evenodd" clip-rule="evenodd" d="M21.4572 18.5843C21.1927 18.4539 19.896 17.8256 19.6546 17.7381C19.4131 17.6515 19.2374 17.6086 19.0608 17.8694C18.885 18.1284 18.38 18.7146 18.2264 18.8879C18.072 19.062 17.9185 19.083 17.6548 18.9535C17.3912 18.8223 16.5409 18.5484 15.5335 17.6629C14.7498 16.9734 14.2199 16.122 14.0663 15.8613C13.9128 15.6014 14.0495 15.4605 14.1817 15.331C14.3007 15.2146 14.4453 15.0274 14.5776 14.876C14.7098 14.7238 14.7533 14.6153 14.8412 14.4411C14.93 14.2679 14.8856 14.1165 14.819 13.9861C14.7533 13.8558 14.2261 12.5757 14.006 12.055C13.7921 11.5484 13.5746 11.6175 13.4131 11.6088C13.2586 11.6018 13.0829 11.6 12.9072 11.6C12.7314 11.6 12.4456 11.6648 12.2042 11.9255C11.9619 12.1854 11.2811 12.8145 11.2811 14.0946C11.2811 15.3739 12.2255 16.6103 12.3578 16.7844C12.49 16.9576 14.2172 19.5844 16.8631 20.7105C17.4933 20.9783 17.9841 21.1384 18.3667 21.2574C18.9986 21.456 19.5738 21.428 20.0282 21.3606C20.5342 21.2863 21.5886 20.7315 21.8087 20.1243C22.028 19.517 22.028 18.9964 21.9623 18.8879C21.8966 18.7794 21.7209 18.7146 21.4564 18.5843H21.4572ZM16.6448 25.0619H16.6412C15.0697 25.0622 13.527 24.6457 12.1749 23.8561L11.8554 23.6689L8.53405 24.5281L9.42074 21.3361L9.21216 21.0089C8.33358 19.6302 7.86862 18.0346 7.87102 16.4064C7.8728 11.6377 11.8083 7.75791 16.6483 7.75791C18.9915 7.75791 21.1945 8.65916 22.8507 10.2937C23.6677 11.0957 24.3151 12.0494 24.7557 13.0997C25.1963 14.15 25.4213 15.276 25.4176 16.4125C25.4159 21.1813 21.4803 25.0619 16.6448 25.0619ZM24.1111 9.05203C23.1332 8.08159 21.9696 7.31213 20.6878 6.78823C19.406 6.26434 18.0315 5.99643 16.6439 6.00004C10.8267 6.00004 6.09053 10.6682 6.08876 16.4055C6.08787 18.2395 6.57338 20.0298 7.49735 21.6074L6 27L11.5953 25.5528C13.1431 26.3841 14.8777 26.8197 16.6403 26.8198H16.6448C22.462 26.8198 27.1981 22.1516 27.1999 16.4134C27.2042 15.046 26.9334 13.6914 26.4032 12.4278C25.8731 11.1642 25.094 10.0169 24.1111 9.05203Z" fill="white"/>
</svg>
